<svg xmlns="http://www.w3.org/2000/svg" width="13.03" height="11"><path d="M13.04 1.3a5.238 5.238 0 01-1.54.438A2.788 2.788 0 0012.68.201a5.256 5.256 0 01-1.7.674 2.625 2.625 0 00-1.95-.877 2.722 2.722 0 00-2.67 2.778 3.281 3.281 0 00.06.633A7.5 7.5 0 01.91.509a2.848 2.848 0 00-.36 1.4 2.8 2.8 0 001.19 2.312 2.578 2.578 0 01-1.21-.347V3.9a2.752 2.752 0 002.15 2.723 2.676 2.676 0 01-.71.1 2.523 2.523 0 01-.5-.05 2.692 2.692 0 002.49 1.929A5.211 5.211 0 01.64 9.791a5.1 5.1 0 01-.63-.039A7.36 7.36 0 004.11 11a7.715 7.715 0 007.6-7.9c0-.12 0-.24-.01-.36a5.463 5.463 0 001.34-1.44z" fill="#34404b" fill-rule="evenodd"/></svg>