<svg xmlns="http://www.w3.org/2000/svg" width="12.31" height="11"><path data-name="google +" d="M6.72 0H3.5A2.761 2.761 0 00.7 2.5a2.389 2.389 0 002.45 2.475c.1 0 .2 0 .3-.01a1.4 1.4 0 00-.17.637 1.373 1.373 0 00.44.941c-.18 0-.36.006-.56.006-1.78 0-3.16 1.2-3.16 2.454 0 1.231 1.51 2 3.3 2 2.04 0 3.16-1.224 3.16-2.454a2.41 2.41 0 00-1.12-2.214 2.15 2.15 0 01-.85-1.06 1.131 1.131 0 01.62-.975 2.334 2.334 0 00.91-1.779A2.066 2.066 0 004.98.553H6zM5.59 8.334a1.37 1.37 0 01.04.351c0 .994-.6 1.771-2.34 1.771a1.963 1.963 0 01-2.13-1.822 2.154 2.154 0 012.35-1.772 2.139 2.139 0 012.08 1.472zM3.62 4.625a2.273 2.273 0 01-1.77-2.134C1.71 1.338 2.27.456 3.1.482a2.227 2.227 0 011.76 2.1C5 3.738 4.44 4.651 3.62 4.625zM10 2.441V0h-.77v2.441H6.92v.814h2.31V5.7H10V3.255h2.31v-.814H10z" fill="#34404b" fill-rule="evenodd"/></svg>