<svg width="212" height="217" fill="#e5f5ff" xmlns="http://www.w3.org/2000/svg"><path d="M106 0l14.426 15.267 18.33-9.957 9.111 19.083 20.438-3.671 2.904 21.03 20.547 2.973-3.587 20.92 18.643 9.327-9.727 18.761L212 108.5l-14.915 14.767 9.727 18.761-18.643 9.326 3.587 20.921-20.547 2.972-2.904 21.031-20.438-3.671-9.111 19.083-18.33-9.957L106 217l-14.426-15.267-18.33 9.957-9.111-19.083-20.438 3.671-2.904-21.031-20.547-2.972 3.587-20.921-18.643-9.326 9.727-18.761L0 108.5l14.915-14.767-9.727-18.761 18.643-9.326-3.587-20.92 20.547-2.973 2.904-21.031 20.438 3.671L73.244 5.31l18.33 9.957L106 0z"/></svg>