<svg version="1.2" baseProfile="tiny" xmlns="http://www.w3.org/2000/svg" width="860.767" height="321.416"><g fill="#FFF"><path d="M150.356 8.422c.268 1.005.685 1.919.73 2.85.175 3.645.315 7.296.305 10.944-.007 2.584-.825 3.344-3.377 3.559-1.09.092-2.202-.027-3.281.118-1.192.16-2.396.408-3.525.811-1.231.439-1.703 1.476-1.595 2.779.094 1.132.697 1.842 2.051 2.238.579.17 1.198.33 1.791.304 3.705-.163 7.407-.417 11.113-.567 2.245-.091 3.875-2.064 3.899-4.278.029-2.616.024-5.232.055-7.848.03-2.554.074-5.107.145-7.66.015-.541.146-1.084.273-1.615.481-2.004.954-2.396 3.05-2.251 1.88.13 3.748.407 5.625.592 3.691.365 7.4.597 11.073 1.097 4.09.557 8.167 1.258 12.214 2.077 2.327.471 2.88 1.561 2.376 3.856a508.273 508.273 0 01-1.834 7.997 13.688 13.688 0 01-.62 1.907c-.976 2.448-1.475 2.826-4.077 2.722-1.698-.068-3.388-.324-5.084-.481-.544-.05-1.092-.08-1.637-.074-1.045.013-1.957.318-2.285 1.435-.33 1.122-.201 2.194.732 3.01.406.355.875.678 1.37.881.727.297 1.492.522 2.26.693 3.024.671 6.06 1.289 9.083 1.967 1.807.406 2.441.243 3.267-1.396.625-1.239 1.097-2.571 1.5-3.903 1.249-4.132 2.398-8.295 3.653-12.426 1.024-3.37 1.655-3.815 4.986-2.591 6.219 2.286 12.355 4.797 18.512 7.248 1.24.493 2.471 1.049 3.621 1.722 1.936 1.135 2.371 2.436 1.338 4.455-1.717 3.355-3.539 6.66-5.404 9.936-.868 1.526-1.279 1.659-3.001 1.21-1.048-.273-2.032-.791-3.054-1.174-.849-.318-1.692-.714-2.573-.871-1.521-.272-2.691.442-3.226 1.779-.48 1.2-.131 2.098 1.243 3.065.546.384 1.12.736 1.711 1.047a283.028 283.028 0 005.998 3.096c2.173 1.079 3.49.766 4.792-1.278 1.503-2.358 2.875-4.8 4.315-7.198 1.472-2.45 2.998-4.869 4.422-7.347.745-1.296 1.811-1.539 3.088-1.191.69.188 1.39.491 1.97.904 5.649 4.024 11.274 8.082 16.905 12.131.049.035.096.075.143.114 3.139 2.546 3.261 3.709.661 6.726-1.748 2.029-3.523 4.035-5.291 6.046-.361.411-.739.81-1.129 1.194-1.648 1.617-2.202 1.687-4.09.401-.803-.547-1.531-1.201-2.304-1.793-.772-.592-1.521-1.223-2.342-1.739-1.525-.959-2.209-.887-3.223.193-1.045 1.113-1.227 2.674-.376 3.837.392.535.87 1.023 1.374 1.458 2.164 1.87 4.35 3.716 6.534 5.563.324.274.674.523 1.032.752 1.336.855 2.04.845 3.318-.125.579-.439 1.109-.951 1.617-1.473 3.138-3.231 6.257-6.481 9.4-9.707.677-.695 1.382-1.38 2.155-1.962 1.028-.773 1.793-.757 2.837.006.585.427 1.11.949 1.606 1.482 6.06 6.515 11.682 13.395 16.905 20.594 2.6 3.583 1.734 4.038-1.074 5.904a539.442 539.442 0 01-7.194 4.675c-.56.36-1.152.684-1.76.954-1.248.553-2.413.371-3.324-.662-.843-.955-1.591-1.994-2.382-2.995-.829-1.048-1.589-2.162-2.508-3.125-1.046-1.096-2.055-1.142-3.288-.385-1.144.702-1.609 1.822-1.218 3.139.153.514.427 1.01.728 1.46 2.062 3.087 4.105 6.187 6.234 9.227 1.83 2.614 2.699 2.802 5.455 1.244 3.973-2.245 7.907-4.559 11.864-6.832.79-.454 1.583-.923 2.421-1.272 1.558-.648 2.655-.304 3.638 1.094.383.544.689 1.147.987 1.744a229.479 229.479 0 0110.61 24.818c.082.229.171.457.239.69.683 2.348.323 3.234-2.032 4.018-3.69 1.229-7.433 2.298-11.149 3.45-.935.29-1.741.04-2.289-.685a12.294 12.294 0 01-1.451-2.503c-.482-1.113-.727-2.331-1.238-3.428a13.323 13.323 0 00-1.734-2.753c-.7-.861-1.659-.851-2.662-.414-.995.434-1.636 1.046-1.454 2.216.177 1.137.266 2.303.584 3.401.711 2.451 1.541 4.868 2.325 7.299.093.289.193.577.307.858 1.137 2.799 2.295 3.523 5.22 2.863 4.208-.949 8.38-2.06 12.569-3.093 1.059-.261 2.116-.59 3.194-.703 1.776-.186 2.33.138 2.881 1.808.569 1.727 1.077 3.495 1.386 5.285a443.145 443.145 0 012.097 13.516c.271 1.924.35 3.877.457 5.82.033.596-.11 1.208-.214 1.805-.205 1.176-.951 1.869-2.111 1.923-3.889.182-7.78.366-11.672.41-1.771.02-2.965-1.007-3.375-2.777-.191-.826-.248-1.682-.414-2.515-.213-1.068-.358-2.171-.742-3.179-.512-1.341-1.658-1.733-2.979-1.147-1.119.496-1.863 1.351-2.119 2.574-.062.296-.115.611-.079.907.385 3.132.707 6.276 1.222 9.387.264 1.599 1.072 2.166 2.872 2.248 2.796.127 5.597.137 8.396.171 2.556.03 5.113-.011 7.668.046 3.032.068 3.611.677 3.623 3.697.022 5.792-.39 11.542-1.558 17.233-.341 1.662-.376 3.385-.617 5.07-.342 2.382-1.261 3.152-3.686 3.039a21.686 21.686 0 01-3.434-.443 219.579 219.579 0 01-7.288-1.68c-1.919-.473-2.531-1.271-2.47-3.245.034-1.09.259-2.174.313-3.265.057-1.146.142-2.316-.02-3.442-.203-1.403-.918-2.013-2.121-2.13-1.256-.122-2.311.285-2.921 1.432-.308.579-.506 1.242-.628 1.891a405.446 405.446 0 00-1.636 9.149c-.529 3.217-.2 2.986 2.2 3.902 2.2.84 4.555 1.281 6.849 1.869 2.943.753 5.895 1.473 8.84 2.218a8.29 8.29 0 011.208.408c2.165.921 2.537 1.493 1.87 3.78a121.753 121.753 0 01-2.877 8.652 723.555 723.555 0 01-6.291 16.147c-.468 1.162-1.237 2.221-1.973 3.251-.533.745-1.36 1.029-2.277.724-.918-.305-1.859-.581-2.72-1.008-2.125-1.054-4.211-2.186-6.311-3.29-3.694-1.943-4.216-3.588-2.373-7.372.691-1.419 1.443-2.822 1.98-4.3.767-2.113-.921-4.097-3.153-3.742-.531.084-1.122.487-1.462.92-.597.757-1.074 1.624-1.509 2.491a439.103 439.103 0 00-4.096 8.356c-1.588 3.342-1.201 4.546 1.992 6.402 3.788 2.201 7.594 4.37 11.371 6.591.885.52 1.759 1.11 2.501 1.812 1.142 1.081 1.217 1.842.541 3.261-.234.492-.521.964-.821 1.42-4.756 7.227-9.862 14.194-15.472 20.784-.63.74-1.287 1.47-2.015 2.11-1.199 1.054-1.934 1.079-3.295.247-.362-.221-.725-.46-1.03-.752-2.549-2.441-5.125-4.856-7.61-7.361-1.461-1.473-1.467-2.701-.181-4.371.779-1.011 1.676-1.93 2.488-2.916.657-.797 1.326-1.595 1.883-2.46.767-1.192.635-2.222-.268-3.144-1.019-1.04-2.343-1.296-3.471-.561a9.788 9.788 0 00-1.797 1.536 462.231 462.231 0 00-6.637 7.29c-1.799 2.027-1.863 3.236-.019 5.25 2.958 3.231 6.051 6.339 9.069 9.515.963 1.013 1.946 2.021 2.784 3.134.948 1.258.888 1.703-.107 2.902-.503.606-1.048 1.2-1.663 1.686-5.684 4.483-11.388 8.94-17.087 13.404-.096.075-.201.137-.301.206-2.909 1.996-4.238 1.823-6.18-1.086a146.742 146.742 0 01-5.081-8.229c-1.261-2.19-1.007-3.109.974-4.658.766-.599 1.632-1.074 2.371-1.701.641-.543 1.268-1.155 1.722-1.853.707-1.084.511-2.222-.361-3.175-.827-.904-1.758-1.114-2.971-.592-.668.287-1.328.62-1.932 1.021-1.977 1.312-3.958 2.623-5.878 4.015-2.037 1.476-2.296 2.447-1.082 4.653 2.259 4.104 4.633 8.144 6.938 12.223.537.95 1.079 1.914 1.46 2.93.517 1.381.266 2.134-.894 3.038a9.57 9.57 0 01-1.869 1.128c-6.301 2.889-12.581 5.829-18.933 8.6-3.657 1.596-4.592 1.099-5.96-2.662-.977-2.685-1.858-5.405-2.778-8.111a6.686 6.686 0 01-.249-.877c-.446-2.306-.049-3.224 2.065-4.259 1.472-.72 3.045-1.231 4.528-1.93 1.411-.665 1.931-1.864 1.592-3.305-.423-1.793-1.633-2.649-3.37-2.057-3.624 1.236-7.191 2.637-10.784 3.961-1.226.452-1.727 1.346-1.457 2.577.48 2.194.984 4.386 1.59 6.547.935 3.337 1.966 6.646 2.953 9.969.786 2.647.148 3.868-2.458 4.728-.173.057-.343.132-.521.166-4.596.861-9.192 1.724-13.791 2.574-2.45.453-4.897.938-7.361 1.301-1.803.266-3.629.385-5.449.511a7.914 7.914 0 01-1.995-.141c-1.704-.319-2.354-.926-2.469-2.659-.178-2.669-.209-5.349-.279-8.025a59.996 59.996 0 01.019-3.286c.045-1.513.795-2.568 2.255-2.96 1.225-.329 2.493-.5 3.746-.722 1.493-.264 3.025-.381 4.474-.795 1.529-.437 1.962-1.824 1.144-3.193-.837-1.4-2.017-2.265-3.74-2.099-.786.076-1.591.121-2.347.326-2.139.58-4.312.7-6.51.71-1.03.004-2.06.146-3.088.249-1.295.13-2.158.869-2.502 2.081-.262.923-.44 1.902-.451 2.858-.047 4.322-.018 8.644-.024 12.966-.001.608.014 1.225-.083 1.821-.262 1.609-1.127 2.436-2.751 2.706-.36.06-.724.13-1.087.129-5.9-.016-11.791-.013-17.614-1.282-2.664-.581-5.427-.69-8.117-1.169-1.356-.241-2.708-.706-3.958-1.291-1.499-.701-1.655-1.154-1.29-2.77a355.157 355.157 0 012.209-9.222c.238-.935.676-1.82 1.033-2.724.459-1.16 1.307-1.734 2.559-1.564 1.201.163 2.395.378 3.586.598 1.193.221 2.371.573 3.572.695 1.657.169 2.506-.551 2.833-2.166.306-1.513-.386-3.105-1.726-3.416-3.967-.919-7.949-1.79-11.953-2.526-1.792-.33-2.7.304-3.491 1.952a16.743 16.743 0 00-.986 2.547c-1.004 3.443-1.933 6.909-2.958 10.345-.433 1.451-.948 2.891-1.583 4.264-.653 1.411-1.436 1.712-2.977 1.402a10.27 10.27 0 01-1.75-.503c-6.164-2.439-12.332-4.865-18.471-7.365-1.4-.57-2.675-1.44-4.035-2.116-.994-.494-1.223-1.291-1.029-2.269.117-.591.257-1.207.536-1.732 1.628-3.061 3.256-6.124 4.975-9.135 1.117-1.958 2.561-2.379 4.713-1.508 1.295.525 2.541 1.169 3.828 1.717 1.062.453 2.023.225 2.85-.577 1.256-1.217 1.284-2.794.037-4.017a5.149 5.149 0 00-1.17-.862c-2.204-1.167-4.392-2.37-6.646-3.433-2.644-1.247-3.984-.848-5.495 1.665-2.163 3.598-4.215 7.262-6.332 10.887-.674 1.155-1.324 2.337-2.128 3.398-1.106 1.458-2.018 1.619-3.631.771a20.675 20.675 0 01-2.472-1.549c-5.331-3.842-10.685-7.653-15.955-11.577-3.034-2.26-3.123-3.602-.708-6.442 1.735-2.039 3.53-4.028 5.307-6.031.322-.364.672-.706 1.033-1.031 1.802-1.618 2.91-1.689 4.854-.281.887.642 1.721 1.358 2.609 1.998.589.425 1.199.849 1.858 1.142 1.345.598 2.315.364 3.109-.628.891-1.112.947-2.373.049-3.515a13.528 13.528 0 00-1.776-1.83c-1.931-1.674-3.892-3.314-5.851-4.956-.372-.312-.791-.567-1.184-.853-1.149-.835-2.294-.725-3.365.102a19.111 19.111 0 00-2.027 1.832c-3.007 3.103-5.982 6.238-8.995 9.335a16.451 16.451 0 01-2.202 1.908c-1.019.729-1.829.682-2.841-.083-.531-.401-1.017-.872-1.476-1.357-6.161-6.51-11.794-13.46-17.022-20.73-1.872-2.603-2.397-3.234 1.053-5.729 2.512-1.816 5.163-3.445 7.802-5.077 2.426-1.501 3.555-1.292 5.352.881.774.936 1.42 1.976 2.165 2.937.669.864 1.334 1.746 2.11 2.509.966.95 1.912 1.002 2.984.356 1.035-.624 1.681-1.848 1.386-2.937a7.476 7.476 0 00-.968-2.147 362.527 362.527 0 00-5.541-8.15c-2.481-3.537-3.632-3.371-6.779-1.529a1080.825 1080.825 0 01-11.868 6.824c-3.301 1.877-4.521 1.562-6.185-1.841-3.957-8.091-7.619-16.314-10.583-24.83-1.058-3.041-.496-4.216 2.559-5.229 2.596-.861 5.228-1.613 7.85-2.395a10.234 10.234 0 011.607-.333c2.51-.328 3.559.304 4.512 2.655.798 1.968 1.587 3.941 2.431 5.889.389.898 1.029 1.477 2.145 1.269 1.09-.203 2.005-.658 2.361-1.747a4.68 4.68 0 00.181-1.968c-.11-.898-.369-1.785-.635-2.656-.693-2.267-1.391-4.533-2.158-6.776a18.243 18.243 0 00-1.327-2.983c-.588-1.052-1.549-1.514-2.779-1.268-.655.131-1.313.25-1.961.41-4.308 1.064-8.61 2.146-12.921 3.198-.766.187-1.555.312-2.34.374-1.756.139-2.409-.293-3.048-1.937-1.047-2.69-1.428-5.524-1.815-8.359-.568-4.156-1.192-8.304-1.724-12.464a31.22 31.22 0 01-.222-4.367c.025-1.861 1.14-3.138 3.014-3.254 3.702-.228 7.413-.357 11.122-.415 1.721-.027 2.916 1.083 3.292 2.848.202.948.244 1.93.348 2.897.065.605.052 1.224.177 1.814.408 1.922 1.27 2.504 3.269 2.281 1.666-.186 2.597-1.178 2.444-2.998a156.716 156.716 0 00-1.081-9.239c-.213-1.471-1.113-2.173-2.685-2.232-2.493-.094-4.989-.099-7.484-.11-2.8-.012-5.6.021-8.4.011a12.276 12.276 0 01-2-.155c-1.146-.194-1.846-.895-2.006-2.058a13.28 13.28 0 01-.145-2.001c.077-5.049.126-10.092 1.221-15.071.442-2.008.496-4.101.737-6.154.085-.724.134-1.461.316-2.162.496-1.904 1.772-2.687 3.697-2.298 3.038.612 6.078 1.215 9.1 1.897.935.211 1.855.59 2.71 1.031 1.131.583 1.664 1.558 1.446 2.875-.158.958-.283 1.922-.432 2.882-.121.781-.332 1.556-.371 2.34-.089 1.766.771 2.795 2.444 3.051 1.596.244 2.886-.566 3.321-2.143.177-.642.239-1.316.362-1.973.345-1.848.703-3.694 1.041-5.543.196-1.073.412-2.146.533-3.229.164-1.46-.589-2.454-1.842-3.06-.65-.315-1.364-.52-2.069-.694-4.189-1.033-8.387-2.03-12.574-3.071a20.167 20.167 0 01-2.771-.908c-1.859-.762-2.283-1.479-1.708-3.389 1.121-3.725 2.245-7.457 3.592-11.104 1.747-4.733 3.695-9.393 5.596-14.068.387-.952.889-1.871 1.443-2.738.889-1.388 1.703-1.633 3.262-1.115.344.115.678.271 1.001.44 2.859 1.49 5.718 2.982 8.569 4.487.428.226.859.476 1.224.79.943.809 1.485 1.808 1.027 3.07-.559 1.539-1.235 3.036-1.776 4.581-.398 1.134-.817 2.299-.944 3.481-.145 1.344.541 2.282 1.529 2.632 1.276.453 2.266.131 3.171-1.069.329-.436.651-.89.89-1.378 1.604-3.278 3.233-6.545 4.755-9.861.964-2.1.52-3.558-1.35-4.929-.831-.609-1.737-1.121-2.63-1.641-3.418-1.99-6.878-3.909-10.258-5.962-3.565-2.165-3.805-2.859-1.438-6.487 4.793-7.347 10.072-14.344 15.706-21.068 2.496-2.979 3.731-3.026 6.582-.336a664.683 664.683 0 016.076 5.799c.478.462.925.973 1.3 1.521.676.989.784 2.065.08 3.077-.727 1.046-1.544 2.03-2.325 3.038-.817 1.057-1.71 2.064-2.437 3.181-.703 1.081-.511 2.068.351 2.966.887.924 2.117 1.251 3.142.691a7.39 7.39 0 001.87-1.432c2.31-2.505 4.569-5.057 6.844-7.595.122-.136.227-.286.335-.433 1.274-1.738 1.279-2.973-.194-4.563-2.647-2.857-5.367-5.646-8.05-8.47-1.174-1.235-2.358-2.462-3.49-3.735-1.302-1.465-1.277-2.587.077-3.974.764-.783 1.556-1.552 2.414-2.227 5.259-4.14 10.538-8.254 15.816-12.37.431-.336.889-.641 1.356-.927 1.938-1.188 3.131-1.085 4.386.742 2.1 3.057 4.097 6.19 6.016 9.364 1.079 1.784.854 2.795-.705 4.185-.995.887-2.168 1.573-3.177 2.447-.626.543-1.292 1.19-1.585 1.931-.434 1.097.007 2.154.871 2.973.795.753 1.714.852 2.705.437.28-.117.575-.218.825-.384 2.484-1.649 4.973-3.29 7.431-4.977 1.062-.728 1.442-1.837 1.13-3.052a11.095 11.095 0 00-1.103-2.679c-2.189-3.865-4.442-7.694-6.651-11.547-2.011-3.507-1.809-4.789 1.784-6.514 6.356-3.052 12.825-5.874 19.297-8.674.999-.432 2.268-.311 3.41-.294.357.005.862.437 1.033.799a47.806 47.806 0 011.672 4.043c.708 1.942 1.349 3.909 2.015 5.866 1.148 3.371.528 4.705-2.791 6.133-1.282.552-2.597 1.074-3.77 1.811-.598.375-1.125 1.137-1.318 1.826-.362 1.292.603 3.281 2.664 3.04.899-.105 1.813-.254 2.666-.545 2.245-.764 4.46-1.613 6.685-2.436.456-.169.909-.35 1.346-.561 2.821-1.365 2.97-1.681 2.092-4.723-1.383-4.791-2.785-9.576-4.181-14.363-.068-.233-.152-.463-.215-.697-.666-2.472-.354-3.112 2.031-4.004.91-.34 1.832-.688 2.78-.88 4.706-.952 9.399-1.999 14.141-2.728 4.023-.619 8.105-.858 12.162-1.246.595-.056 1.203-.007 2.157-.007zm-42.874 283.224c-1.621-.588-2.985-1.058-4.329-1.577-1.247-.481-2.448-1.091-3.717-1.499-1.196-.385-2.131.053-2.832 1.088-1.002 1.48-.719 3.245.942 4.008 3.586 1.649 7.261 3.103 10.906 4.621.274.114.595.121.896.16 1.353.177 2.428-.235 2.973-1.554.649-1.571 1.285-3.15 1.841-4.755 1.235-3.561 2.26-7.203 3.664-10.694 1.339-3.329 1.279-3.875 5.75-2.762 5.067 1.262 10.094 2.713 15.311 3.332 1.794.213 3.588.684 5.296 1.281 1.94.678 2.498 1.99 2.204 4.031-.381 2.647-.689 5.304-1.018 7.958-.09.725-.119 1.457-.22 2.18-.272 1.948-.884 2.605-2.807 2.676-1.513.056-3.033-.105-4.551-.174-1.213-.055-2.441-.251-3.635-.125-.785.083-1.654.475-2.25.997-1.141.999-.987 2.427.311 3.211.873.527 1.855.952 2.843 1.197 4.645 1.151 9.386 1.284 14.142 1.189 1.086-.022 1.726-.618 1.892-1.625.197-1.194.278-2.408.38-3.616.37-4.358.626-8.729 1.12-13.073.462-4.066.829-4.18 4.928-4.319 4.859-.165 9.717-.453 14.566-.814 2.054-.153 4.078-.681 6.128-.943 1.989-.254 3.024.368 3.704 2.175 1.428 3.793 2.044 7.758 2.257 11.78.108 2.05-.514 2.938-2.487 3.478-1.391.381-2.875.419-4.312.643-1.195.186-2.423.296-3.563.665-1.398.453-1.933 1.586-1.698 3.035.216 1.337 1.026 2.159 2.483 2.213 1.389.051 2.805.01 4.177-.203 3.181-.493 6.344-1.106 9.511-1.69a9.05 9.05 0 001.754-.487c1.24-.502 2.009-1.395 1.903-2.801-.078-1.025-.179-2.064-.423-3.059-.97-3.954-2.021-7.888-2.993-11.842-.245-.997-.375-2.036-.44-3.062-.111-1.775.296-2.425 1.937-3.083 1.297-.519 2.637-.928 3.957-1.389 3.673-1.282 7.349-2.556 11.017-3.855 1.317-.466 2.589-1.067 3.921-1.479 2.567-.795 3.088-.559 4.417 1.717.123.21.23.429.336.648 1.381 2.846 2.776 5.685 4.128 8.544.282.596.422 1.262.6 1.903.263.946-.042 1.68-.904 2.154-1.171.643-2.368 1.241-3.527 1.905-1.051.602-2.127 1.189-3.08 1.928-.842.652-.997 1.993-.563 3.016.442 1.039 1.26 1.464 2.341 1.333.778-.095 1.596-.172 2.303-.475 2.739-1.172 5.484-2.345 8.146-3.679 3.15-1.578 3.423-2.671 1.785-5.788a6357.07 6357.07 0 01-6.784-12.929c-.309-.591-.632-1.189-.835-1.82-.346-1.071-.175-2.053.792-2.767a59.94 59.94 0 012.228-1.587c3.991-2.678 7.988-5.346 11.983-8.017.506-.338.991-.71 1.516-1.014 1.698-.984 2.422-1.031 3.692.44 2.621 3.036 5.076 6.217 7.598 9.338.038.047.065.103.094.156.75 1.357.711 2.189-.361 3.296-.8.826-1.735 1.521-2.605 2.28-.824.719-1.697 1.393-2.445 2.185-.892.943-.957 1.955-.368 3.012.584 1.048 1.531 1.571 2.75 1.308.752-.162 1.545-.455 2.151-.913 2.62-1.981 5.258-3.952 7.738-6.101 2.905-2.516 2.866-2.963.352-5.868-3.305-3.82-6.641-7.615-9.934-11.446-1.766-2.055-1.676-3.248.109-5.226 4.524-5.013 9.013-10.059 13.521-15.087.487-.543 1.016-1.048 1.507-1.588.764-.84 1.686-.916 2.668-.529.504.199.989.477 1.433.789a909.994 909.994 0 017.746 5.489c.492.353.962.753 1.378 1.193 1.153 1.218 1.307 1.994.47 3.438-.698 1.204-1.557 2.318-2.382 3.446-.754 1.031-1.624 1.982-2.323 3.046-.929 1.415-.744 2.541.427 3.572 1.228 1.081 2.488 1.086 3.759-.031a8.253 8.253 0 001.106-1.211c2.247-2.954 4.488-5.913 6.708-8.888.471-.631.893-1.31 1.258-2.008.873-1.67.7-2.628-.723-3.863-.64-.556-1.353-1.036-2.064-1.502-3.869-2.534-7.769-5.021-11.615-7.588-2.415-1.612-2.661-2.765-1.379-5.391.053-.109.112-.216.17-.323 3.359-6.211 6.457-12.546 9.219-19.048 1.108-2.608 2.539-3.273 5.251-2.378a172.421 172.421 0 019.427 3.426c2.41.954 2.785 1.785 2.026 4.233-.521 1.68-1.324 3.273-1.835 4.955a11.35 11.35 0 00-.47 3.368c.011 1.039.631 1.811 1.755 2.04 1.392.285 1.984.096 2.76-1.115.522-.815 1.017-1.67 1.369-2.568 1.331-3.397 2.606-6.816 3.883-10.234.19-.509.302-1.051.413-1.585.266-1.278-.085-2.339-1.32-2.883-1.439-.635-2.905-1.235-4.406-1.701-3.483-1.082-6.999-2.056-10.49-3.113-.927-.281-1.81-.71-2.714-1.066-.962-.379-1.469-1.107-1.428-2.116.059-1.453.053-2.937.357-4.347.858-3.983 1.806-7.94 2.214-12.009.157-1.564.485-3.132.935-4.639.728-2.438 2.017-3.149 4.534-2.851 2.959.351 5.924.647 8.887.969.363.039.727.074 1.086.138 2.113.379 2.482.719 2.559 2.828.067 1.821-.079 3.65-.02 5.472.025.763.18 1.605.549 2.257.942 1.662 2.637 1.749 3.892.323.845-.959 1.184-2.112 1.306-3.343.157-1.574.33-3.149.405-4.728.081-1.701.128-3.409.061-5.11-.077-1.938-.933-2.866-2.839-3.224-.712-.134-1.451-.149-2.178-.169-4.623-.126-9.246-.231-13.868-.361a11.821 11.821 0 01-1.806-.215c-.943-.175-1.525-.755-1.624-1.718a85.969 85.969 0 01-.343-4.179c-.137-2.551-.143-5.112-.371-7.654-.189-2.115-.63-4.207-.937-6.313-.304-2.086.647-3.561 2.666-4.161.347-.103.714-.142 1.072-.204 2.514-.438 5.027-.885 7.544-1.305 1.077-.18 2.162-.408 3.246-.425 1.535-.024 2.417.64 2.791 2.118.265 1.049.25 2.165.418 3.242.187 1.192.291 2.429.703 3.546.519 1.409 1.626 1.877 3.09 1.634 1.28-.213 2.018-1.07 2.136-2.558.053-.665.102-1.349.008-2.004-.415-2.885-.814-5.775-1.347-8.639-.731-3.926-1.531-4.516-5.434-3.793-4.538.84-9.051 1.821-13.564 2.795-3.564.769-4.726.097-5.678-3.446-.016-.059-.024-.119-.039-.178-1.529-6.019-3.452-11.91-5.703-17.698a10.392 10.392 0 01-.64-2.829c-.105-1.209.246-2.328 1.459-2.901 3.354-1.584 6.722-3.141 10.089-4.698.216-.1.472-.115.71-.162 1.776-.353 2.629-.071 3.518 1.508.741 1.317 1.254 2.762 1.892 4.139.535 1.155 1.001 2.362 1.687 3.423.805 1.246 1.818 1.489 2.984.997 1.233-.521 2.045-1.794 1.856-3.048-.09-.594-.288-1.185-.522-1.742a1302.487 1302.487 0 00-4.869-11.411 7.978 7.978 0 00-1.013-1.724c-.968-1.242-1.732-1.442-3.178-.872-.677.267-1.326.608-1.975.942-4.274 2.197-8.543 4.404-12.818 6.6-.431.221-.887.398-1.339.576-1.232.484-2.29.19-3.106-.819-.61-.755-1.147-1.57-1.692-2.375-3.649-5.389-7.29-10.784-10.938-16.174-.273-.403-.599-.77-.86-1.18-1.026-1.607-.963-3.184.439-4.458 2.791-2.536 5.633-5.021 8.552-7.407 1.662-1.358 2.394-1.268 3.953.263 1.123 1.103 2.054 2.399 3.1 3.583.844.955 1.654 1.963 2.621 2.779.973.821 2.251.612 3.338-.304 1.076-.907 1.282-1.796.638-3.064a8.566 8.566 0 00-.99-1.527c-2.468-3.013-4.95-6.014-7.446-9.004a11.375 11.375 0 00-1.426-1.41c-1.315-1.102-2.047-1.162-3.44-.223-.703.474-1.356 1.033-1.976 1.614-3.376 3.162-6.718 6.36-10.105 9.51-2.619 2.435-3.424 2.378-6.171 0-4.371-3.783-8.786-7.514-13.174-11.278a18.66 18.66 0 01-1.711-1.639c-.812-.901-.985-1.949-.423-3.041.416-.809.87-1.606 1.378-2.361a374.714 374.714 0 014.146-6.011 21.692 21.692 0 011.573-2.011c1.112-1.243 1.907-1.397 3.367-.563.893.51 1.695 1.179 2.542 1.77.946.661 1.85 1.399 2.855 1.954 1.447.799 2.749.342 3.532-1.093.776-1.423.599-2.672-.935-3.843-2.9-2.212-5.905-4.286-8.894-6.38-.43-.302-.996-.447-1.521-.569-.968-.226-1.741-.008-2.326.931-1.448 2.322-2.98 4.592-4.47 6.889-1.655 2.552-3.255 5.141-4.966 7.654-1.35 1.983-2.701 2.207-4.851 1.121-4.776-2.413-9.572-4.786-14.357-7.184-.541-.271-1.114-.524-1.573-.905-.95-.789-1.533-1.836-1.084-3.067 1.372-3.766 2.738-7.539 4.293-11.232.713-1.694 1.812-2.043 3.613-1.53 1.104.315 2.122.921 3.221 1.261 1.145.354 2.329.645 3.517.778 1.107.124 1.818-.606 2.187-1.597.37-.995.261-1.975-.618-2.649-.812-.623-1.683-1.217-2.614-1.63a223.57 223.57 0 00-8.411-3.531c-3.046-1.204-3.91-.765-5.044 2.362-.145.4-.277.805-.413 1.208-1.239 3.69-2.465 7.384-3.723 11.067a44.959 44.959 0 01-1.262 3.225c-.531 1.235-1.425 1.942-2.852 1.774-1.264-.149-2.555-.172-3.792-.443-4.213-.923-8.403-1.949-12.611-2.897-1.42-.32-2.87-.506-4.3-.788a28.639 28.639 0 01-2.65-.642c-.838-.25-1.237-.823-1.314-1.748-.153-1.819-.286-3.601.005-5.444.397-2.517.545-5.077.71-7.624.08-1.235.79-1.815 1.836-1.867 1.502-.075 3.017.033 4.521.137 1.63.113 3.255.435 4.882.436 1.449 0 2.462-1.115 2.669-2.538.193-1.33-.481-2.407-1.929-2.905-.682-.234-1.415-.34-2.134-.442-3.068-.439-6.136-.87-9.209-1.273-1.205-.158-2.419-.313-3.631-.329-2.293-.031-2.938.525-3.278 2.756-.146.958-.152 1.938-.213 2.909-.263 4.186-.518 8.372-.793 12.556-.032.481-.156.959-.273 1.43-.536 2.166-1.465 2.995-3.637 3.168-5.944.473-11.889.922-17.833 1.386-1.455.114-2.907.258-4.362.37-2.207.17-3.12-.473-3.682-2.603-.372-1.411-.822-2.813-1.049-4.248-.398-2.516-.734-5.048-.936-7.586-.133-1.674.039-1.812 1.693-2.276 1.108-.31 2.271-.418 3.39-.693 1.827-.449 3.691-.823 5.443-1.485 1.888-.714 2.036-2.791.475-4.067-.927-.758-1.971-.925-3.083-.785-1.748.22-3.497.457-5.23.772-2.448.445-4.915.845-7.314 1.487-3.381.905-3.743 1.557-2.957 4.956.821 3.551 1.807 7.063 2.645 10.61a51.68 51.68 0 01.925 5.188c.209 1.598-.659 2.655-2.038 3.329-.435.213-.898.374-1.355.537-5.551 1.986-11.107 3.958-16.653 5.956-2.858 1.03-3.96.692-5.335-1.983-1.502-2.92-2.884-5.902-4.313-8.86a6.893 6.893 0 01-.331-.85c-.574-1.755-.323-2.593 1.218-3.564.818-.516 1.721-.901 2.598-1.319.878-.418 1.77-.806 2.659-1.202 1.595-.711 2.003-2.403 1.256-4.031-.692-1.506-1.647-1.816-3.493-1.178-.173.06-.351.106-.517.181-2.658 1.208-5.324 2.398-7.965 3.643-.82.387-1.562.938-2.353 1.391-1 .573-1.306 1.455-.959 2.481a24.066 24.066 0 001.41 3.345c2.097 4.052 4.27 8.064 6.363 12.118 1.473 2.853 1.293 3.451-1.324 5.208-4.647 3.12-9.296 6.237-13.948 9.348-2.289 1.53-2.965 1.44-4.811-.598a7.883 7.883 0 01-.238-.277c-1.97-2.399-3.947-4.792-5.903-7.202a8.153 8.153 0 01-.997-1.521c-.623-1.271-.549-2.504.523-3.51.84-.789 1.779-1.471 2.648-2.231.821-.718 1.694-1.405 2.387-2.236.781-.937.66-2.41-.086-3.399-.679-.899-1.671-1.157-2.955-.688a5.633 5.633 0 00-1.429.783 407.622 407.622 0 00-7.098 5.442c-.759.599-1.445 1.306-2.09 2.029-.714.8-.838 1.769-.343 2.72.389.749.84 1.487 1.38 2.132 1.367 1.633 2.799 3.212 4.206 4.811 1.81 2.056 3.659 4.079 5.422 6.174 1.902 2.259 1.84 3.535-.159 5.733-.778.855-1.632 1.64-2.403 2.501-3.775 4.217-7.516 8.463-11.303 12.668-1.853 2.058-3.28 2.261-5.585.701-2.619-1.773-5.159-3.664-7.722-5.519a7.008 7.008 0 01-1.076-.983c-1.114-1.235-1.265-2.248-.374-3.636.721-1.122 1.606-2.138 2.407-3.209.838-1.119 1.743-2.199 2.471-3.386.737-1.202.306-2.496-.964-3.488-1.18-.921-2.2-.989-3.243.143-3.511 3.811-6.587 7.967-9.324 12.365-.776 1.246-.466 2.493.506 3.513.581.609 1.269 1.138 1.977 1.599 3.517 2.294 7.061 4.545 10.583 6.83.713.462 1.418.955 2.049 1.521 1.514 1.359 1.734 2.367.978 4.225-.251.618-.589 1.2-.881 1.802-2.86 5.911-5.717 11.824-8.578 17.735-.371.766-.784 1.513-1.128 2.29-.382.861-1.038 1.131-1.916 1.018-.482-.062-.989-.059-1.44-.215-3.449-1.185-6.918-2.322-10.317-3.639-2.124-.823-2.63-1.949-2.078-4.213.329-1.347.965-2.617 1.401-3.942.377-1.147.73-2.309.979-3.489.256-1.218-.456-2.125-1.299-2.851-1.138-.981-2.4-.768-3.244.499a9.926 9.926 0 00-1.011 1.935c-1.499 3.918-2.965 7.849-4.434 11.779a5.52 5.52 0 00-.277 1.057c-.297 1.886.143 2.688 1.911 3.425.616.256 1.258.453 1.899.644 4.486 1.34 8.985 2.636 13.458 4.019 2.649.819 3.476 2.216 3.055 4.976-.256 1.682-.534 3.368-.942 5.018-.806 3.253-1.483 6.515-1.685 9.874a18.411 18.411 0 01-.686 3.945c-.573 1.99-1.523 2.707-3.593 2.677-3.406-.05-6.81-.223-10.215-.354-.301-.012-.603-.079-.9-.143-1.721-.376-2.419-1.072-2.572-2.825-.105-1.208-.025-2.432-.027-3.648-.002-1.034 0-2.068-.005-3.101-.005-1.076-.408-1.898-1.497-2.245-1.193-.38-2.294-.02-3.003 1.097-.417.658-.799 1.396-.961 2.148-.772 3.591-.889 7.242-.743 10.898.054 1.355.619 1.975 1.962 2.275.941.21 1.925.29 2.892.315 2.312.06 4.627.012 6.938.087 2.249.073 4.498.201 6.74.386 2.96.244 3.907 1.306 4.004 4.288.091 2.795.179 5.591.305 8.385.041.908.159 1.817.305 2.716.291 1.795.735 3.573.912 5.378.198 2.021-.221 2.571-2.098 3.313-3.916 1.549-8.071 1.736-12.195 1.943-1.932.097-2.902-.861-3.297-2.752-.197-.945-.192-1.93-.305-2.895-.106-.902-.113-1.847-.415-2.683-.226-.627-.744-1.289-1.314-1.624-1.762-1.035-4.423.056-4.24 2.457.342 4.494 1.278 8.893 2.244 13.277.348 1.579 1.497 1.989 3.134 1.552 1.113-.297 2.212-.652 3.336-.893a643.778 643.778 0 019.645-1.987c1.131-.225 2.275-.442 3.422-.521 2.331-.161 3.524.713 4.17 2.924.324 1.109.586 2.237.947 3.333 1.73 5.255 3.464 10.508 5.236 15.749 1.053 3.115.565 4.513-2.37 5.915-2.853 1.363-5.756 2.62-8.639 3.919-2.265 1.021-3.466.604-4.689-1.829-.654-1.3-1.1-2.702-1.693-4.035-.418-.94-.826-1.911-1.414-2.743-.804-1.137-2.479-1.393-3.806-.749-1.199.581-1.487 1.432-1.047 3.105.046.176.107.35.178.517 1.77 4.136 3.462 8.309 5.345 12.393 1.195 2.59 2.59 2.945 5.196 1.719.275-.129.539-.282.81-.42 4.06-2.081 8.119-4.164 12.182-6.239.487-.249.988-.473 1.496-.676 1.409-.564 2.664-.271 3.635.864.708.827 1.295 1.761 1.91 2.664 3.423 5.028 6.835 10.063 10.257 15.092.411.603.887 1.164 1.275 1.78.664 1.054.649 3.418-.119 4.105-2.902 2.597-5.807 5.196-8.804 7.681-1.367 1.134-2.987.918-4.258-.396-.969-1.003-1.805-2.134-2.705-3.205-.821-.977-1.596-2.001-2.488-2.91-.951-.969-1.8-.996-2.954-.291-1.776 1.085-2.094 2.814-.628 4.677 2.595 3.299 5.302 6.51 7.981 9.743.385.465.846.879 1.318 1.259 1.314 1.057 2.056 1.07 3.425.03.628-.477 1.206-1.025 1.781-1.567 3.099-2.923 6.178-5.866 9.29-8.775a22.018 22.018 0 012.41-1.94c.999-.699 2.07-.649 3.079.015.505.332.966.736 1.428 1.13 4.217 3.589 8.43 7.182 12.643 10.775.556.474 1.133.926 1.653 1.437 1.742 1.713 1.929 2.603.614 4.642-1.846 2.862-3.828 5.636-5.762 8.44-.206.299-.464.565-.719.825-1.372 1.402-2.192 1.549-3.86.528-1.035-.633-1.957-1.448-2.981-2.101-.812-.518-1.661-1.04-2.567-1.334-1.214-.394-2.492.222-3.139 1.289-.601.99-.508 1.927.46 2.986a14.45 14.45 0 002.174 1.938 234.153 234.153 0 006.574 4.614c2.676 1.807 3.593 1.656 5.374-.984 1.497-2.218 2.861-4.525 4.309-6.777 1.546-2.405 3.06-4.834 4.705-7.171 1.331-1.892 1.791-1.944 3.798-.948a4198.465 4198.465 0 0115.023 7.48c3.112 1.558 3.527 2.58 2.301 5.799a228.6 228.6 0 01-3.115 7.792c-.533 1.278-1.247 2.48-2.043 4.025zm558.815-96.435l-13.251-27.749h-5.194v27.841h-26.306c-.58-2.201-.774-76.705-.193-81.211.821-.064 1.695-.191 2.568-.192 10.529-.013 21.059-.039 31.588.005 6.115.026 12.114.895 17.849 3.099 14.535 5.585 20.65 21.636 13.591 35.578-1.827 3.609-4.499 6.458-7.87 8.667-.841.551-1.699 1.078-2.877 1.823l18.241 31.786c-2.238.771-23.106 1.014-28.146.353zm-18.299-47.975c2.751.638 8.128.611 10.316-.013 3.077-.877 4.684-3.108 4.721-6.553.038-3.462-1.467-5.807-4.526-6.687-3.426-.987-6.914-.693-10.512-.421l.001 13.674zm-91.692 35.939l-3.141 12.161h-28.217l25.365-81.246h35.247l25.232 80.791c-2.29.743-24.209.928-28.121.265l-3.22-11.971h-23.145zm17.921-20.731l-5.989-23.196-.623.033-5.937 23.163h12.549zm279.336 32.886h-28.198l-3.285-12.135h-23.073l-3.243 12.125h-27.611c.013-2.23 23.208-77.325 25.115-81.328h34.896l25.399 81.338zm-37.036-32.901c-.399-4.53-5.014-21.359-6.358-22.918-1.837 7.693-4.113 15.139-5.719 22.918h12.077zm-290.902-22.187c-.47-11.37-6-19.24-16.65-23.4-5.24-2.05-10.72-2.91-16.33-2.94-10.62-.04-21.24-.01-31.87 0-.77 0-1.55.13-2.39.21v81.02c3.76.66 24.19.5 26.56-.24v-24.5c3.43 0 6.45.08 9.46-.01 5.6-.18 11.05-1.22 16.19-3.53 8.05-3.62 13.11-9.67 14.54-18.46.44-2.67.61-5.44.49-8.15zm-27.23 4.1c-.36 2.9-2.08 4.9-4.94 5.41-2.63.48-5.34.48-8.34.72v-16.12c3.05-.59 5.92-.39 8.77.31.67.16 1.34.5 1.89.91 3.08 2.25 3.03 5.5 2.62 8.77zM377.966 181.74l17.577-12.099c.955.828 1.769 1.559 2.61 2.258 4.198 3.488 8.923 5.562 14.487 5.155 1.29-.094 2.635-.362 3.814-.874 3.154-1.37 3.616-4.981.906-7.073-1.103-.852-2.406-1.522-3.716-2.014-3.312-1.243-6.664-2.382-10.028-3.482-4.441-1.452-8.672-3.282-12.638-5.816-14.079-8.995-14.404-33.769 3.3-41.882 5.357-2.455 10.986-3.417 16.814-3.443 7.176-.031 14.101 1.17 20.587 4.397 4.394 2.187 8.192 5.104 11.492 9.227l-16.565 11.542c-2.817-2.7-5.795-4.83-9.576-5.17-1.975-.178-4.028.028-5.992.369-1.554.271-2.748 1.339-3.102 2.996-.375 1.758.257 3.269 1.681 4.267 1.313.92 2.743 1.75 4.236 2.319 3.495 1.331 7.106 2.362 10.582 3.737 3.564 1.41 7.134 2.879 10.51 4.681 15.213 8.118 14.402 30.443 1.866 39.231-4.578 3.209-9.612 5.135-15.068 6.061-8.946 1.519-17.752 1.024-26.338-2.039-6.814-2.431-12.536-6.444-17.439-12.348zm369.506 13.572H720.78v-60.047c-3.768-.027-7.267-.063-10.767-.075-3.539-.013-7.078-.003-10.563-.003-.68-2.277-.825-17.248-.221-21.097h69.862v20.927c-3.44.374-6.952.114-10.445.16-3.537.046-7.075.01-11.021.01-.317 4.052-.105 7.962-.143 11.858-.039 4.05-.009 8.101-.009 12.151v23.999l-.001 12.117z"/><path d="M158.187 277.975c-4.593-.26-9.495-.202-14.298-.866-25.927-3.584-48.51-14.226-67.325-32.551-14.978-14.589-25.258-32.011-31.045-52.085-1.551-5.379-2.436-10.895-3.35-16.419-1.422-8.604-1.528-17.224-.671-25.832 2.818-28.325 13.987-52.823 34.187-73.016 16.078-16.073 35.311-26.461 57.456-31.563 4.533-1.044 9.089-1.611 13.714-1.874 2.853-.162 5.694-.517 8.546-.707 4.328-.289 8.632.113 12.935.543 3.087.308 6.206.381 9.265.857 6.804 1.059 13.426 2.902 19.919 5.182 35.765 12.555 63.64 42.362 73.855 78.86a127.452 127.452 0 013.93 20.206c.565 5.06.601 10.217.426 15.315-.842 24.402-8.403 46.563-22.947 66.189-15.654 21.126-36.165 35.456-61.392 43.001-6.312 1.888-12.765 3.124-19.264 3.989-4.506.601-9.101.529-13.941.771zm.235-6.31c3.723-.096 7.616-.186 11.507-.303a13.197 13.197 0 002.173-.239c3.872-.774 7.759-1.488 11.602-2.387a109.469 109.469 0 0030.556-12.197c9.29-5.443 17.663-12.036 25.011-19.936 4.782-5.141 9.109-10.619 12.859-16.548 5.788-9.15 10.255-18.897 13.14-29.35.194-.701.4-1.4.577-2.105.651-2.585 1.325-5.166 1.919-7.764.229-1.002.203-2.061.406-3.071a78.812 78.812 0 001.491-13.013c.179-5.6.049-11.188-.617-16.749-.332-2.773-.752-5.547-1.356-8.272a151.555 151.555 0 00-2.69-10.38c-7.956-26.768-23.809-47.644-47.172-62.834-9.864-6.413-20.601-10.9-31.976-13.872-.936-.245-1.867-.514-2.812-.72-1.955-.426-3.902-.935-5.88-1.198-3.976-.528-7.974-.894-11.958-1.364-3.694-.435-7.381-.707-11.1-.241-4.523.567-9.068.971-13.583 1.588-2.821.385-5.633.92-8.398 1.598-2.463.604-4.838 1.555-7.281 2.253-8.248 2.359-15.93 5.991-23.261 10.377-9.728 5.819-18.381 12.949-25.924 21.441-13.574 15.283-22.205 33.002-26.313 52.97-.354 1.719-.303 3.525-.699 5.231-1.922 8.286-1.774 16.652-1.143 25.047.301 4.001 1.774 7.836 1.683 11.894-.005.237.081.479.145.714 1.151 4.153 2.137 8.361 3.489 12.448 6.238 18.864 16.57 35.084 31.416 48.39 8.868 7.948 18.684 14.387 29.579 19.189 7.993 3.523 16.3 6.026 24.875 7.653 2.685.51 5.365 1.176 8.077 1.392 3.814.304 7.657.253 11.658.358z"/><path d="M149.566 90.849c3.161.126 6.323.239 9.484.391.536.026 1.062.221 1.595.329 1.215.246 1.918-.173 2.186-1.296.244-1.022-.259-2.021-1.28-2.297-.817-.22-1.673-.323-2.519-.402-12.184-1.149-24.299-.566-36.376 1.345-9.196 1.455-18.303 3.336-27.372 5.42-.532.122-1.074.215-1.616.27-1.185.12-2.57-1.458-1.659-2.828.402-.605.855-1.181 1.325-1.735 3.345-3.943 6.65-7.922 10.073-11.796 1.724-1.951 3.848-3.275 6.613-3.398 3.982-.177 7.969-.386 11.934-.776 8.57-.843 17.153-.603 25.717-.218 6.311.284 12.629.904 18.883 1.798 3.638.52 7.185 1.787 10.714 2.906 1.169.371 2.242 1.221 3.2 2.039 1.921 1.64 4.023 2.616 6.59 2.745 2.181.11 4.35.485 6.52.78 4.635.631 8.381 3.065 11.893 5.944.744.609 1.419 1.304 2.104 1.982 2.801 2.771 6.199 4.411 9.956 5.481 2.969.845 5.925 1.78 8.799 2.9 3.224 1.256 6.347 2.771 9.518 4.163 1.113.489 2.258.91 3.355 1.432 3.173 1.507 4.05 6 1.412 8.255-1.678 1.434-2.148 3.116-2.305 5.091-.067.848-.11 1.705-.275 2.536-.282 1.418-.842 1.944-2.253 1.79-1.802-.197-3.617-.488-5.36-.975-4.217-1.178-8.408-2.416-12.752-3.082-8.551-1.311-16.991-.689-25.346 1.361-6.836 1.677-13.399 4.078-19.222 8.128-9.239 6.426-15.992 14.839-20.072 25.38-1.339 3.459-2.874 6.841-3.672 10.486-2.524 11.531-2.16 22.968 2.419 33.875 5.684 13.541 15.563 22.744 29.995 26.604 1.575.421 3.192.687 4.789 1.026 1.511.321 3.301 2.47 3.583 4.25a31.242 31.242 0 002.692 8.623c.484 1.01 1.416 1.798 2.083 2.731.663.927 1.39 1.848 1.834 2.88.485 1.126.107 1.939-1.045 2.302-1.074.339-2.276.649-3.361.507-5.487-.713-10.957-1.563-16.426-2.406-.831-.128-1.634-.454-2.439-.722-2.063-.687-2.932-2.225-3.036-4.305-.106-2.114-.193-4.229-.354-6.339a9.15 9.15 0 00-.492-2.299c-.281-.805-.917-1.293-1.816-1.264-.97.032-1.91.803-2.122 1.714-.068.293-.119.611-.081.905.285 2.221.511 4.455.926 6.652.282 1.493-.146 2.717-1.493 3.021-3.035.686-5.783.053-8.096-2.076-1.163-1.07-1.789-2.416-1.791-4.049-.005-4.472.607-8.844 2.019-13.093.453-1.365-.171-2.767-1.511-3.177-.299-.091-.778-.044-.997.144-.54.464-1.077.99-1.429 1.599a5.593 5.593 0 00-.701 2.06c-.418 3.432-1.402 6.795-1.186 10.308.051.827-.139 1.7-.373 2.507-.493 1.7-1.788 2.444-3.5 2.044-1.123-.262-2.219-.641-3.331-.953-1.567-.439-2.519-1.66-3.492-2.815-.271-.322-.369-.924-.311-1.367.405-3.131.61-6.321 1.384-9.364.986-3.878 2.439-7.637 3.72-11.438.13-.386.475-.695.689-1.059.537-.915.219-2.329-.644-2.936-.81-.569-1.826-.377-2.341.508-.366.628-.641 1.311-.942 1.975-2.653 5.851-4.741 11.854-5.104 18.348-.046.821-.329 1.662-.656 2.428-.639 1.493-2.205 2.038-3.632 1.319-1.136-.572-2.334-1.08-3.344-1.832-1.345-1.002-2.331-2.27-2.073-4.175 1.054-7.769 2.89-15.285 6.806-22.18 1.741-3.065 3.372-6.192 5.038-9.298.618-1.152.458-2.196-.378-2.782-.897-.63-2.168-.315-2.984.851-2.555 3.652-4.639 7.565-6.417 11.65-2.319 5.328-3.701 10.933-4.95 16.578a4.64 4.64 0 00-.117 1.269c.103 1.665-.812 2.686-2.175 3.348-1.165.565-2.266.088-3.276-.519-.938-.563-1.775-1.319-2.755-1.782-2.069-.977-2.733-3.741-2.241-5.481 2.07-7.326 4.352-14.565 8.176-21.218 2.732-4.754 5.49-9.474 9.397-13.414 1.15-1.159 2.101-2.525 3.081-3.842.996-1.338 1.03-2.237.233-2.904-.967-.811-1.977-.662-3.181.519-4.464 4.377-8.127 9.371-11.276 14.75-3.833 6.547-6.601 13.544-8.754 20.804-.289.975-.744 1.924-1.269 2.798-.671 1.119-1.869 1.541-2.998.908-1.741-.976-3.497-2.008-5-3.303-1.686-1.452-1.769-3.536-1.215-5.572a78.945 78.945 0 015.335-14.149c5.669-11.53 13.436-21.405 23.402-29.527 1.125-.916 2.366-1.702 3.611-2.453.738-.445 1.271-.903 1.213-1.838-.058-.949-.607-1.635-1.351-2.034-.37-.198-1.142-.093-1.491.182-4.396 3.454-8.975 6.688-12.803 10.824-7.299 7.888-13.313 16.6-17.319 26.624-.854 2.138-1.669 4.292-2.522 6.431-.224.563-.506 1.104-.789 1.641-1.105 2.103-3.726 2.307-5.062.769-1.819-2.095-3.429-4.404-4.884-6.771-.816-1.327-.569-2.963.006-4.429.287-.731.641-1.453 1.075-2.105 4.314-6.482 8.534-13.032 13.012-19.399 5.835-8.296 13.251-15.058 21.4-21.022 1.857-1.36 3.936-2.417 5.915-3.61 2.136-1.288 4.305-2.524 6.401-3.874 1.312-.845 1.444-2.275.335-3.215-.342-.29-1.062-.466-1.454-.309a58.271 58.271 0 00-4.939 2.256c-6.942 3.555-13.003 8.322-18.607 13.696-6.04 5.792-11.346 12.217-16.129 19.069-2.821 4.04-5.533 8.158-8.223 12.287-.815 1.251-1.892 1.837-3.298 1.957-.94.08-1.591-.266-2.007-1.204-.861-1.943-1.818-3.845-2.752-5.755-.865-1.769-.904-3.602.04-5.272 7.167-12.693 15.349-24.57 27.173-33.5 8.439-6.374 17.663-11.182 27.83-14.129 1.619-.469 3.305-.708 4.95-1.095.454-.107.928-.288 1.296-.564 1.006-.754 1.231-1.471.848-2.341-.383-.87-1.123-1.255-2.268-1.087-.841.124-1.671.324-2.5.515-16.672 3.837-30.867 11.91-42.4 24.628-4.875 5.376-9.466 10.958-13.502 16.993-.362.541-.758 1.176-1.299 1.455-1.41.728-2.843.015-3.147-1.594-.44-2.326-.772-4.676-1.053-7.028-.202-1.689-.229-3.399-.361-5.097-.142-1.836.317-3.437 1.634-4.788 9.47-9.713 19.644-18.565 31.433-25.389a77.155 77.155 0 0114.618-6.544c5.624-1.847 11.407-2.889 17.189-3.946 2.13-.389 4.359-.24 6.543-.322.363-.014.728.05 1.093.07.922.052 1.508-.503 1.84-1.233.316-.695.231-1.463-.426-1.992-.413-.333-.866-.676-1.359-.84-5.884-1.961-10.96-5.235-15.305-9.606-1.312-1.32-2.278-2.986-3.397-4.497-.108-.145-.185-.315-.263-.48-.87-1.841-.318-2.957 1.702-3.173 3.809-.407 7.621-.819 11.443-1.052 2.666-.163 5.35-.031 8.026-.031a.978.978 0 01-.004-.093zm38.464 2.676c.225.618.371 1.281.691 1.845.903 1.589 2.237 2.671 3.999 3.242 2.642.857 5.49.989 7.998 2.367.416.229 1.386-.039 1.785-.413.536-.502.909-1.277.444-2.149-.335-.628-.583-1.309-.808-1.987-.562-1.698-1.585-2.986-3.219-3.755-.713-.335-1.412-.719-2.155-.965-2.502-.827-5.001-.724-7.481.145-.781.275-1.222.761-1.254 1.67z"/><path d="M205.39 202.242c-1.903-3.201-.617-6.078 2.967-6.674 1.546-.257 3.125-.367 4.694-.424 1.425-.052 2.694.945 2.978 2.237.323 1.468-.03 2.504-1.361 3.229a10.52 10.52 0 00-2.326 1.743c-1.299 1.283-1.144 2.803.129 4.114 3.694 3.805 5.337 8.272 3.789 13.508-1.617 5.47-7.386 8.313-12.892 6.84-4.514-1.207-9.148-1.955-13.702-3.022-3.369-.789-6.737-1.632-10.031-2.682-5.589-1.782-10.074-5.348-14.174-9.394-6.85-6.76-11.386-14.806-13.134-24.337-.153-.837-.322-1.68-.364-2.526-.377-7.657-.985-15.356 1.763-22.749 2.256-6.07 5.317-11.761 9.057-17.035 1.462-2.061 3.379-3.833 5.246-5.567 8.567-7.959 18.746-12.729 30.157-14.98 1.668-.329 3.371-.481 5.044-.791 2.026-.375 3.566.367 4.812 1.905.268.331.515.68.799.996.884.986 1.569.953 2.344-.11.214-.294.361-.639.589-.92.998-1.227 2.099-1.51 3.53-.937 1.369.549 2.023 1.45 1.848 2.989-.218 1.921-.645 3.817-.918 5.733-.091.641-.11 1.34.051 1.957.272 1.046 1.795 1.446 2.644.609 1.291-1.274 2.528-2.634 3.591-4.099 1.031-1.421 1.797-3.032 2.716-4.538.377-.618.844-1.183 1.276-1.766.906-1.222 2.141-1.235 3.439-.879 1.176.322 1.811 1.023 1.713 2.245-.111 1.378-.28 2.816-.787 4.083-1.017 2.541-1.294 5.043-1.128 7.808.616 10.261.969 20.537 1.373 30.81.129 3.282-.013 6.578.202 9.852.179 2.725-2.548 4.91-4.777 4.512-1.372-.245-2.785-.256-4.179-.378-.973-.085-1.794.243-2.49.905-.892.848-.967 1.361-.419 2.728.466 1.163.153 2.671-.735 3.534-.942.916-2.441 1.313-3.535.698-2.423-1.362-5.026-1.299-7.618-1.025-3.529.373-6.652 1.865-9.488 3.957-2.163 1.595-3.36 3.823-3.915 6.396-.705 3.269 1.373 5.31 4.064 6.186 2.744.893 5.504-.444 6.576-3.094.203-.507.365-1.029.582-1.647zm20.2-36.545l.136-.007c-.206-4.176-.412-8.353-.62-12.529a6.239 6.239 0 00-.052-.545c-.186-1.314-.831-2.049-1.992-2.278-1.257-.247-2.371.174-2.941 1.3-1.109 2.191-2.63 4.178-2.519 6.905.075 1.832-1.588 2.868-3.424 2.6-1.382-.201-2.296-1.009-2.993-2.159-.922-1.525-2.214-2.427-4-2.899-1.357-.359-2.791-.469-4.095-1.236-1.18-.694-1.569-1.528-1.647-2.777-.078-1.271.425-2.169 1.529-2.639 1.947-.83 3.884-1.815 5.929-2.254 2.841-.61 5.772-.817 8.674-1.114 1.649-.169 3.244-.481 4.731-1.212 1.289-.634 1.959-1.798 2.169-3.137.209-1.326-.891-2.345-2.236-2.191-.958.109-1.909.305-2.851.516-1.766.395-3.504.967-5.289 1.218-3.238.455-6.494.835-9.755 1.046-2.81.182-4.581 1.675-5.913 3.952-5.08 8.684-11.624 15.863-20.799 20.379-4.993 2.458-5.805 10.099-2.381 13.123 1.226 1.082 2.394 2.28 3.362 3.592 1.503 2.04 2.574 4.162 1.299 6.89-1.296 2.775-.384 5.449 2.096 7.667.707.633 1.438.812 2.336.691 2.59-.347 3.937-2.05 4.594-4.359.575-2.02 1.526-3.788 2.722-5.506 3.371-4.844 7.855-8.087 13.519-9.655 2.944-.815 5.905-1.084 9.009-.581 2.733.443 5.568.412 8.351.334 2.269-.064 3.352-1.391 3.446-3.669.03-.728.013-1.461-.021-2.189-.116-2.426-.248-4.851-.374-7.277zM74.531 138.416c.529-3.727 1.013-7.461 1.607-11.177.269-1.682 1.171-2.965 2.71-3.896 10.074-6.096 20.559-11.265 31.749-15.046 5.388-1.821 10.863-3.1 16.429-4.099 2.255-.405 4.199.2 5.753 1.969.387.44.904.826 1.439 1.061.893.392 1.469.988 1.271 1.946-.199.958-.639 1.834-1.783 2.085-2.017.443-4.038.883-6.034 1.411-8.237 2.178-15.921 5.626-23.122 10.165-8.509 5.363-16.55 11.358-24.162 17.929-.415.358-.819.729-1.245 1.072-.896.722-1.821 1.175-2.999.543-1.093-.587-1.629-1.391-1.43-2.656.065-.416.01-.85.01-1.276l-.193-.031zm45.527-45.024c.425 0 .851-.005 1.276.001.937.014 1.561.429 2.002 1.299.405.799.921 1.581 1.543 2.22.88.905 1.406 1.865.966 3.104-.419 1.178-1.319 1.784-2.56 2.059-3.616.802-7.258 1.531-10.809 2.567-7.723 2.255-15.048 5.541-22.266 9.059-1.742.849-3.421 1.83-5.129 2.75-.214.115-.423.24-.641.347-1.42.696-2.508.603-3.52-.362-1.004-.957-1.075-2.214-.604-3.353 1.184-2.861 2.477-5.679 3.824-8.468.46-.952.643-2.039 1.614-2.793.831-.646 1.618-1.229 2.65-1.481 7.374-1.804 14.73-3.684 22.123-5.406 3.128-.729 6.331-1.134 9.5-1.686.009.048.02.096.031.143z"/></g></svg>