<svg width="141" height="168" fill="none" xmlns="http://www.w3.org/2000/svg"><mask id="a" maskUnits="userSpaceOnUse" x="0" y="0" width="129" height="159"><path d="M129 94.5a64.5 64.5 0 01-129 0C0 58.88 0-9 59 2c59-6 70 56.88 70 92.5z" fill="#FFF"/></mask><g mask="url(#a)"><path d="M112.95 123c-14.92-1.6-68.9-1.8-99.77 0-8.89-20.82-1.61-60.39 3.49-75.72C22.32 31.5 44.32 4.24 87.05 21.56c14.24 7.3 17.4 21.3 20.52 29.42 1.92 4.95 13.96 41 5.38 72.02z" fill="#DF8888"/><path d="M37.14 134.45c10.34-.92 12.9-17.86 12.9-26.12 1.62-11.26 17.4-7.37 25.1-2.68.47 8.7-.43 28.8 15.08 28.8 15.52 0 25.77 3.83 25.77 8.04 0 55.16-89.6 18.98-104.65 3.35-2.95-11.39 14.15-10.34 25.8-11.39z" fill="#F4BA8F"/><path d="M63 115.2c-23.18 0-33.63-38.46-34.5-62C42.5 37 73.57 47.06 78 37c5.06-11.5-.04 8.17 13.16 16.2 1.14.7 2.41 1.3 3.84 1.8.3 21.89-16.18 60.2-32 60.2z" fill="#FFC89F"/></g><circle cx="114" cy="139" r="25" fill="#001A8C"/><path d="M93 123c4.8-5.51 11.9-9 19.81-9A26.1 26.1 0 01139 140a26.1 26.1 0 01-26.19 26A26.2 26.2 0 0193 157" stroke="#fff" stroke-width="3" stroke-linecap="round"/><path d="M92 114v9h10" stroke="#fff" stroke-width="3"/><path d="M110 132v10h11" stroke="#fff" stroke-width="3" stroke-linecap="round"/><path d="M54.86 94.54c1.91 3 9.02 8.2 14.77 0" stroke="#DF8888" stroke-width="3"/><path d="M37 71.41c1.91-3 9.03-8.2 14.77 0m19.23 0c1.91-3 9.03-8.2 14.77 0" stroke="#000" stroke-width="3"/><ellipse cx="76.5" cy="80.5" rx="6.5" ry="2.5" fill="#FFB6B6"/><ellipse cx="47.5" cy="80.5" rx="6.5" ry="2.5" fill="#FFB6B6"/></svg>