<svg width="135" height="156" fill="none" xmlns="http://www.w3.org/2000/svg"><mask id="a" maskUnits="userSpaceOnUse" x="0" y="0" width="133" height="156"><path d="M131 91A65 65 0 011 91C1 55.1-7 0 66 0c84.5 2.5 65 55.1 65 91z" fill="#FFF"/></mask><g mask="url(#a)"><path d="M136.32 154c-14.99-1.56-72.3-1.77-103.32 0-14.5-8-5.22-51.5-12.5-77.5-7-25-1.5-70 40-74C100-1.3 111 30.29 115.76 42.32c1.92 4.84 29.18 81.35 20.56 111.68z" fill="#001A8C"/><path d="M40.15 125.45c10.34-.92 12.9-17.86 12.9-26.12 1.62-11.26 17.4-7.37 25.1-2.68.47 8.7-.43 28.8 15.08 28.8 15.52 0 25.77 3.83 25.77 8.04 0 55.16-89.6 18.98-104.66 3.35-2.94-11.39 14.16-10.34 25.81-11.39z" fill="#F4BA8F"/><path d="M99 43c.3 21.89-17.17 60.5-33 60.5-20.1 0-30.63-28.96-33.64-52 0-13.6 8.1-20.2 12.14-21.79C59.12 20.06 80.26 16.35 99 43z" fill="#FFC89F"/><path d="M56.77 107.37c-10.43-1.1-22.2-17.87-22.2-32.37m26.25-12.81c-5.13 2.89-9.88 5.94-20.17-.66" stroke="#fff" stroke-width="2" stroke-linecap="round" stroke-dasharray="1 4"/></g><path d="M77 62.5C63.4 60.9 50.67 31.33 47 19l39-6c12 12 35.9 42.8 21.5 51.5C81 80.5 73 50.2 73 52c0 2.5 2 6.5 4 10.5zm35.5 78.5c-13.6-1.6-17.83-33.67-21.5-46l39-6c5.5 17 2 55 4 61 2.5 7.52-13.6-4.87-21.64-11.39.1.68.14 1.47.14 2.39z" fill="#001A8C"/><path d="M57.29 80.93c1.93 3.03 9.1 8.27 14.88 0" stroke="#EF7E7E" stroke-width="3"/><path d="M42 59.41c1.91-3 9.03-8.2 14.77 0" stroke="#000" stroke-width="3"/></svg>