<svg width="158" height="176" fill="none" xmlns="http://www.w3.org/2000/svg"><mask id="a" maskUnits="userSpaceOnUse" x="0" y="0" width="154" height="164"><path d="M153.51 97.6a65.76 65.76 0 01-65.75 65.75c-36.32 0-75.26-17.54-75.26-53.85-43-60.5 36.9-136.76 78-98.5 58 54 63.01 50.28 63.01 86.6z" fill="#FFF"/></mask><g mask="url(#a)"><path d="M105.78 161.28C75.4 181.47 26.1 180.7 32.5 145 34.23 120.5-9 107 11 63c0-29.5 8-43.5 41.5-47.5 38.5-13 42.6 10.34 49.5 18 9 10 50.32 46.73 43.5 85.5-6.43 36.51-42.76 46.49-39.72 42.28z" fill="#DF8888"/><path d="M60.39 148.3c9.04-4.93 11.4-23.07 10.97-33.5.95-14.27 16.26-10 23.87-4.38.92 10.97 8.31 34.39 13.19 35.88 4.87 1.49 29.67 6.1 27.86 9-34.13 54.8-84.76 27.54-99.99 8.41-9.27-8.08 14.02-9.9 24.1-15.4z" fill="#F4BA8F"/><path d="M90.5 115.5c-17.42 10.72-53.7-25.05-63-46.5 35.04-16.3 44.63-37.18 50-33.5 8.34 5.7 8.88 8.24 16.95 14.6 9.55 31.9 13.47 54.68-3.95 65.4zm21.66 10.47c-2.03 2.03-8.81 13.56-10.17 35.25l-1.35 19.66h16.26V158.5c13.02-16.81 14.24-23.05 14.24-28.47-8.13-29.15-10.17-30.5-14.24-23.05-4.06 7.46 6.1 23.05-4.74 33.9 0 0 3.83-18.75 0-14.92z" fill="#FFC89F"/></g><ellipse cx="84.71" cy="70.95" rx="6.5" ry="2.5" transform="rotate(-36.15 84.7 70.95)" fill="#FFB6B6"/><ellipse cx="61.29" cy="88.05" rx="6.5" ry="2.5" transform="rotate(-36.15 61.3 88.05)" fill="#FFB6B6"/><path d="M46.59 82.35c3.22 1.52 12 2.12 12.49-7.88" stroke="#000" stroke-width="3"/><path d="M75 97.88C78.22 99.4 87.01 100 87.5 90" stroke="#EF7E7E" stroke-width="3"/><path d="M72.34 65.2c3.22 1.53 12.01 2.13 12.5-7.87" stroke="#000" stroke-width="3"/><path d="M156.16 34.07c-18.42-14.74-39.3-5.68-47.45 0v23.57c0 15.49 15.66 26.98 23.5 30.8 18.6-9.34 23.95-24.97 23.95-30.8V34.07z" fill="#001A8C" stroke="#fff" stroke-width="3"/><path d="M122.27 57.9l7.23 7.48 13.1-13.55" stroke="#fff" stroke-width="3"/><path d="M32 138.5l11.86 3.5c-3.92 5.47-10.29 17.66-8.25 23 .3 1.33 2.59 5.4 7.39 5 4.8-.4 5-5 3-7-1.81-1.81-5.5.5-6 3.5-.4-.8-.32-2.23-.22-2.84a4.7 4.7 0 011.34-2.35 4.81 4.81 0 013.38-1.15 5.45 5.45 0 015.43 4.34c1.97 5.95-2.83 13.86-13.43 9.5-9.72-4-7.5-15.5-5-27.5.27-2.5.73-5.5.5-8z" fill="#DF8888"/></svg>