<svg width="138" height="137" fill="none" xmlns="http://www.w3.org/2000/svg"><circle cx="68.76" cy="68.5" r="68.5" fill="#F1F1F1"/><mask id="a" maskUnits="userSpaceOnUse" x="0" y="0" width="138" height="137"><circle cx="68.76" cy="68.5" r="68.5" fill="#FFF"/></mask><g mask="url(#a)"><path d="M-1.34 204.87l-26.4-12.34c3.2-44.4 9.2-72.38 14.98-88.98C-8 86.35 11.2 79.64 20.2 78.44c27.84-8.81 30.24-32.85 27.1-40.12C41.1 32.7 25.55 5.3 28.75-3.5c3.2-8.8 27.34-12.67 37-20.5h33.5c9.92 6.9 12.7 37.63-9.61 65.35-3.16 16.1 4.11 25.07 7.06 28.6 38.87 11.28 46.85 10.33 50.59 17.64 21.44 41.97 21.19 103.76 20.9 134.04h-29.13v-29.1l-10.6-29.99c-3.23 5.88-9.7 21.52-9.7 37.04v37.92H17.27c-1.47-5.88-3.53-20.64 0-32.63 3.53-12-4.4-33.22-8.82-42.33l-9.8 42.33z" fill="#FFBD86"/><circle cx="68.76" cy="63.5" r="5.2" fill="#DB1616" fill-opacity=".8"/><circle cx="68.76" cy="63.5" r="11.82" fill="#FF4040" fill-opacity=".6"/><circle cx="68.76" cy="63.5" r="17.5" fill="#FF4040" fill-opacity=".6"/></g><path d="M11.76 6.5l122 122" stroke="#FF3929"/></svg>