<svg width="138" height="137" fill="none" xmlns="http://www.w3.org/2000/svg"><path d="M68.76 137a68.5 68.5 0 100-137 68.5 68.5 0 000 137z" fill="#B6EDFF"/><mask id="a" maskUnits="userSpaceOnUse" x="0" y="0" width="138" height="137"><path d="M68.76 137a68.5 68.5 0 100-137 68.5 68.5 0 000 137z" fill="#FFF"/></mask><g mask="url(#a)"><path d="M86.73 14.3C49.54 10.85 38 38.36 36.89 52.55 32.02 60.45 23 76.6 25.8 77.89c1.07.46 4.79 1.1 11.1 0 .37.18.89 4.45 0 20.08 0 8.13 18.21 10.84 24.92 8.13V141h57.98l-8.15-9.56c-6.7-8.45-17.25-28.98-5.75-43.51 14.38-18.17 27.32-69.33-19.16-73.63z" fill="#FFBD86"/><path d="M101 44.03c0-8.4-8.5-13.5-13-13-4.5-.5-13 4.6-13 13 0 3 1.17 4.48 3 7.04 1.72 2.36 2.5 3.55 3 5l14-.04c.5-1.45 1.28-2.6 3-4.96 1.83-2.56 3-4.04 3-7.04z" fill="#FFDB4B"/><path d="M81.5 37.03c0-3.2 4.33-4 6.5-4s6.5.8 6.5 4-4.33 4-6.5 4-6.5-.8-6.5-4z" fill="#FFE993"/><path d="M95 56.03c1 0 1.5 1 1.5 1.5s-.5 1.5-1.5 1.5H81c-1 0-1.5-1-1.5-1.5s.5-1.5 1.5-1.5h14zm-1.5 4.47c1 0 1.5 1 1.5 1.5s-.5 1.5-1.5 1.5h-11c-1.05 0-1.5-1-1.5-1.5s.5-1.5 1.5-1.5h11zm-5.5 7c-3 0-4.5-1.5-5-2.5h10c-.5 1-2 2.5-5 2.5z" fill="#888"/></g></svg>