<svg width="138" height="137" fill="none" xmlns="http://www.w3.org/2000/svg"><circle cx="68.76" cy="68.5" r="68.5" fill="#FFEDBF"/><mask id="a" maskUnits="userSpaceOnUse" x="0" y="0" width="138" height="137"><circle cx="68.76" cy="68.5" r="68.5" fill="#FFF"/></mask><g mask="url(#a)"><path d="M59.26 41l29-38.5 5-9.5 33.5 25-43.5 39.5-24-16.5z" fill="#FFBD86"/><path d="M40.26 60.5l18-17.5 24 17.5 9 20c16.4 2 22.17 12.17 23 17h-37l-37-37z" fill="#FC9F5E"/><rect x="76.26" y="68.42" width="10" height="3" rx="1.5" transform="rotate(-26.22 76.26 68.42)" fill="#fff"/><rect x="79.41" y="73.47" width="10" height="3" rx="1.5" transform="rotate(-26.22 79.41 73.47)" fill="#fff"/><rect x="82.41" y="78.47" width="10" height="3" rx="1.5" transform="rotate(-26.22 82.41 78.47)" fill="#fff"/><rect x="59.37" y="38.77" width="31.37" height="4" rx="2" transform="rotate(36.65 59.37 38.77)" fill="#fff"/><path d="M75.34 94.12L41.3 60.52a2.34 2.34 0 00-3.34 3.26l32.85 34.6a10 10 0 007.26 3.12H114a2.25 2.25 0 000-4.5H82.37a10 10 0 01-7.03-2.88z" fill="#fff"/><rect x="21.26" y="75" width="17" height="3" rx="1.5" fill="#fff" fill-opacity=".6"/><rect x="29.26" y="81" width="12" height="3" rx="1.5" fill="#fff" fill-opacity=".6"/><rect x="40.26" y="92" width="12" height="3" rx="1.5" fill="#fff" fill-opacity=".6"/><rect x="31.26" y="86" width="19" height="3" rx="1.5" fill="#fff" fill-opacity=".6"/></g></svg>