<svg width="143" height="142" fill="none" xmlns="http://www.w3.org/2000/svg"><path d="M88.61 50.1c-.3.34-.72.81-1.23 1.43l-1.63 2.05c-.57.74-1.15 1.53-1.74 2.35a36.7 36.7 0 00-1.51 2.35h6.29V60h-8.74v-1.36c.36-.65.79-1.36 1.3-2.14a59.46 59.46 0 013.26-4.49c.54-.69 1.01-1.26 1.4-1.73h-5.65v-1.72h8.25v1.54zm23.17-15.49a47.1 47.1 0 00-3.17 3.75c-.64.8-1.3 1.63-1.95 2.52-.64.86-1.22 1.7-1.74 2.5h7.02V46h-10.82v-1.95c.38-.7.86-1.45 1.43-2.26a106.96 106.96 0 015.17-6.76h-6.26V32.4h10.32v2.21zm29.36-15.24l-1.57 1.73a189.14 189.14 0 00-4.35 5.15 60.3 60.3 0 00-2.05 2.78h8.13V33h-13.92v-2.82c.45-.76.98-1.59 1.6-2.46.64-.9 1.3-1.8 1.99-2.69.7-.9 1.4-1.76 2.08-2.59.68-.85 1.3-1.62 1.88-2.3h-7.16v-3.97h13.37v3.2z" fill="#FC9F5E"/><path d="M71.26 142a71 71 0 0071-71c-6.18 8.74-41.55 38.15-65.75 34.7-48.01-6.86-48.3-49.36-37.12-70.6 0 0 7.26-19.77 31.87-35.1a71 71 0 000 142z" fill="#FFEDBF"/></svg>