<svg width="137" height="137" fill="none" xmlns="http://www.w3.org/2000/svg"><circle cx="68.5" cy="68.5" r="68.5" fill="#B6EDFF"/><mask id="a" maskUnits="userSpaceOnUse" x="0" y="0" width="137" height="137"><circle cx="68.5" cy="68.5" r="68.5" fill="#F1F1F1"/></mask><g mask="url(#a)"><path d="M59 41L88 2.5 93-7l33.5 25L83 57.5 59 41z" fill="#FFBD86"/><path d="M40 60.5L58 43l24 17.5 9 20c16.4 2 22.17 12.17 23 17H77l-37-37z" fill="#91D8F0"/><rect x="76" y="68.42" width="10" height="3" rx="1.5" transform="rotate(-26.22 76 68.42)" fill="#fff"/><rect x="79.15" y="73.47" width="10" height="3" rx="1.5" transform="rotate(-26.22 79.15 73.47)" fill="#fff"/><rect x="82.15" y="78.47" width="10" height="3" rx="1.5" transform="rotate(-26.22 82.15 78.47)" fill="#fff"/><rect x="59.1" y="38.77" width="31.37" height="4" rx="2" transform="rotate(36.65 59.1 38.77)" fill="#fff"/><path d="M75.08 94.12l-34.05-33.6a2.34 2.34 0 00-3.34 3.26l32.85 34.6a10 10 0 007.26 3.12h35.95a2.25 2.25 0 100-4.5H82.1a10 10 0 01-7.02-2.88z" fill="#fff"/><rect x="21" y="75" width="17" height="3" rx="1.5" fill="#fff" fill-opacity=".6"/><rect x="29" y="81" width="12" height="3" rx="1.5" fill="#fff" fill-opacity=".6"/><rect x="40" y="92" width="12" height="3" rx="1.5" fill="#fff" fill-opacity=".6"/><rect x="31" y="86" width="19" height="3" rx="1.5" fill="#fff" fill-opacity=".6"/></g></svg>