<svg width="137" height="137" fill="none" xmlns="http://www.w3.org/2000/svg"><circle cx="68.5" cy="68.5" r="68.5" fill="#F1F1F1"/><mask id="a" maskUnits="userSpaceOnUse" x="0" y="0" width="137" height="137"><circle cx="68.5" cy="68.5" r="68.5" fill="#F1F1F1"/></mask><g mask="url(#a)"><path d="M19 120.5l-19-8.9c2.3-32 6.62-52.14 10.78-64.1 3.43-12.4 17.24-17.23 23.72-18.1C54.54 23.07 56.27 5.75 54 .5c30.4-7.2 33-1.54 30.5 2.19-2.27 11.6 2.96 18.06 5.08 20.6C117.56 31.42 123.31 30.74 126 36c15.43 30.24 15.25 74.75 15.04 96.56h-20.96V111.6L112.45 90c-2.33 4.23-6.98 15.5-6.98 26.68V144H32.4c-1.06-4.24-2.54-14.87 0-23.5 2.54-8.65-3.17-23.94-6.35-30.5L19 120.5z" fill="#FFBD86"/><path d="M71.1 19c-15.6 7.4-41.4 29.85-19.9 60.51 21.49 30.66 22.22 51.1 19.9 57.49" stroke="#fff" stroke-width="4" stroke-linecap="round" stroke-dasharray="2 8"/></g></svg>