<svg width="120" height="147" fill="none" xmlns="http://www.w3.org/2000/svg"><mask id="a" maskUnits="userSpaceOnUse" x="0" y="0" width="120" height="147"><path d="M120 82.5c0 35.62-19.88 64.5-55.5 64.5A64.5 64.5 0 010 82.5C0 46.88 14 .5 61.5.5s58.5 46.38 58.5 82z" fill="#FFF"/></mask><g mask="url(#a)"><path d="M107.7 119c-14.99-1.71-60.32-1.94-91.34 0-8.93-22.38-5.12-64.9 0-81.38C22.05 20.65 44.15-8.64 87.08 9.97c14.31 7.84 17.48 22.9 20.63 31.62 1.92 5.33 8.62 44.06 0 77.41z" fill="#FFEFED"/><path d="M37.14 122.45c10.34-.92 12.9-17.86 12.9-26.12 1.62-11.26 17.4-7.37 25.1-2.68.47 8.7-.43 28.8 15.08 28.8 15.52 0 25.77 3.83 25.77 8.04 0 55.16-89.6 18.98-104.65 3.35-2.95-11.39 14.15-10.34 25.8-11.39z" fill="#F4BA8F"/><path d="M62.99 103.2c-23.17 0-33.62-38.46-34.5-62 14-16.2 32.5-1.2 32.5-15.2 0-3.27.95 6.85 3.5 7 7.29.42 13.73-2.63 20.5 1.5 1.15.7 8.58 8 10 8.5.3 21.89-16.17 60.2-32 60.2z" fill="#FFC89F"/></g><path d="M54.86 82.54c1.91 3 9.02 8.2 14.77 0" stroke="#DF8888" stroke-width="3"/><path d="M37 59.41c1.91-3 9.03-8.2 14.77 0m19.23 0c1.91-3 9.03-8.2 14.77 0" stroke="#000" stroke-width="3"/><path d="M57.82 68.19c-5.13 2.89-9.88 5.94-20.17-.66m48.53.3c-5.13 2.9-9.89 5.94-20.18-.66m-11.85 45.94c1.32 5.74 2.9 11.16-6.35 19.17m22.67-19.24c-1.32 5.74-2.9 11.16 6.35 19.17" stroke="#fff" stroke-width="2" stroke-linecap="round" stroke-dasharray="1 4"/></svg>