<svg width="133" height="156" fill="none" xmlns="http://www.w3.org/2000/svg"><mask id="a" maskUnits="userSpaceOnUse" x="0" y="0" width="133" height="156"><path d="M131 91A65 65 0 011 91C1 55.1-7 0 66 0c84.5 2.5 65 55.1 65 91z" fill="#FFF"/></mask><g mask="url(#a)"><path d="M96.5 94c-15-1.56-19.48-24.27-50.5-22.5-14.5-8 11.5 28.5-14 0-17.31-19.35-13-65 28.5-69 39.5-3.8 45.23 27.97 50 40 1.92 4.84-3.5 32.5-14 51.5z" fill="#FE2C78"/><path d="M40.15 125.45c10.34-.92 12.9-17.86 12.9-26.12 1.62-11.26 17.4-7.37 25.1-2.68.47 8.7-.43 28.8 15.08 28.8 15.52 0 25.77 3.83 25.77 8.04 0 55.16-89.6 18.98-104.66 3.35-2.94-11.39 14.16-10.34 25.81-11.39z" fill="#F4BA8F"/><path d="M99 43c.3 21.89-17.17 60.5-33 60.5-20.1 0-30.63-28.96-33.64-52 0-13.6 8.1-20.2 12.14-21.79C59.12 20.06 80.26 16.35 99 43z" fill="#FFC89F"/></g><path d="M77 62.5C63.4 60.9 50.67 31.33 47 19l39-6c12 12 34.4 37.3 20 46-26.5 16-33-8.8-33-7 0 2.5 2 6.5 4 10.5z" fill="#FE2C78"/><path d="M57.29 80.93c1.93 3.03 9.1 8.27 14.88 0" stroke="#EF7E7E" stroke-width="3"/><path d="M42 59.41c1.91-3 9.03-8.2 14.77 0" stroke="#000" stroke-width="3"/><ellipse cx="79.5" cy="70.5" rx="6.5" ry="2.5" fill="#FFB6B6"/><ellipse cx="50.5" cy="70.5" rx="6.5" ry="2.5" fill="#FFB6B6"/></svg>