<svg width="120" height="147" fill="none" xmlns="http://www.w3.org/2000/svg"><mask id="a" maskUnits="userSpaceOnUse" x="0" y="0" width="120" height="148"><path d="M120 82.5c0 35.62-19.88 64.5-55.5 64.5A64.5 64.5 0 010 82.5C0 46.88 14 .5 61.5.5s58.5 46.38 58.5 82z" fill="#FFF"/></mask><g mask="url(#a)"><path d="M107.7 95c-14.99-1.35-60.32-1.54-91.34 0-8.93-17.7-5.12-51.36 0-64.4C22.05 17.18 44.15-6 87.08 8.73c14.31 6.2 17.48 18.11 20.63 25.02 1.92 4.21 8.62 34.86 0 61.25z" fill="#944BAA"/><path d="M37.14 122.45c10.34-.92 12.9-17.86 12.9-26.12 1.62-11.26 17.4-7.37 25.1-2.68.47 8.7-.43 28.8 15.08 28.8 15.52 0 25.77 3.83 25.77 8.04 0 55.16-89.6 18.98-104.65 3.35-2.95-11.39 14.15-10.34 25.8-11.39z" fill="#F4BA8F"/><path d="M63 103.2c-23.18 0-33.63-38.46-34.5-62C42.5 25 61 40 61 26c0-3.27.94 6.85 3.5 7 7.28.42 13.72-2.63 20.5 1.5 1.14.7 8.57 8 10 8.5.3 21.89-16.18 60.2-32 60.2z" fill="#FFC89F"/></g><path d="M54.86 82.54c1.91 3 9.02 8.2 14.77 0" stroke="#DF8888" stroke-width="3"/><path d="M37 59.41c1.91-3 9.03-8.2 14.77 0m19.23 0c1.91-3 9.03-8.2 14.77 0" stroke="#000" stroke-width="3"/><path d="M57.82 68.19c-5.13 2.89-9.88 5.94-20.17-.66m48.53.3c-5.13 2.9-9.89 5.94-20.18-.66m-11.85 45.94c1.32 5.74 2.9 11.16-6.35 19.17m22.67-19.24c-1.32 5.74-2.9 11.16 6.35 19.17" stroke="#fff" stroke-width="2" stroke-linecap="round" stroke-dasharray="1 4"/></svg>