<svg width="120" height="147" fill="none" xmlns="http://www.w3.org/2000/svg"><mask id="a" maskUnits="userSpaceOnUse" x="0" y="0" width="120" height="147"><path d="M120 82c0 35.62-19.88 64.5-55.5 64.5A64.5 64.5 0 010 82C0 46.38 14 0 61.5 0S120 46.38 120 82z" fill="#FFF"/></mask><g mask="url(#a)"><path d="M107.7 116c-14.99-1.68-60.32-1.9-91.34 0-8.93-21.99-5.12-63.77 0-79.96C22.05 19.36 44.15-9.42 87.08 8.87c14.31 7.7 17.48 22.5 20.63 31.07 1.92 5.23 8.62 43.3 0 76.06z" fill="#FFE0C9"/><path d="M37.14 121.95c10.34-.92 12.9-17.86 12.9-26.12 1.62-11.26 17.4-7.37 25.1-2.68.47 8.7-.43 28.8 15.08 28.8 15.52 0 25.77 3.83 25.77 8.04 0 55.16-89.6 18.98-104.65 3.35-2.95-11.39 14.15-10.34 25.8-11.39z" fill="#F4BA8F"/><path d="M63 102.7c-23.18 0-33.63-38.46-34.5-62 14-16.2 27 7.3 27-6.7 0-3.27 18 21.5 23.5 6.7 3.95.24 7.65 5.86 11.3 11.6.76.9 1.83 5.3 0 15.7-5.98 17.78-16.79 34.7-27.3 34.7z" fill="#FFC89F"/></g><path d="M54.86 82.04c1.91 3 9.02 8.2 14.77 0" stroke="#DF8888" stroke-width="3"/><path d="M37 58.91c1.91-3 9.03-8.2 14.77 0m19.23 0c1.91-3 9.03-8.2 14.77 0" stroke="#000" stroke-width="3"/><ellipse cx="76.5" cy="68" rx="6.5" ry="2.5" fill="#FFB6B6"/><ellipse cx="47.5" cy="68" rx="6.5" ry="2.5" fill="#FFB6B6"/></svg>