<svg width="181" height="169" fill="none" xmlns="http://www.w3.org/2000/svg"><mask id="a" maskUnits="userSpaceOnUse" x="0" y="0" width="154" height="169"><path d="M153.51 102.6a65.76 65.76 0 01-65.75 65.75c-36.32 0-75.26-17.54-75.26-53.85-43-60.5 36.9-142.26 78-104 11.2 10.42 17.41-12.82 25-6 31.75 28.54 38.01 68.8 38.01 98.1z" fill="#FFF"/></mask><g mask="url(#a)"><path d="M71.52 145.62C42.47 167.65 25.98 186.38 32.5 150c1.73-24.5-32-18-12-62 0-29.5-1.5-63.5 32-67.5 38.5-13 61.1 9.84 68 17.5 5.53 6.15 11.5 35.5 11.5 50-7.5 51-17.19 54.44-19 69.5-6.27 52.05-52.49-.33-41.48-11.88z" fill="#944BAA"/><path d="M51.14 141.98c10.34-.93 12.9-17.87 12.9-26.13 1.62-11.25 17.4-7.37 25.1-2.68.47 8.71-.43 28.8 15.08 28.8 15.52 0 25.77 3.83 25.77 8.05 0 55.15-89.6 18.98-104.65 3.35-2.95-11.4 14.15-10.35 25.8-11.4z" fill="#F4BA8F"/><path d="M77 122.73c-23.18 0-33.63-38.47-34.5-62 14-16.2 6.5-25.23 14-11.73 5.19 9.34 31.8 1.46 45 9.5 1.14.7 6.07 3.53 7.5 4.02.3 21.9-16.18 60.21-32 60.21z" fill="#FFC89F"/><path d="M68.86 102.06c1.91 3 9.02 8.2 14.77 0" stroke="#DF8888" stroke-width="3"/><path d="M51 78.94c1.91-3.01 9.03-8.21 14.77 0m19.23 0c1.91-3.01 9.03-8.21 14.77 0" stroke="#000" stroke-width="3"/><ellipse cx="90.5" cy="88.02" rx="6.5" ry="2.5" fill="#FFB6B6"/><ellipse cx="61.5" cy="88.02" rx="6.5" ry="2.5" fill="#FFB6B6"/></g><path d="M162.4 13.36c2.51-3.84 5.7-2.13 8.33.87.8-1.85 6.8-6.3 9.03.1 1.72 4.91-5.48 10.76-9.03 12.71-4.68-2.93-11.7-8.56-8.34-13.68zm-5.07 37.01c1.84-2.96 4.18-1.64 6.1.67.6-1.42 5-4.85 6.63.08 1.26 3.77-4.02 8.27-6.62 9.77-3.43-2.25-8.58-6.58-6.11-10.52zm-24.68-25.92c1.84-2.95 4.18-1.63 6.1.68.6-1.43 5-4.85 6.63.08 1.26 3.77-4.02 8.27-6.62 9.77-3.43-2.26-8.58-6.58-6.11-10.53z" fill="#FE2C78"/></svg>