<svg width="133" height="156" fill="none" xmlns="http://www.w3.org/2000/svg"><mask id="a" maskUnits="userSpaceOnUse" x="0" y="0" width="133" height="156"><path d="M131 91A65 65 0 011 91C1 55.1-7 0 66 0c84.5 2.5 65 55.1 65 91z" fill="#FFF"/></mask><g mask="url(#a)"><path d="M36.3 130.94c-19.49-12-8.7-32.2-20.63-39.13-11.93-6.95-18.81-31.56 0-51.76 0-12.62 14.9-35.97 41.84-27.14C73.54 18.17 77.57 2.18 94.2 10.4c8.02 3.96 30.38 18.93 22.35 34.71-1.64 3.23 12.2 20.22 7.45 38.5-6.45 16.3-11.65 16.55-14.76 21.46 0 16.16-8.61 24.82-12.92 27.14-13.06 10.16-36.77 16.2-60.02-1.26z" fill="#FCA8AD"/><path d="M40.15 125.45c10.34-.92 12.9-17.86 12.9-26.12 1.62-11.26 17.4-7.37 25.1-2.68.47 8.7-.43 28.8 15.08 28.8S119 129.28 119 133.5c0 55.16-89.6 18.98-104.66 3.35-2.94-11.39 14.16-10.34 25.81-11.39z" fill="#F4BA8F"/><path d="M99 43c.3 21.89-17.17 60.5-33 60.5-20.1 0-30.63-28.96-33.64-52 0-13.6 8.1-20.2 12.14-21.79C59.12 20.06 80.26 16.35 99 43z" fill="#FFC89F"/><path d="M60.82 62.19c-5.13 2.89-9.88 5.94-20.17-.66m28.49.3c5.13 2.9 9.89 5.94 20.18-.66m-32.17 45.94c1.32 5.74 2.9 11.16-6.35 19.17m22.67-19.24c-1.32 5.74-2.9 11.16 6.35 19.16" stroke="#fff" stroke-width="2" stroke-linecap="round" stroke-dasharray="1 4"/></g><path d="M76.6 33.09C64.37 32.07 54.3 31.7 51 23.83L86.02 20c10.78 7.66 30.46 21.68 19.55 26.5-15.95 4-25.96-7.27-28.98-13.41z" fill="#FCA8AD"/><path d="M57.29 80.93c1.93 3.03 9.1 8.27 14.88 0" stroke="#EF7E7E" stroke-width="3"/><path d="M42 59.41c1.91-3 9.03-8.2 14.77 0m14.58-.35c1.92-3.01 9.03-8.2 14.77 0" stroke="#000" stroke-width="3"/></svg>