<svg width="154" height="194" fill="none" xmlns="http://www.w3.org/2000/svg"><mask id="a" maskUnits="userSpaceOnUse" x="0" y="0" width="154" height="169"><path d="M153.51 102.6a65.76 65.76 0 01-65.75 65.75c-36.32 0-75.26-17.54-75.26-53.85-43-60.5 36.9-142.26 78-104 11.2 10.42 17.41-12.82 25-6 31.75 28.54 38.01 68.8 38.01 98.1z" fill="#FFF"/></mask><g mask="url(#a)"><path d="M71.52 145.62C42.47 167.65 25.98 186.38 32.5 150c1.73-24.5-32-18-12-62 0-29.5-1.5-63.5 32-67.5 38.5-13 61.1 9.84 68 17.5 5.53 6.15 11.5 35.5 11.5 50-7.5 51-17.19 54.44-19 69.5-6.27 52.05-52.49-.33-41.48-11.88z" fill="#3DD2C1"/><path d="M51.14 141.98c10.34-.93 12.9-17.87 12.9-26.13 1.62-11.25 17.4-7.37 25.1-2.68.47 8.71-.43 28.8 15.08 28.8 15.52 0 25.77 3.83 25.77 8.05 0 55.15-89.6 18.98-104.65 3.35-2.95-11.4 14.15-10.35 25.8-11.4z" fill="#F4BA8F"/><path d="M77 122.73c-23.18 0-33.63-38.47-34.5-62 14-16.2 6.5-25.23 14-11.73 5.19 9.34 31.8 1.46 45 9.5 1.14.7 6.07 3.53 7.5 4.02.3 21.9-16.18 60.21-32 60.21z" fill="#FFC89F"/><path d="M68.86 102.06c1.91 3 9.02 8.2 14.77 0" stroke="#DF8888" stroke-width="3"/><path d="M51 78.94c1.91-3.01 9.03-8.21 14.77 0m19.23 0c1.91-3.01 9.03-8.21 14.77 0" stroke="#000" stroke-width="3"/><ellipse cx="90.5" cy="88.02" rx="6.5" ry="2.5" fill="#FFB6B6"/><ellipse cx="61.5" cy="88.02" rx="6.5" ry="2.5" fill="#FFB6B6"/></g><path d="M49.28 142.5c6-14.8-17-54.5-4.5-62.5 2.34 11.33 8 30.5 19.5 38-2.5 22.5-11 24.83-15 24.5zm39.5-27c0 22.5 9 26.34 13 26-2.29-8.6 5.03-43.87 5.5-53.5.35-7.18-6.56 10.56-5.5 7-5.2 11.6-10.5 18-13 20.5z" fill="#fff"/><path d="M107 96.5c4.01-3.34 0-9.67-1-13.5 0 0-1.4 7.33-3 12.5-2 6.5-5 13-5 13 1.83-2 6-9.5 9-12z" fill="#fff"/><path d="M39.9 157.77c22.5-25.5-1-56.5-2-66.5l-9.5 56c-12.8 48.8 5.34 49.67 16 44-8.83 2-27.02-7.98-4.5-33.5zm63.14-7.99c-7.78-33.83.67-56 8.45-61.65l6.42 52.92c-2.4 50.66-21.23 45.27-30.34 36.24 8.4 4.92 23.25 6.31 15.47-27.51z" fill="#3DD2C1"/><path d="M40 99.5s-11.98-6.87-22.04-.92l.68-7.54c2.01-2.1 8-4.81 21.36 1.46v7zm91-3.2s-12.8-7.05-23.4-1.23l.62-7.55c2.1-2.09 8.43-4.72 22.68 1.76l.1 7.02z" fill="#EF7E7E"/></svg>