<svg width="169" height="156" fill="none" xmlns="http://www.w3.org/2000/svg"><mask id="a" maskUnits="userSpaceOnUse" x="0" y="9" width="120" height="148"><path d="M120 91.5c0 35.62-19.88 64.5-55.5 64.5A64.5 64.5 0 010 91.5c0-35.62 14-82 61.5-82s58.5 46.38 58.5 82z" fill="#FFF"/></mask><g mask="url(#a)"><path d="M107.7 104c-14.99-1.35-60.32-1.54-91.34 0-8.93-17.7-5.12-51.36 0-64.4C22.05 26.18 44.15 3 87.08 17.73c14.31 6.2 17.48 18.11 20.63 25.02 1.92 4.21 8.62 34.86 0 61.25z" fill="#ADFDF4"/><path d="M37.14 131.45c10.34-.92 12.9-17.86 12.9-26.12 1.62-11.26 17.4-7.37 25.1-2.68.47 8.7-.43 28.8 15.08 28.8 15.52 0 25.77 3.83 25.77 8.04 0 55.16-89.6 18.98-104.65 3.35-2.95-11.39 14.15-10.34 25.8-11.39z" fill="#F4BA8F"/><path d="M63 112.2c-23.18 0-33.63-38.46-34.5-62 14-16.2 27 7.3 27-6.7 0-3.27 18 21.5 23.5 6.7 3.95.24 7.65 5.86 11.3 11.6.76.9 1.83 5.3 0 15.7-5.98 17.78-16.79 34.7-27.3 34.7z" fill="#FFC89F"/></g><path d="M54.86 91.54c1.91 3 9.02 8.2 14.77 0" stroke="#DF8888" stroke-width="3"/><path d="M37 68.41c1.91-3 9.03-8.2 14.77 0m19.23 0c1.91-3 9.03-8.2 14.77 0" stroke="#000" stroke-width="3"/><ellipse cx="76.5" cy="77.5" rx="6.5" ry="2.5" fill="#FFB6B6"/><ellipse cx="47.5" cy="77.5" rx="6.5" ry="2.5" fill="#FFB6B6"/><path d="M150.4 2.36c2.51-3.84 5.7-2.13 8.33.87.8-1.85 6.8-6.3 9.03.1 1.72 4.91-5.48 10.76-9.03 12.71-4.68-2.93-11.7-8.56-8.34-13.68zm-4.07 41.01c1.84-2.96 4.18-1.64 6.1.67.6-1.42 5-4.85 6.63.08 1.26 3.77-4.02 8.27-6.62 9.77-3.43-2.25-8.58-6.58-6.11-10.52zm-25.68-21.92c1.84-2.95 4.18-1.63 6.1.68.6-1.43 5-4.85 6.63.08 1.26 3.77-4.02 8.27-6.62 9.77-3.43-2.26-8.58-6.58-6.11-10.53z" fill="#FCA8AD"/></svg>