<svg width="133" height="156" fill="none" xmlns="http://www.w3.org/2000/svg"><mask id="a" maskUnits="userSpaceOnUse" x="0" y="0" width="133" height="156"><path d="M130.4 91a65 65 0 11-130 0c0-35.9-8-91 65-91 84.5 2.5 65 55.1 65 91z" fill="#FFF"/></mask><g mask="url(#a)"><path d="M95.9 94c-14.99-1.56-19.48-24.27-50.5-22.5-14.5-8 11.5 28.5-14 0-17.3-19.35-13-65 28.5-69 39.5-3.8 45.23 27.97 50 40 1.92 4.84-3.5 32.5-14 51.5z" fill="#E8ECFF"/><path d="M39.55 125.45c10.35-.92 12.9-17.86 12.9-26.12 1.62-11.26 17.4-7.37 25.1-2.68.47 8.7-.43 28.8 15.09 28.8 15.5 0 25.76 3.83 25.76 8.04 0 55.16-89.6 18.98-104.65 3.35-2.95-11.39 14.15-10.34 25.8-11.39z" fill="#F4BA8F"/><path d="M98.4 43c.3 21.89-17.17 60.5-33 60.5-20.1 0-30.63-28.96-33.64-52 0-13.6 8.1-20.2 12.14-21.79C58.53 20.06 79.66 16.35 98.4 43z" fill="#FFC89F"/></g><path d="M76.4 62.5c-13.6-1.6-26.33-31.17-30-43.5l39-6c12 12 34.4 37.3 20 46-26.5 16-33-8.8-33-7 0 2.5 2 6.5 4 10.5z" fill="#E8ECFF"/><path d="M56.7 80.93c1.92 3.03 9.09 8.27 14.88 0" stroke="#EF7E7E" stroke-width="3"/><path d="M41.4 59.41c1.92-3 9.03-8.2 14.77 0" stroke="#000" stroke-width="3"/><ellipse cx="78.9" cy="70.5" rx="6.5" ry="2.5" fill="#FFB6B6"/><ellipse cx="49.9" cy="70.5" rx="6.5" ry="2.5" fill="#FFB6B6"/></svg>