<svg width="121" height="147" fill="none" xmlns="http://www.w3.org/2000/svg"><mask id="a" maskUnits="userSpaceOnUse" x="0" y="0" width="121" height="148"><path d="M120.4 82.5c0 35.62-19.88 64.5-55.5 64.5A64.5 64.5 0 01.4 82.5c0-35.62 14-82 61.5-82s58.5 46.38 58.5 82z" fill="#FFF"/></mask><g mask="url(#a)"><path d="M108.1 119c-14.98-1.71-60.32-1.94-91.33 0-8.94-22.38-5.13-64.9 0-81.38C22.45 20.65 44.55-8.64 87.49 9.97c14.3 7.84 17.47 22.9 20.62 31.62 1.92 5.33 8.62 44.06 0 77.41z" fill="#944BAA"/><path d="M37.54 122.45c10.35-.92 12.9-17.86 12.9-26.12 1.62-11.26 17.4-7.37 25.1-2.68.47 8.7-.42 28.8 15.09 28.8 15.5 0 25.76 3.83 25.76 8.04 0 55.16-89.6 18.98-104.65 3.35-2.95-11.39 14.15-10.34 25.8-11.39z" fill="#F4BA8F"/><path d="M63.4 103.2c-23.18 0-33.63-38.46-34.5-62C42.9 25 61.4 40 61.4 26c0-3.27.94 6.85 3.5 7 7.28.42 13.73-2.63 20.5 1.5 1.14.7 8.57 8 10 8.5.3 21.89-16.18 60.2-32 60.2z" fill="#FFC89F"/></g><path d="M55.26 82.54c1.91 3 9.02 8.2 14.77 0" stroke="#DF8888" stroke-width="3"/><path d="M37.4 59.41c1.92-3 9.03-8.2 14.77 0m19.23 0c1.92-3 9.03-8.2 14.77 0" stroke="#000" stroke-width="3"/><path d="M58.23 68.19c-5.14 2.89-9.89 5.94-20.18-.66m48.53.3c-5.13 2.9-9.88 5.94-20.18-.66m-11.84 45.94c1.31 5.74 2.89 11.16-6.35 19.17m22.66-19.24c-1.31 5.74-2.89 11.16 6.36 19.17" stroke="#fff" stroke-width="2" stroke-linecap="round" stroke-dasharray="1 4"/></svg>