<svg width="181" height="171" fill="none" xmlns="http://www.w3.org/2000/svg"><mask id="a" maskUnits="userSpaceOnUse" x="0" y="0" width="154" height="169"><path d="M153.91 102.6a65.75 65.75 0 01-65.75 65.75c-36.32 0-75.26-17.54-75.26-53.85-43-60.5 36.9-142.26 78-104 11.2 10.42 17.41-12.82 25-6 31.75 28.54 38.01 68.8 38.01 98.1z" fill="#FFF"/></mask><g mask="url(#a)"><path d="M106.18 166.28C75.8 186.47 26.51 185.7 32.9 150c1.73-24.5-41.5-38-21.5-82 0-29.5 8-43.5 41.5-47.5 38.5-13 64.1 8.84 71 16.5 9 10 28.83 48.23 22 87-6.43 36.51-42.76 46.49-39.72 42.28z" fill="#944BAA"/><path d="M51.54 141.98c10.35-.93 12.9-17.87 12.9-26.13 1.62-11.25 17.4-7.37 25.1-2.68.47 8.71-.42 28.8 15.09 28.8 15.5 0 25.76 3.83 25.76 8.05 0 55.15-89.6 18.98-104.65 3.35-2.95-11.4 14.15-10.35 25.8-11.4z" fill="#F4BA8F"/><path d="M77.4 122.73c-23.18 0-33.63-38.47-34.5-62 14-16.2 45.08-6.16 49.5-16.2 5.07-11.51-.03 8.16 13.16 16.2 1.14.7 2.41 1.3 3.84 1.8.3 21.88-16.18 60.2-32 60.2z" fill="#FFC89F"/><path d="M69.26 102.06c1.91 3 9.03 8.2 14.77 0" stroke="#DF8888" stroke-width="3"/><path d="M51.4 78.94c1.92-3.01 9.03-8.21 14.77 0m19.23 0c1.92-3.01 9.03-8.21 14.77 0" stroke="#000" stroke-width="3"/><ellipse cx="90.9" cy="88.02" rx="6.5" ry="2.5" fill="#FFB6B6"/><ellipse cx="61.9" cy="88.02" rx="6.5" ry="2.5" fill="#FFB6B6"/></g><path d="M26.93 122l15.81 4.67c-5.22 7.29-13.72 23.54-11 30.65.4 1.78 3.45 7.2 9.85 6.67 6.4-.53 6.66-6.67 4-9.33-2.42-2.42-7.33.66-8 4.66-.53-1.06-.42-2.96-.3-3.78a6.27 6.27 0 011.8-3.13c1-.92 2.45-1.54 4.5-1.54 1.94-.07 6.1.99 7.24 5.79 2.62 7.93-3.77 18.48-17.9 12.66-12.96-5.33-10-20.66-6.67-36.66.36-3.33.98-7.33.67-10.66z" fill="#944BAA"/><path d="M35.35 116.63l-8-2.43c.03 3.25-1.11 8.86-2.74 13.23-1.48 3.04-5.25 8.53-7.75 8.6-1.69.27-2.46-.36-3.43-1.2-2.86-2.43-.63-5.97 1.52-6.28 1.95-.29 3.25 2.82 2.24 4.89.42-.53 1.54-1.57 1.6-3.7-.13-2.2-2.84-4.97-7-2.07-3.88 2.75-5.48 9.66 3.16 11.84 6.09 1.53 10.86-5.67 14.9-12.76.93-1.66 4.24-8.7 5.5-10.12z" fill="#944BAA"/><path d="M162.8 14.36c2.51-3.84 5.7-2.13 8.33.87.8-1.85 6.8-6.3 9.03.1 1.72 4.91-5.48 10.76-9.03 12.71-4.68-2.93-11.7-8.56-8.34-13.68zm-5.07 37.01c1.85-2.96 4.18-1.64 6.11.67.6-1.42 4.98-4.85 6.63.08 1.25 3.77-4.03 8.27-6.63 9.77-3.43-2.25-8.58-6.58-6.11-10.52zm-24.68-25.92c1.85-2.95 4.18-1.63 6.11.68.6-1.43 4.98-4.85 6.63.08 1.25 3.77-4.03 8.27-6.63 9.77-3.43-2.26-8.58-6.58-6.11-10.53z" fill="#FE2C78"/></svg>