<svg width="137" height="137" fill="none" xmlns="http://www.w3.org/2000/svg"><mask id="a" maskUnits="userSpaceOnUse" x="0" y="0" width="137" height="137"><circle cx="68.5" cy="68.5" r="68.5" fill="#FFF"/></mask><g mask="url(#a)"><circle cx="68.5" cy="68.5" r="68.5" fill="#3FBAFF"/><path d="M105.5 134.13c0-6.06 6.55-33.95 9.82-47.14 6.65-17.2 1.1-25.16-2.52-26.99-16.78-15.25-60.83-30.6-84.1-39.34L17.15 16C2.7 31.52-18.77 65.7 10.8 78.26 40.36 90.83 65.08 89.32 73.74 87 61.27 96.3 60.65 124.6 62 137c14.44 1.94 43.5 3.18 43.5-2.87z" fill="#FFBD86"/><path d="M-1.5 69C6.17 77.33 34 93.9 72 87.5c-5.67 11.5-15.8 36.4-9 48" stroke="#FC9F5E" stroke-width="3" stroke-linecap="round"/><g filter="url(#filter0_f)"><path d="M113.04 87.5c-22.4-3.6-16.67-23.67-10.5-33.5 3 0 10.46 2.5 15.46 13 2.21 4.65-1 17.5-4.96 20.5z" fill="#FE3A48" fill-opacity=".3"/></g><path d="M115 50l6-4.5-4-2.5 6-4.5-4.5-3L123 31m-2 29.6l6.3 4.07.96-4.62 6.3 4.06 1.25-5.26 5.79 2.65M125.03 79l.86 7.45 4.18-2.2.86 7.46 4.86-2.38 1.62 6.16" stroke="#fff"/></g><defs><filter id="filter0_f" x="93" y="50" width="29.72" height="41.5" filterUnits="userSpaceOnUse" color-interpolation-filters="sRGB"><feFlood flood-opacity="0" result="BackgroundImageFix"/><feBlend in="SourceGraphic" in2="BackgroundImageFix" result="shape"/><feGaussianBlur stdDeviation="2" result="effect1_foregroundBlur"/></filter></defs></svg>