<svg width="137" height="151" fill="none" xmlns="http://www.w3.org/2000/svg"><g clip-path="url(#clip0)"><path d="M68.5 151a68.5 68.5 0 100-137 68.5 68.5 0 000 137z" fill="#3FBAFF"/><path d="M137 77c1.5 29.5-12 46.5-22.5 56.5-8.72-.83-10.58-12.53-12.31-21.52-24.08 13.27-50.5 5.53-60.7 0-14.02-2.07-31.14-11.4-26.99-28 4.15-16.58 29.06-49.24 34.24-59.61 4.16-8.3 10.04-13.48 12.46-15.04C67.42 3.11 84.54.52 92.33 0c1.9 4.67 6.02 14.62 7.26 17.1 1.25 2.5-2.25 3.81-4.15 4.16l2.6 4.66c-2.08 7.47-6.75 4.67-6.75 2.08-3.63 2.07-11.93 0-16.08-2.08-3.33-1.66-7.61.7-9.34 2.08-5.4 12.85-10.55 38.88-12.46 50.28 16.2-17 33.73-9.5 40.47-3.62 14.53-11.93 33.73-5.7 37.36-2.08 2.9 2.9 3.76 4.92 5.76 4.42z" fill="#FFBD86"/></g><defs><clipPath id="clip0"><path fill="#fff" d="M0 0h137v151H0z"/></clipPath></defs></svg>