<svg width="112" height="101" fill="none" xmlns="http://www.w3.org/2000/svg"><path d="M111 27.03c-.5-6-1-26-56-27-21.56-.4-35.2 3.84-43.5 9.36C2.86 15.13 0 22.27 0 27.03 0 33 2.77 43.75 4.74 54 6.93 65.35 9.4 76.72 11.5 83.03c4 12 11 17.5 21 17.5 7.5.33 30.4.8 44 0 17-1 17.5-8 20.5-12.5s14.5-55 14-61z" fill="#AF74FF"/><path d="M23 29V15.1c23.93-7.42 52.64-3.1 64 0V29c-34.93-8.65-57.22-3.6-64 0z" fill="#fff"/><path d="M40 21l-3.5 6 3.5 1.5 5-2-5-5.5zm-1.69-3.12h2.97v1.05H38.3v-1.05zm3.59 0h2.96v1.05H41.9v-1.05zm4.39-2.48c.45-.18.9-.4 1.33-.67a5.6 5.6 0 001.19-1.05h.79V22h-1.12v-6.77a4.04 4.04 0 01-.82.55 6.2 6.2 0 01-1.02.46l-.35-.84zm6.26 2.44c0-1.4.24-2.47.73-3.22a2.33 2.33 0 012.05-1.13c.87 0 1.55.38 2.04 1.13.5.75.74 1.82.74 3.22 0 1.39-.24 2.46-.74 3.21a2.3 2.3 0 01-2.04 1.13c-.87 0-1.56-.38-2.05-1.13a5.9 5.9 0 01-.73-3.21zm4.39 0c0-.46-.03-.9-.09-1.3-.04-.4-.13-.76-.26-1.07-.12-.3-.28-.54-.5-.72-.2-.18-.46-.27-.76-.27s-.56.09-.77.27c-.2.18-.37.42-.5.72-.12.3-.21.66-.27 1.07a11.1 11.1 0 000 2.6c.06.4.15.76.27 1.06.13.3.3.55.5.73.2.18.47.27.77.27.3 0 .56-.1.77-.27.2-.18.37-.43.49-.73.13-.3.22-.66.26-1.07.06-.4.09-.84.09-1.3zm5.02.76a10.78 10.78 0 011.64 1.54A12.4 12.4 0 0165 22h-1.33a12.02 12.02 0 00-2.14-2.39 7.62 7.62 0 00-.74-.56V22h-1.11v-6.24h1.11v2.68l.66-.64.75-.74a55.78 55.78 0 001.23-1.3h1.3a34.07 34.07 0 01-1.36 1.4l-.74.77-.67.67zm8.03-1.9h-2.75V22h-1.12v-6.24H70v.94z" fill="#AF74FF"/><path d="M45.52 63c-5.2 6.4-3.17 11-2 14 1.16 3 1.9 9.7-4.5 12.5-11.61 4.15-11.5-9.5-14.4-15a289.8 289.8 0 01-3.36-6.5c-2.58-6.4-1.2-16.68 10.26-20.5 13.5-4.5 20.5 7.5 14 15.5z" fill="#FFC89F"/><ellipse cx="46" cy="39" rx="4" ry="6" fill="#FFC89F"/><ellipse cx="37" cy="39" rx="3" ry="4" fill="#FFC89F"/><ellipse cx="29.75" cy="40.61" rx="2.76" ry="4.14" transform="rotate(-12.88 29.75 40.61)" fill="#FFC89F"/><ellipse cx="23.23" cy="43.88" rx="2.76" ry="4.14" transform="rotate(-16.6 23.23 43.88)" fill="#FFC89F"/><ellipse cx="18.62" cy="49.34" rx="2.33" ry="3.49" transform="rotate(-25.84 18.62 49.34)" fill="#FFC89F"/><path d="M63.48 63c5.2 6.4 3.17 11 2 14-1.16 3-1.9 9.7 4.5 12.5 11.61 4.15 11.5-9.5 14.4-15 1.9-3.6 3.03-5.83 3.36-6.5 2.58-6.4 1.2-16.68-10.26-20.5-13.5-4.5-20.5 7.5-14 15.5z" fill="#FFC89F"/><ellipse rx="4" ry="6" transform="matrix(-1 0 0 1 63 39)" fill="#FFC89F"/><ellipse rx="3" ry="4" transform="matrix(-1 0 0 1 72 39)" fill="#FFC89F"/><ellipse rx="2.76" ry="4.14" transform="scale(-1 1) rotate(-12.88 140.34 371.51)" fill="#FFC89F"/><ellipse rx="2.76" ry="4.14" transform="scale(-1 1) rotate(-16.59 107.6 316.02)" fill="#FFC89F"/><ellipse rx="2.33" ry="3.49" transform="scale(-1 1) rotate(-25.84 62.37 221.7)" fill="#FFC89F"/></svg>