<svg width="77" height="116" fill="none" xmlns="http://www.w3.org/2000/svg"><path d="M61.74 0h-52c7.6 22.8 1.17 42.17-3 49 22.4 11.6 48.33 6.17 58.5 2-12-20.4-7.33-42.5-3.5-51z" fill="#FFBD86"/><path d="M70.24 49.5c-10.4-18.4-6-40.83-2.5-49.5h-6c-4.17 8.83-9.4 32.1 3 52.5s2.17 50.5-4 63h7c5-7 15.5-43 2.5-66z" fill="#E59157"/><path d="M8.88 115.56C-1.92 98.36-.59 73 1.24 63c14.8-1.2 30.67 11.83 37 20 7.6-14.4 24.33-18.83 31.5-20 5.6 17.2-2.7 43.06-7.36 52.56H8.88z" fill="#FFBD86"/><path d="M35.24 51c1-1.83 3.6-4.4 6 0" stroke="#E59157" stroke-width="2"/><path d="M36.74 79h3v37h-3V79z" fill="#E59157"/><path d="M1.24 63c.4-3.6 3.83-10.83 5.5-14 23.2 10.4 47.33 5.67 57.5 2 2 4 4.5 8.8 2.5 9-16 1.6-27.83 14.17-31.5 20.5-14-16-28.5-18.33-34-17.5z" fill="#FE2C78"/><path d="M70.24 49.5l-6.5 1.5c1.5 1.5 3 4.5 3.5 8-15.6.4-28.33 14.17-32.5 21l4.5 5.5c10-15 23-21.5 36-22.5 0-4.8-3.17-10.83-5-13.5z" fill="#DE1960"/></svg>