<svg width="127" height="161" fill="none" xmlns="http://www.w3.org/2000/svg"><path d="M80.17 159.79L69.7 132.13l5.58-2.1c3.14 8.32 10.09 27.32 10.45 27.65.36.34-4.18 2.45-5.57 2.1z" fill="#AF74FF"/><path d="M92.46 67.14c7.35 27.4-4.52 53.56-25.37 59.15-20.86 5.58-44.2-11.13-51.55-38.54-7.35-27.4 4.52-53.56 25.37-59.14 20.86-5.6 44.2 11.12 51.55 38.53z" fill="#99E2FA" stroke="#653A08" stroke-width="4"/><mask id="a" maskUnits="userSpaceOnUse" x="0" y="15" width="108" height="125"><path d="M90.53 67.66c7.18 26.77-4.56 51.5-23.96 56.7-19.4 5.2-41.93-10.35-49.1-37.13-7.18-26.77 4.56-51.5 23.96-56.7 19.4-5.2 41.93 10.35 49.1 37.13z" fill="#FFF" stroke="#653A08" stroke-width="8"/></mask><g mask="url(#a)"><path d="M34.12 134.14l-2.59-9.65c-3.6-9.46-4.81-24.04-4.97-30.14L47.68 68.9c12.93 1.94 39.3 6.38 41.35 8.71 2.04 2.33 10.3 26.32 14.18 38.02-4.6-1.28-47.98 11.8-69.09 18.51z" fill="#C90B50"/><path d="M31.24 124.37C12.81 78.57 33.12 55.3 45.58 49.4c33.81-9.06 50.98 35.86 55.34 59.45-33.56-64.38-57.9-16.64-63.71-14.63-4.64 1.6-5.91 20.76-5.97 30.14z" fill="#FE2C78"/><path d="M65.84 118.26c-15.61 5.28-26.86-17.41-30.53-29.41C54 82.48 60.4 59.03 59.44 65.62c-.76 5.28 10.65 10.44 16.45 12.36 3.16 11.23 5.57 35.01-10.05 40.28z" fill="#FFC89F"/><path d="M69.44 86.05c-.57 1.8-3.51 5.47-7.6 2.03M43.7 93.29c1.4 1.28 5.79 2.98 7.61-2.04M57 103.87c1.4 1.29 5.79 2.98 7.61-2.04" stroke="#000" stroke-width="3"/></g><path d="M108.88 2.36c2.52-3.84 5.7-2.13 8.34.87.8-1.85 6.79-6.3 9.03.1 1.72 4.91-5.48 10.76-9.03 12.71-4.68-2.93-11.7-8.56-8.34-13.68zm-5.06 37.01c1.84-2.96 4.18-1.64 6.1.67.6-1.42 5-4.85 6.63.08 1.26 3.77-4.02 8.27-6.62 9.77-3.43-2.25-8.58-6.58-6.11-10.52zM79.13 13.45c1.85-2.95 4.19-1.63 6.12.68.59-1.43 4.98-4.85 6.62.08 1.26 3.77-4.02 8.27-6.62 9.77-3.43-2.26-8.58-6.58-6.12-10.53z" fill="#FE2C78"/><path d="M91.5 67.4c7.26 27.1-4.55 52.53-24.67 57.92-20.13 5.4-43.07-10.73-50.33-37.83-7.26-27.09 4.55-52.53 24.67-57.92C61.3 24.17 84.24 40.31 91.5 67.4z" stroke="#AF74FF" stroke-width="6"/></svg>