<svg width="102" height="134" fill="none" xmlns="http://www.w3.org/2000/svg"><path d="M102 17.16c-39.6-31.6-84.5-12.17-102 0v50.5c0 33.2 33.67 57.83 50.5 66 40-20 51.5-53.5 51.5-66v-50.5z" fill="#FFC89F"/><path d="M94 24.38c-33-26.48-70.42-10.2-85 0v42.31C9 94.51 37.06 115.16 51.08 122 84.42 105.24 94 77.17 94 66.7V24.37z" stroke="#fff" stroke-width="5"/><path d="M34.43 56.73h11.69V43.78h9.52v12.95h11.69v8.75H55.64v12.95h-9.52V65.48H34.43v-8.75z" fill="#7437FF"/><ellipse cx="20.5" cy="43.5" rx="1.5" ry="7.5" fill="#fff"/><ellipse cx="20.5" cy="28.5" rx="1.5" ry="2.5" fill="#fff"/></svg>