<svg width="116" height="150" fill="none" xmlns="http://www.w3.org/2000/svg"><path d="M4.03 135.75v-14.1c-1.45-14.2 2.22-34.5 4.23-42.87l38.05-26.95c16.91 7.35 51.22 23.03 53.15 26.95 1.93 3.92 4.43 39.61 5.43 56.97-5.8-3.44-69.65-1.44-100.86 0z" fill="#341183" stroke="#000"/><path d="M11.1 119.12L0 146.23h21.6l3.7-27.11-3.7-30.23c-9.38-1-10.9 19.74-10.5 30.23zm84.54-2.47l14.8 27.12H88.86l-7.4-27.12 3.7-30.23c9.38-.99 10.9 19.74 10.49 30.23z" fill="#FFC89F"/><path d="M39.14 2.36c2.52-3.84 5.7-2.13 8.33.87.8-1.85 6.8-6.3 9.04.1 1.71 4.91-5.49 10.76-9.04 12.71-4.68-2.93-11.7-8.56-8.33-13.68zm63.93 34.01c1.85-2.96 4.19-1.64 6.11.67.6-1.42 4.99-4.85 6.63.08 1.26 3.77-4.02 8.27-6.63 9.77-3.43-2.25-8.57-6.58-6.1-10.52zM78.39 10.45c1.85-2.95 4.18-1.63 6.11.68.6-1.43 4.99-4.85 6.63.08 1.26 3.77-4.02 8.27-6.63 9.77-3.43-2.26-8.57-6.58-6.11-10.53z" fill="#EF7E7E"/><path d="M3.68 122.79c-8.4-69.1 27.77-93.38 46.9-96.88 49.35 0 56.35 67.47 53.67 101.2-22.2-99.96-72.8-43.81-81.44-43.2-6.91.5-15.63 26.13-19.13 38.88z" fill="#7437FF"/><path d="M53.04 127.1c-23.2 1.49-30.23-33.52-30.85-51.2 27.77-1.86 45.04-31.47 41.34-22.84-2.96 6.91 10.7 18.1 17.9 22.83.2 16.46-5.19 49.73-28.39 51.22z" fill="#FFC89F"/><path d="M32.68 87.62c1.44-2.27 6.79-6.17 11.1 0m14.82.23c1.43-2.26 6.78-6.17 11.1 0m-23.45 16.43c1.44 2.26 6.8 6.17 11.11 0" stroke="#000" stroke-width="3"/></svg>