<svg width="126" height="126" fill="none" xmlns="http://www.w3.org/2000/svg"><path d="M71.65 26.38C65.5 21.6 59.59 14.55 56.29 10L14 22.96l.75 7.48.95 6.18 48.8 1.7c19.64 25.65-2.28 51.86-15.7 61.75v25.59h35.8V88.13c2.05-1.02 9.21-10.58 9.21-21.15 0-20.88-16.03-35.83-22.17-40.6z" fill="#FFBD86"/><path d="M55.61 90.18v35.48h-7.16V97.34l7.16-7.16z" fill="#E59157"/><path d="M23.3 53.26C19.47 49.97 16.5 41 15.5 35.5l49 2.48c18.42 25.69-.35 52.4-8.54 54.12-6.55 1.36-14.78 23.17-18.08 33.9H0c6.82-43.01 18.97-67.03 23.3-72.74z" fill="#FFBD86"/><path d="M64.14 39c8.42 8.76 17.95 31.52-9.9 55.27" stroke="#E59157" stroke-width="3" stroke-linecap="round"/><path d="M77.5 31.5C75.32 46.24 39.85 49.3 22 51c34.7-3.32 45.24 10.32 51.04 13.05 7.85-16.72 5.6-21.86 4.46-32.55z" fill="#FF93C7"/><path d="M86.15 85.38a9.82 9.82 0 01-7.97 3.9" stroke="#E59157" stroke-width="2" stroke-linecap="round"/><path d="M87 10.18C92.65 8.71 92.81 7.5 94 2c.5 6.5 2 7.5 5.5 8.5-5 1-4.51 1.49-6 7-1-6-3.28-6.7-6.5-7.32zm13 28c5.65-1.47 5.81-2.68 7-8.18.5 6.5 2 7.5 5.5 8.5-5 1-4.51 1.49-6 7-1-6-3.28-6.7-6.5-7.32zm13-30c5.65-1.47 5.81-2.68 7-8.18.5 6.5 2 7.5 5.5 8.5-5 1-4.51 1.49-6 7-1-6-3.28-6.7-6.5-7.32z" fill="#AF74FF"/></svg>