<svg width="84" height="116" fill="none" xmlns="http://www.w3.org/2000/svg"><path d="M11.73 115.5C-2.67 95.1-.77 69.83 1.73 60c3.5-8 29.5 7 32.5 16.5 2.4 7.6-1 29.17-3 39h-19.5z" fill="#FFBD86"/><path d="M16.54 87.01a1.5 1.5 0 10.39 2.98l-.4-2.98zm19-13.66c.4 2.32-1.23 11.33-19 13.66l.39 2.98c18.8-2.48 22.37-12.57 21.56-17.16l-2.95.52z" fill="#E59157"/><path d="M58.56 115.52c14.4-20.4 13-45.17 10.5-55-1.34-8.5-30 6.5-33 16-2.4 7.6 1 29.16 3 39h19.5z" fill="#FFBD86"/><path d="M53.42 88.16a1.5 1.5 0 11-.25 3l.25-3zM37.8 76.26c-.22 1.25.12 3.9 2.3 6.42 2.13 2.47 6.13 4.9 13.32 5.48l-.25 3c-7.78-.65-12.58-3.33-15.34-6.52-2.72-3.14-3.38-6.7-2.99-8.9l2.96.52z" fill="#E59157"/><path d="M65.73 109.5c-6.33-10.17-13.5-32.8 8.5-42M37.4 91.03c4.68 4.12 12.02 14.41 3.96 22.61" stroke="#00C1FF" stroke-width="2" stroke-linecap="round" stroke-dasharray="1 4"/><path d="M61.73 0h-52c7.6 22.8 1.17 42.17-3 49 22.4 11.6 48.34 6.17 58.5 2-12-20.4-7.33-42.5-3.5-51z" fill="#FFBD86"/><path d="M70.23 49.5c-10.4-18.4-6-40.83-2.5-49.5h-6c-4.16 8.83-9.4 32.1 3 52.5s.17 50.5-6 63h6c5-7 18.5-43 5.5-66z" fill="#E59157"/><path d="M70.23 27.5c-1 16 13 22 10.5 36.5" stroke="#00C1FF" stroke-width="2" stroke-linecap="round" stroke-dasharray="1 4"/><path d="M1.23 63c.4-3.6 3.84-10.83 5.5-14 23.2 10.4 47.84 5.67 58 2 2 4 6 8 3 8.5-15.86 2.64-28.83 14.67-32.5 21-14-16-28.5-18.33-34-17.5z" fill="#FF93C7"/><path d="M70.23 49.5l-6.21 1.75c1 2 3.88 7.25 3.71 8.25l6-2c-.4-1.6-1.83-4.83-2.5-6.25l-1-1.75z" fill="#E679AD"/></svg>