<svg width="78" height="133" fill="none" xmlns="http://www.w3.org/2000/svg"><path d="M1 86c.43-6.86 2.67-13.93 5.09-16 10.9 4.67 11.8 57.85 8.41 56.5-11-4.36-5.69-11.89-8.41-15-2.72-3.11-4.7-5.88-3.59-12C3.5 94 .5 94 1 86zm59.56 39.52c14.4-20.4 13-45.17 10.5-55-1.34-8.5-30 6.5-33 16-2.4 7.6 1 29.16 3 39h19.5z" fill="#FFBD86"/><path d="M14.1 126.52c-14.4-20.4-13-45.17-10.5-55 1.33-8.5 30 6.5 33 16 2.4 7.6-1 29.16-3 39H14.1z" fill="#FFBD86"/><path d="M17.8 97.45a1.5 1.5 0 10.37 2.97l-.36-2.97zm19.74-17.1c.32 1.81 0 5.5-2.67 9.02-2.63 3.47-7.68 6.93-17.06 8.08l.36 2.97c10-1.22 15.86-4.98 19.09-9.23 3.2-4.21 3.7-8.75 3.23-11.36l-2.95.52z" fill="#E59157"/><path d="M55.42 98.16a1.5 1.5 0 11-.25 3l.25-3zM39.8 86.26c-.22 1.25.12 3.9 2.3 6.42 2.13 2.47 6.13 4.9 13.32 5.48l-.25 3c-7.78-.65-12.58-3.33-15.34-6.52-2.72-3.14-3.38-6.7-2.99-8.9l2.96.52z" fill="#E59157"/><path d="M63.73 10h-52c7.6 22.8 1.17 42.17-3 49 22.4 11.6 48.34 6.17 58.5 2-12-20.4-7.33-42.5-3.5-51z" fill="#FFBD86"/><path d="M72.23 59.5c-10.4-18.4-6-40.83-2.5-49.5h-6c-4.16 8.83-9.4 32.1 3 52.5s.17 50.5-6 63h6c5-7 18.5-43 5.5-66z" fill="#E59157"/><path d="M3.23 73c.4-3.6 3.84-10.83 5.5-14 23.2 10.4 47.84 5.67 58 2 2 4 6 8 3 8.5-15.86 2.64-28.83 14.67-32.5 21-14-16-28.5-18.33-34-17.5z" fill="#FF93C7"/><path d="M72.23 59.5l-6.21 1.75c1 2 3.88 7.25 3.71 8.25l6-2c-.4-1.6-1.83-4.83-2.5-6.25l-1-1.75z" fill="#E679AD"/><path d="M38 0v133" stroke="#000"/></svg>