<svg width="168" height="118" fill="none" xmlns="http://www.w3.org/2000/svg"><path d="M0 50.5l28.5-47C35.67 7.33 52.4 14.6 56 11c4.5-4.5-18.5 21-15 27s27.5-7.5 26-14c5.33-.17 19 1.6 31 10 15 10.5 51.5 29 48.5 39.5-1.86 6.51-17.38 3.02-31.53-2.36 10.2 6.3 18.18 13.93 14.03 19.86-3.24 4.63-13.46 1.65-23.56-3.06 8.3 6.27 12.04 12.97.06 16.56H103L76.5 93c7.5 9 24 9 19 16-6.8 9.53-23.5-1-25-1L0 50.5z" fill="#FFE4E4"/><path d="M68 2.5C57.6 4.5 43.83 24.67 39 34c0 5.6 5.83 5.67 8 5.5 11.6-1.6 18.83-11 21-15.5 2 0 8.3 1.5 11.5 1.5 4 0 49 29 58 36.5s6-1.5 7.5 0c1.2 1.2 15.5-10.83 22.5-17L140 0c-.83.83-4 2.9-10 4.5s-19.17-.67-25-2c-8-.83-26.6-2-37 0z" fill="#FFACAC"/><rect x="53.22" y="68.13" width="36.99" height="14.91" rx="7.45" transform="rotate(128.43 53.22 68.13)" fill="#FFACAC"/><rect x="65.4" y="82.75" width="32.54" height="14.91" rx="7.45" transform="rotate(128.43 65.4 82.75)" fill="#FFACAC"/><rect x="32.6" y="65.07" width="23.2" height="14.91" rx="7.45" transform="rotate(128.43 32.6 65.07)" fill="#FFACAC"/><rect x="78.08" y="96.14" width="27.19" height="14.91" rx="7.45" transform="rotate(128.43 78.08 96.14)" fill="#FFACAC"/></svg>