<svg xmlns="http://www.w3.org/2000/svg" xmlns:xlink="http://www.w3.org/1999/xlink"><defs>
<filter id="filter0_d" x="0" y="0" width="44.6455" height="49" filterUnits="userSpaceOnUse" color-interpolation-filters="sRGB">
<feFlood flood-opacity="0" result="BackgroundImageFix"/>
<feColorMatrix in="SourceAlpha" type="matrix" values="0 0 0 0 0 0 0 0 0 0 0 0 0 0 0 0 0 0 127 0"/>
<feOffset dy="4"/>
<feGaussianBlur stdDeviation="2"/>
<feColorMatrix type="matrix" values="0 0 0 0 0 0 0 0 0 0 0 0 0 0 0 0 0 0 0.25 0"/>
<feBlend mode="normal" in2="BackgroundImageFix" result="effect1_dropShadow"/>
<feBlend mode="normal" in="SourceGraphic" in2="effect1_dropShadow" result="shape"/>
</filter>
</defs><symbol id="logo" viewBox="0 0 129 23">
<path d="M0.496094 0.151978V23H3.53609V12.536H15.5681V23H18.6081V0.151978H15.5681V9.97598H3.53609V0.151978H0.496094ZM23.5899 0.151978V23H39.4619V20.44H26.6299V12.536H38.5019V9.97598H26.6299V2.71198H39.3659V0.151978H23.5899ZM43.1524 0.151978V23H58.2883V20.44H46.1924V0.151978H43.1524ZM66.8111 13.656L75.5471 0.151978H72.0911L65.4031 11.032L58.5551 0.151978H54.9391L63.7711 13.656V23H66.8111V13.656ZM78.1211 0.151978V23H81.1611V12.536H91.6571V9.97598H81.1611V2.71198H93.1291V0.151978H78.1211ZM96.4961 0.151978V23H111.632V20.44H99.5361V0.151978H96.4961ZM120.155 13.656L128.891 0.151978H125.435L118.747 11.032L111.899 0.151978H108.283L117.115 13.656V23H120.155V13.656Z" fill="black"/>
</symbol><symbol id="svg-sprite-temp"><symbol id="calendar" viewBox="0 0 15 15">
<path fill-rule="evenodd" clip-rule="evenodd" d="M13.6714 1.47139H11.7892V0.603433C11.7892 0.488847 11.7437 0.378953 11.6626 0.297928C11.5816 0.216903 11.4717 0.171387 11.3572 0.171387C11.2426 0.171387 11.1327 0.216903 11.0517 0.297928C10.9707 0.378953 10.9251 0.488847 10.9251 0.603433V1.47139H8.31777V0.603433C8.31777 0.488847 8.27223 0.378953 8.19121 0.297928C8.1102 0.216903 8.0003 0.171387 7.88573 0.171387C7.77115 0.171387 7.66126 0.216903 7.58025 0.297928C7.49923 0.378953 7.45368 0.488847 7.45368 0.603433V1.47139H4.84634V0.603433C4.84634 0.488847 4.8008 0.378953 4.71978 0.297928C4.63877 0.216903 4.52887 0.171387 4.4143 0.171387C4.29973 0.171387 4.18983 0.216903 4.10882 0.297928C4.0278 0.378953 3.98225 0.488847 3.98225 0.603433V1.47139H2.10001C1.79312 1.47139 1.49888 1.59332 1.28188 1.81035C1.06487 2.02738 0.942871 2.32173 0.942871 2.62866V12.8998C0.942871 13.2068 1.06487 13.5011 1.28188 13.7181C1.49888 13.9352 1.79312 14.0571 2.10001 14.0571H13.6714C13.9783 14.0571 14.2726 13.9352 14.4896 13.7181C14.7066 13.5011 14.8286 13.2068 14.8286 12.8998V2.62866C14.8286 2.32173 14.7066 2.02738 14.4896 1.81035C14.2726 1.59332 13.9783 1.47139 13.6714 1.47139ZM13.957 12.8998C13.9576 12.9377 13.9507 12.9752 13.9366 13.0104C13.9225 13.0455 13.9014 13.0775 13.8748 13.1044C13.8483 13.1313 13.8167 13.1527 13.7818 13.1673C13.7469 13.1818 13.7093 13.1893 13.6714 13.1891H2.10001C2.02281 13.1896 1.94855 13.1593 1.8936 13.1051C1.83864 13.0509 1.80757 12.977 1.80696 12.8998V2.62866C1.80757 2.55145 1.83864 2.47763 1.8936 2.42339C1.94855 2.36916 2.02281 2.33893 2.10001 2.33934H3.98225V3.20729C3.98225 3.32188 4.0278 3.43177 4.10882 3.5128C4.18983 3.59382 4.29973 3.63934 4.4143 3.63934C4.52887 3.63934 4.63877 3.59382 4.71978 3.5128C4.8008 3.43177 4.84634 3.32188 4.84634 3.20729V2.33934H7.45368V3.20729C7.45368 3.32188 7.49923 3.43177 7.58025 3.5128C7.66126 3.59382 7.77115 3.63934 7.88573 3.63934C8.0003 3.63934 8.1102 3.59382 8.19121 3.5128C8.27223 3.43177 8.31777 3.32188 8.31777 3.20729V2.33934H10.9251V3.20729C10.9251 3.32188 10.9707 3.43177 11.0517 3.5128C11.1327 3.59382 11.2426 3.63934 11.3572 3.63934C11.4717 3.63934 11.5816 3.59382 11.6626 3.5128C11.7437 3.43177 11.7892 3.32188 11.7892 3.20729V2.33934H13.6714C13.7093 2.33923 13.7469 2.34667 13.7818 2.36122C13.8167 2.37577 13.8483 2.39714 13.8748 2.42408C13.9014 2.45102 13.9225 2.48299 13.9366 2.51812C13.9507 2.55324 13.9576 2.59082 13.957 2.62866V12.8998ZM3.98225 5.37757H5.71797V6.67911H3.98225V5.37757ZM3.98225 7.54706H5.71797V8.84938H3.98225V7.54706ZM3.98225 9.71733H5.71797V11.0189H3.98225V9.71733ZM7.0141 9.71733H8.74982V11.0189H7.0141V9.71733ZM7.0141 7.54706H8.74982V8.84938H7.0141V7.54706ZM7.0141 5.37757H8.74982V6.67911H7.0141V5.37757ZM10.0535 9.71733H11.7892V11.0189H10.0535V9.71733ZM10.0535 7.54706H11.7892V8.84938H10.0535V7.54706ZM10.0535 5.37757H11.7892V6.67911H10.0535V5.37757Z" fill="#83888A"/></symbol>
<symbol id="calendar--colored" viewBox="0 0 15 15">
<path fill-rule="evenodd" clip-rule="evenodd" d="M13.6714 1.47139H11.7892V0.603433C11.7892 0.488847 11.7437 0.378953 11.6626 0.297928C11.5816 0.216903 11.4717 0.171387 11.3572 0.171387C11.2426 0.171387 11.1327 0.216903 11.0517 0.297928C10.9707 0.378953 10.9251 0.488847 10.9251 0.603433V1.47139H8.31777V0.603433C8.31777 0.488847 8.27223 0.378953 8.19121 0.297928C8.1102 0.216903 8.0003 0.171387 7.88573 0.171387C7.77115 0.171387 7.66126 0.216903 7.58025 0.297928C7.49923 0.378953 7.45368 0.488847 7.45368 0.603433V1.47139H4.84634V0.603433C4.84634 0.488847 4.8008 0.378953 4.71978 0.297928C4.63877 0.216903 4.52887 0.171387 4.4143 0.171387C4.29973 0.171387 4.18983 0.216903 4.10882 0.297928C4.0278 0.378953 3.98225 0.488847 3.98225 0.603433V1.47139H2.10001C1.79312 1.47139 1.49888 1.59332 1.28188 1.81035C1.06487 2.02738 0.942871 2.32173 0.942871 2.62866V12.8998C0.942871 13.2068 1.06487 13.5011 1.28188 13.7181C1.49888 13.9352 1.79312 14.0571 2.10001 14.0571H13.6714C13.9783 14.0571 14.2726 13.9352 14.4896 13.7181C14.7066 13.5011 14.8286 13.2068 14.8286 12.8998V2.62866C14.8286 2.32173 14.7066 2.02738 14.4896 1.81035C14.2726 1.59332 13.9783 1.47139 13.6714 1.47139ZM13.957 12.8998C13.9576 12.9377 13.9507 12.9752 13.9366 13.0104C13.9225 13.0455 13.9014 13.0775 13.8748 13.1044C13.8483 13.1313 13.8167 13.1527 13.7818 13.1673C13.7469 13.1818 13.7093 13.1893 13.6714 13.1891H2.10001C2.02281 13.1896 1.94855 13.1593 1.8936 13.1051C1.83864 13.0509 1.80757 12.977 1.80696 12.8998V2.62866C1.80757 2.55145 1.83864 2.47763 1.8936 2.42339C1.94855 2.36916 2.02281 2.33893 2.10001 2.33934H3.98225V3.20729C3.98225 3.32188 4.0278 3.43177 4.10882 3.5128C4.18983 3.59382 4.29973 3.63934 4.4143 3.63934C4.52887 3.63934 4.63877 3.59382 4.71978 3.5128C4.8008 3.43177 4.84634 3.32188 4.84634 3.20729V2.33934H7.45368V3.20729C7.45368 3.32188 7.49923 3.43177 7.58025 3.5128C7.66126 3.59382 7.77115 3.63934 7.88573 3.63934C8.0003 3.63934 8.1102 3.59382 8.19121 3.5128C8.27223 3.43177 8.31777 3.32188 8.31777 3.20729V2.33934H10.9251V3.20729C10.9251 3.32188 10.9707 3.43177 11.0517 3.5128C11.1327 3.59382 11.2426 3.63934 11.3572 3.63934C11.4717 3.63934 11.5816 3.59382 11.6626 3.5128C11.7437 3.43177 11.7892 3.32188 11.7892 3.20729V2.33934H13.6714C13.7093 2.33923 13.7469 2.34667 13.7818 2.36122C13.8167 2.37577 13.8483 2.39714 13.8748 2.42408C13.9014 2.45102 13.9225 2.48299 13.9366 2.51812C13.9507 2.55324 13.9576 2.59082 13.957 2.62866V12.8998ZM3.98225 5.37757H5.71797V6.67911H3.98225V5.37757ZM3.98225 7.54706H5.71797V8.84938H3.98225V7.54706ZM3.98225 9.71733H5.71797V11.0189H3.98225V9.71733ZM7.0141 9.71733H8.74982V11.0189H7.0141V9.71733ZM7.0141 7.54706H8.74982V8.84938H7.0141V7.54706ZM7.0141 5.37757H8.74982V6.67911H7.0141V5.37757ZM10.0535 9.71733H11.7892V11.0189H10.0535V9.71733ZM10.0535 7.54706H11.7892V8.84938H10.0535V7.54706ZM10.0535 5.37757H11.7892V6.67911H10.0535V5.37757Z" fill="#FC9B09"/>
</symbol><symbol id="camera" viewBox="0 0 35 28">
  <path d="M34 11H1V21.5H17.5H33.75L34.25 15.7826L34 11Z" fill="#FC9B09"/>
  <path d="M0.671875 21.9329V25.9776C0.671875 26.7225 1.27521 27.3258 2.02011 27.3258H32.4903C33.2352 27.3258 33.8385 26.7225 33.8385 25.9776V21.9329H0.671875Z" fill="white"/>
  <path d="M32.4903 5.75427H24.6705L22.3468 1.1069C22.1183 0.649851 21.6511 0.361328 21.1408 0.361328H13.3696C12.8593 0.361328 12.3921 0.649851 12.1636 1.1069L9.83988 5.75427H7.41306V4.40604C7.41306 3.66114 6.80972 3.0578 6.06482 3.0578H4.71658C3.97168 3.0578 3.36835 3.66114 3.36835 4.40604V5.75427H2.02011C1.27521 5.75427 0.671875 6.35761 0.671875 7.10251V11.1472H33.8385V7.10251C33.8385 6.35761 33.2352 5.75427 32.4903 5.75427Z" fill="white"/>
  <path d="M25.5 17C25.5 21.6846 21.7613 25 17.2162 25C12.6703 25 9.86486 20.5377 9 16.5C9 11.8154 12.9549 8.5 17.5 8.5C22.0459 8.5 25.5 12.3164 25.5 17Z" fill="#57555C"/>
  <path d="M17.5 12C19.9812 12 22 14.0188 22 16.5C22 18.9812 19.9812 21 17.5 21C15.0188 21 13 18.9812 13 16.5C13 14.0188 15.0188 12 17.5 12Z" fill="white"/>
  <path d="M26.5 9C26.776 9 27 8.552 27 8C27 7.448 26.776 7 26.5 7C26.224 7 26 7.448 26 8C26 8.552 26.224 9 26.5 9Z" fill="#37373F"/>
  <path d="M32.9492 5.33333H25.442L23.2746 1.1058C22.9248 0.423733 22.2219 0 21.4402 0H13.5598C12.7779 0 12.0751 0.423733 11.7254 1.10587L9.55801 5.33333H8.20312V4.66667C8.20312 3.56387 7.28314 2.66667 6.15234 2.66667H4.78516C3.65436 2.66667 2.73438 3.56387 2.73438 4.66667V5.33333H2.05078C0.91998 5.33333 0 6.23053 0 7.33333C0 9.145 0 25.2953 0 26C0 27.1028 0.91998 28 2.05078 28H32.9492C34.08 28 35 27.1028 35 26C35 24.1883 35 8.03807 35 7.33333C35 6.23053 34.08 5.33333 32.9492 5.33333ZM1.36719 11.9933H10.0113C9.1028 13.3774 8.61328 14.9995 8.61328 16.6667C8.61328 18.334 9.10287 19.9495 10.0112 21.3333H1.36719V11.9933ZM9.98047 16.6667C9.98047 12.5863 13.3841 9.33333 17.5 9.33333C21.6107 9.33333 25.0195 12.5813 25.0195 16.6667C25.0195 20.7475 21.6154 24 17.5 24C13.3809 24 9.98047 20.7439 9.98047 16.6667ZM26.3867 16.6667C26.3867 14.9994 25.8972 13.3841 24.9887 12H33.6328V21.3333H24.9887C25.8972 19.9493 26.3867 18.3339 26.3867 16.6667ZM12.9483 1.70213C13.0649 1.47467 13.2992 1.33333 13.5598 1.33333H21.4402C21.7008 1.33333 21.9352 1.47467 22.0518 1.70213L23.9135 5.33333H11.0865L12.9483 1.70213ZM4.10156 4.66667C4.10156 4.29907 4.40822 4 4.78516 4H6.15234C6.52928 4 6.83594 4.29907 6.83594 4.66667V5.33333H4.10156V4.66667ZM2.05078 6.66667C2.67155 6.66667 31.9882 6.66667 32.9492 6.66667C33.3262 6.66667 33.6328 6.96573 33.6328 7.33333V10.6667H23.9103C22.24 8.96853 19.9217 8 17.5 8C15.078 8 12.7595 8.9688 11.0896 10.6667H1.36719V7.33333C1.36719 6.96573 1.67385 6.66667 2.05078 6.66667ZM32.9492 26.6667H2.05078C1.67385 26.6667 1.36719 26.3676 1.36719 26V22.6667H11.0897C12.76 24.3648 15.0784 25.3333 17.5 25.3333C19.922 25.3333 22.2406 24.3645 23.9104 22.6667H33.6328V26C33.6328 26.3676 33.3262 26.6667 32.9492 26.6667Z" fill="#37373F"/>
  <path d="M17.5 23C21.0841 23 24 20.0841 24 16.5C24 12.9159 21.0841 10 17.5 10C13.9159 10 11 12.9159 11 16.5C11 20.0841 13.9159 23 17.5 23ZM17.5 11.4444C20.2876 11.4444 22.5556 13.7124 22.5556 16.5C22.5556 19.2876 20.2876 21.5556 17.5 21.5556C14.7124 21.5556 12.4444 19.2876 12.4444 16.5C12.4444 13.7124 14.7124 11.4444 17.5 11.4444Z" fill="#37373F"/>
  <path d="M14.4661 16.0456C14.7229 16.0881 14.9769 15.8451 15.0336 15.5028C15.2034 14.4776 15.9671 13.7471 16.736 13.8744C16.9927 13.917 17.2468 13.674 17.3035 13.3317C17.3602 12.9894 17.198 12.6774 16.9413 12.6349C15.6598 12.4227 14.387 13.6401 14.104 15.3488C14.0473 15.6911 14.2094 16.003 14.4661 16.0456Z" fill="#5286EC"/>
  <path d="M29.75 9H31.25C31.6641 9 32 8.5523 32 8C32 7.4477 31.6641 7 31.25 7H29.75C29.3359 7 29 7.4477 29 8C29 8.5523 29.3359 9 29.75 9Z" fill="#37373F"/>
</symbol><symbol id="clock" viewBox="0 0 32 32">
  <path d="M25.8099 24.4214C27.825 22.0771 28.9348 19.0864 28.9348 16.0001C28.9348 8.86713 23.1317 3.06396 15.9987 3.06396C8.86567 3.06396 3.0625 8.86713 3.0625 16.0001C3.0625 23.1331 8.86567 28.9363 15.9987 28.9363C19.0849 28.9363 22.0756 27.8265 24.4199 25.8113C24.6312 25.6297 24.9482 25.6516 25.1331 25.8584C25.3834 25.6263 25.6249 25.3848 25.857 25.1346C25.6501 24.9496 25.6282 24.6326 25.8099 24.4214ZM15.488 4.59588C15.488 4.31387 15.7167 4.08524 15.9987 4.08524C16.2807 4.08524 16.5093 4.31387 16.5093 4.59588V6.63843C16.5093 6.92044 16.2807 7.14907 15.9987 7.14907C15.7167 7.14907 15.488 6.92044 15.488 6.63843V4.59588ZM6.63697 16.5108H4.59441C4.31241 16.5108 4.08378 16.2821 4.08378 16.0001C4.08378 15.7181 4.31241 15.4895 4.59441 15.4895H6.63697C6.91898 15.4895 7.14761 15.7181 7.14761 16.0001C7.14761 16.2821 6.91898 16.5108 6.63697 16.5108ZM16.5093 27.4044C16.5093 27.6864 16.2807 27.915 15.9987 27.915C15.7167 27.915 15.488 27.6864 15.488 27.4044V25.3618C15.488 25.0798 15.7167 24.8512 15.9987 24.8512C16.2807 24.8512 16.5093 25.0798 16.5093 25.3618V27.4044ZM24.4238 9.74148L17.8427 16.3226C17.6893 17.2018 16.9211 17.8725 15.9987 17.8725C15.6676 17.8725 15.3566 17.7858 15.0865 17.6344L9.74315 22.9778C9.64347 23.0775 9.51275 23.1274 9.38209 23.1274C9.25144 23.1274 9.12071 23.0776 9.02104 22.9778C8.82161 22.7784 8.82161 22.4551 9.02104 22.2557L14.3644 16.9123C14.2634 16.732 14.1915 16.5334 14.1547 16.3227L9.74001 11.9079C9.54059 11.7085 9.54059 11.3852 9.74001 11.1858L11.1843 9.74155C11.3837 9.54213 11.7071 9.54213 11.9064 9.74155L16.3211 14.1563C16.3428 14.16 16.3644 14.1638 16.3857 14.1684L17.0816 13.4726C16.8823 13.2732 16.8823 12.95 17.0818 12.7506L22.2573 7.57508C22.3531 7.47935 22.483 7.4255 22.6184 7.4255C22.7538 7.4255 22.8837 7.47928 22.9794 7.57508L24.4237 9.01937C24.6232 9.21872 24.6232 9.54206 24.4238 9.74148ZM25.3604 16.5108C25.0784 16.5108 24.8497 16.2821 24.8497 16.0001C24.8497 15.7181 25.0784 15.4895 25.3604 15.4895H27.4029C27.6849 15.4895 27.9136 15.7181 27.9136 16.0001C27.9136 16.2821 27.6849 16.5108 27.4029 16.5108H25.3604Z" fill="white"/>
  <path d="M17.6377 15.088L23.3453 9.38038L22.6231 8.6582L17.8087 13.4727C17.6093 13.6721 17.2859 13.6721 17.0866 13.4727C17.0864 13.4725 16.3906 14.1683 16.3906 14.1683C16.9261 14.2813 17.3777 14.624 17.6377 15.088Z" fill="#C7C7C7"/>
  <path d="M16.0022 1.02148C7.74282 1.02148 1.02344 7.74094 1.02344 16.0002C1.02344 24.2595 7.74282 30.9789 16.0022 30.9789C24.2615 30.9789 30.9809 24.2595 30.9809 16.0002C30.9809 7.74094 24.2615 1.02148 16.0022 1.02148ZM26.5878 25.0872C26.404 25.301 26.0817 25.3254 25.8677 25.1415C25.8651 25.1393 25.8629 25.1368 25.8604 25.1346C25.6283 25.3849 25.3869 25.6264 25.1365 25.8584C25.1388 25.8609 25.1412 25.8631 25.1435 25.8657C25.3273 26.0795 25.303 26.4019 25.0891 26.5858C22.5596 28.7602 19.3325 29.9577 16.0022 29.9577C8.30596 29.9577 2.04471 23.6964 2.04471 16.0002C2.04471 8.30407 8.30596 2.04276 16.0022 2.04276C23.6984 2.04276 29.9596 8.30407 29.9596 16.0002C29.9596 19.3306 28.7622 22.5577 26.5878 25.0872Z" fill="#FC9B09"/>
  <path d="M27.3137 4.6863C24.2917 1.66427 20.2738 0 16 0C11.7262 0 7.70826 1.66427 4.6863 4.6863C1.66427 7.70832 0 11.7262 0 16C0 20.2738 1.66427 24.2917 4.6863 27.3137C7.70826 30.3357 11.7262 32 16 32C20.2738 32 24.2917 30.3357 27.3137 27.3137C30.3357 24.2917 32 20.2738 32 16C32 11.7262 30.3357 7.70832 27.3137 4.6863ZM16 30.9787C7.74066 30.9787 1.02128 24.2593 1.02128 16C1.02128 7.74073 7.74066 1.02128 16 1.02128C24.2593 1.02128 30.9787 7.74073 30.9787 16C30.9787 24.2593 24.2593 30.9787 16 30.9787Z" fill="#37373F"/>
  <path d="M27.9154 15.9999C27.9154 15.7179 27.6868 15.4893 27.4048 15.4893H25.3622C25.0802 15.4893 24.8516 15.7179 24.8516 15.9999C24.8516 16.2819 25.0802 16.5105 25.3622 16.5105H27.4048C27.6868 16.5105 27.9154 16.2819 27.9154 15.9999Z" fill="#082947"/>
  <path d="M22.983 7.57488C22.8872 7.47915 22.7573 7.42529 22.6219 7.42529C22.4865 7.42529 22.3566 7.47908 22.2609 7.57488L17.0853 12.7504C16.8859 12.9498 16.8859 13.273 17.0851 13.4724C17.2847 13.672 17.608 13.672 17.8074 13.4726L22.6218 8.65811L23.344 9.38029L17.6364 15.0879C17.3764 14.6239 16.9248 14.2812 16.3893 14.1681C16.3679 14.1636 16.3462 14.1598 16.3247 14.156L11.9099 9.74128C11.7105 9.54186 11.3872 9.54186 11.1878 9.74128L9.74354 11.1856C9.54412 11.385 9.54412 11.7083 9.74354 11.9077L14.1583 16.3224C14.195 16.533 14.2669 16.7317 14.368 16.9121L9.02457 22.2555C8.82514 22.4549 8.82514 22.7782 9.02457 22.9776C9.12424 23.0772 9.25497 23.1272 9.38562 23.1272C9.51628 23.1272 9.647 23.0773 9.74668 22.9776L15.0901 17.6342C15.3602 17.7855 15.6712 17.8722 16.0022 17.8722C16.9246 17.8722 17.6928 17.2016 17.8462 16.3224L24.4273 9.74128C24.6267 9.54186 24.6267 9.21852 24.4273 9.01917L22.983 7.57488ZM15.0901 14.3657C14.7878 14.535 14.5372 14.7856 14.3679 15.0879L10.8268 11.5468L11.549 10.8246L15.0901 14.3657ZM15.1511 16C15.1511 15.5307 15.5329 15.1489 16.0022 15.1489C16.4715 15.1489 16.8533 15.5307 16.8533 16C16.8533 16.4693 16.4715 16.8511 16.0022 16.8511C15.5329 16.8511 15.1511 16.4693 15.1511 16Z" fill="#37373F"/>
  <path d="M16.0043 2.04248C8.30812 2.04248 2.04688 8.30379 2.04688 15.9999C2.04688 23.6961 8.30812 29.9574 16.0043 29.9574C19.3347 29.9574 22.5618 28.76 25.0913 26.5856C25.3052 26.4018 25.3295 26.0793 25.1456 25.8655C25.1434 25.8629 25.1409 25.8607 25.1387 25.8582C24.9538 25.6514 24.6368 25.6295 24.4255 25.8111C22.0813 27.8263 19.0905 28.9361 16.0043 28.9361C8.87132 28.9361 3.06815 23.1329 3.06815 15.9999C3.06815 8.86692 8.87132 3.06376 16.0043 3.06376C23.1373 3.06376 28.9405 8.86692 28.9405 15.9999C28.9405 19.0862 27.8307 22.0769 25.8155 24.4212C25.6339 24.6324 25.6558 24.9494 25.8626 25.1344C25.8651 25.1366 25.8673 25.1391 25.8699 25.1413C26.0838 25.3251 26.4062 25.3008 26.59 25.087C28.7644 22.5574 29.9618 19.3303 29.9618 15.9999C29.9618 8.30379 23.7005 2.04248 16.0043 2.04248Z" fill="#37373F"/>
</symbol><symbol id="dialog" viewBox="0 0 31 28">
  <path d="M28.093 14.567C29.5287 13.0885 30.3945 11.174 30.3945 9.08203C30.3945 4.40053 25.6943 0.605469 20.3438 0.605469C14.9932 0.605469 10.6562 4.40053 10.6562 9.08203L20.3438 17.5586C21.7732 17.5586 23.4941 17.2873 24.7159 16.801C25.8225 18.0108 27.4145 18.7695 29.1836 18.7695C28.046 17.6319 27.682 16.0123 28.093 14.567Z" fill="#FC9B09"/>
  <path d="M15.6522 10.293C18.466 11.7764 20.3477 14.475 20.3477 17.5586C20.3477 22.2401 16.0107 26.0352 10.6602 26.0352C9.23068 26.0352 7.50983 25.7639 6.28801 25.2776C5.18137 26.4874 3.58942 27.2461 1.82031 27.2461C2.95793 26.1085 3.32192 24.4888 2.91087 23.0435C1.47524 21.5651 0.609375 19.6505 0.609375 17.5586C0.609375 12.8771 5.30956 9.08203 10.6602 9.08203C12.4863 9.08203 14.1948 9.52407 15.6522 10.293Z" fill="white"/>
  <path d="M15.4961 6.05469C15.1619 6.05469 14.8906 6.32597 14.8906 6.66016C14.8906 6.99435 15.1619 7.26562 15.4961 7.26562C15.8303 7.26562 16.1016 6.99435 16.1016 6.66016C16.1016 6.32597 15.8303 6.05469 15.4961 6.05469Z" fill="white"/>
  <path d="M20.3438 0C14.8929 0 10.419 3.75816 10.073 8.49194C4.88183 8.75233 0 12.4956 0 17.5586C0 19.6744 0.83725 21.7245 2.36133 23.3489C2.66288 24.592 2.29676 25.9096 1.38832 26.818C1.21519 26.9911 1.1634 27.2515 1.25706 27.4779C1.35072 27.704 1.57138 27.8516 1.81641 27.8516C3.54317 27.8516 5.20727 27.1744 6.44375 25.9812C7.6483 26.3918 9.21992 26.6406 10.6562 26.6406C16.1064 26.6406 20.5798 22.8834 20.9268 18.1506C22.1945 18.0943 23.513 17.8601 24.5563 17.5047C25.7927 18.6979 27.4568 19.375 29.1836 19.375C29.4286 19.375 29.6493 19.2274 29.7429 19.0013C29.8366 18.775 29.7848 18.5146 29.6117 18.3414C28.7032 17.433 28.3371 16.1154 28.6387 14.8723C30.1628 13.2479 31 11.1979 31 9.08203C31 3.82131 25.7421 0 20.3438 0ZM10.6562 25.4297C9.22725 25.4297 7.59887 25.1492 6.50808 24.7152C6.27441 24.622 6.00739 24.6833 5.83733 24.8689C5.10628 25.6681 4.15574 26.2253 3.12006 26.4815C3.69076 25.3881 3.83645 24.0991 3.48925 22.8777C3.46181 22.7815 3.41096 22.6935 3.34119 22.6218C1.96754 21.207 1.21094 19.4088 1.21094 17.5586C1.21094 13.2919 5.53625 9.6875 10.6562 9.6875C15.491 9.6875 19.7383 13.0495 19.7383 17.5586C19.7383 21.8988 15.6641 25.4297 10.6562 25.4297ZM27.6588 14.1453C27.589 14.2172 27.5382 14.3051 27.5107 14.4012C27.1636 15.6225 27.3092 16.9115 27.8799 18.0049C26.8443 17.749 25.8937 17.1915 25.1627 16.3924C24.9926 16.2069 24.7256 16.1454 24.4919 16.2386C23.5466 16.6147 22.198 16.8751 20.9249 16.938C20.7479 14.6483 19.6058 12.4963 17.6532 10.8984H25.5508C25.8852 10.8984 26.1562 10.6274 26.1562 10.293C26.1562 9.95854 25.8852 9.6875 25.5508 9.6875H15.793C14.4187 8.9879 12.8754 8.57992 11.287 8.4943C11.6349 4.42773 15.5641 1.21094 20.3438 1.21094C25.4637 1.21094 29.7891 4.81537 29.7891 9.08203C29.7891 10.9323 29.0325 12.7305 27.6588 14.1453Z" fill="#37373F"/>
  <path d="M15.5 15.7422H7.87109C7.53667 15.7422 7.26562 16.0132 7.26562 16.3477C7.26562 16.6821 7.53667 16.9531 7.87109 16.9531H15.5C15.8344 16.9531 16.1055 16.6821 16.1055 16.3477C16.1055 16.0132 15.8344 15.7422 15.5 15.7422Z" fill="#C94042"/>
  <path d="M15.5 19.375H5.44922C5.11479 19.375 4.84375 19.646 4.84375 19.9805C4.84375 20.3149 5.11479 20.5859 5.44922 20.5859H15.5C15.8344 20.5859 16.1055 20.3149 16.1055 19.9805C16.1055 19.646 15.8344 19.375 15.5 19.375Z" fill="#37373F"/>
  <path d="M25.5469 6.05469H17.918C17.5835 6.05469 17.3125 6.32573 17.3125 6.66016C17.3125 6.99458 17.5835 7.26562 17.918 7.26562H25.5469C25.8813 7.26562 26.1523 6.99458 26.1523 6.66016C26.1523 6.32573 25.8813 6.05469 25.5469 6.05469Z" fill="white"/>
</symbol><symbol id="facebook" viewBox="0 0 27 26">
<path fill-rule="evenodd" clip-rule="evenodd" d="M24.689 25.494H17.6489V16.703H22.0488V12.308H17.6489V9.67C17.6505 9.43719 17.744 9.21437 17.9087 9.04984C18.0734 8.8853 18.296 8.79231 18.5288 8.791H22.4888V4.39099H18.0889C16.7682 4.50233 15.5381 5.10693 14.6431 6.08443C13.748 7.06193 13.2536 8.34064 13.2588 9.666V12.304H9.73877V16.698H13.2588V25.49H2.70898C2.24262 25.4892 1.79568 25.3037 1.46582 24.974C1.13596 24.6443 0.950276 24.1974 0.949219 23.731V1.758C0.95054 1.29181 1.13599 0.845116 1.46582 0.515656C1.79566 0.186195 2.24279 0.000791421 2.70898 0H24.689C25.1536 0.00290161 25.5985 0.189296 25.9263 0.518585C26.2541 0.847875 26.4382 1.29337 26.439 1.758V23.735C26.4384 24.1998 26.2541 24.6455 25.9263 24.9751C25.5984 25.3046 25.1538 25.4911 24.689 25.494Z" fill="#4A68AD"/>
</symbol><symbol id="heart" viewBox="0 0 31 27">
<path d="M3.52914 16.9207L3.52789 16.919C1.89742 14.7951 0.746534 12.2822 0.531249 9.67392C0.149029 4.93272 3.26968 0.5 8.2286 0.5C11.1675 0.5 13.7282 2.08465 15.091 4.46163L15.5303 5.22778L15.9612 4.45692C17.272 2.11224 19.8534 0.524782 22.7959 0.524782C27.7768 0.524782 30.8506 4.95387 30.4683 9.69822C30.2535 12.3031 29.0801 14.7918 27.4701 16.921C25.5662 19.4143 23.1651 21.387 20.5837 23.2087L20.5782 23.2125L20.5522 23.2306L20.4522 23.2999L20.0845 23.5549L18.8722 24.396C17.926 25.0526 16.8016 25.8333 16.0891 26.3291C15.7662 26.5532 15.3164 26.5618 14.9555 26.3257C14.242 25.8291 13.1138 25.0502 12.1636 24.3951C11.6872 24.0667 11.2553 23.7692 10.9425 23.5539L10.5719 23.2989L10.4711 23.2295L10.4449 23.2115L10.4384 23.207C7.85549 21.384 5.40655 19.3872 3.52914 16.9207Z" fill="#FC9B09" stroke="#FC9B09"/>
</symbol><symbol id="instagram" viewBox="0 0 26 26">
<path fill-rule="evenodd" clip-rule="evenodd" d="M23.3789 0H2.98877C2.3132 0.00237184 1.66618 0.271792 1.18848 0.749496C0.710772 1.2272 0.441337 1.87442 0.438965 2.54999V22.947C0.441337 23.6226 0.710772 24.2698 1.18848 24.7475C1.66618 25.2252 2.3132 25.4946 2.98877 25.497H23.3789C24.055 25.4962 24.7031 25.2273 25.1812 24.7492C25.6592 24.2712 25.9284 23.623 25.9292 22.947V2.547C25.9279 1.87138 25.6587 1.22385 25.1807 0.746399C24.7026 0.268944 24.0545 0.000528187 23.3789 0ZM13.189 7.64799C14.1976 7.64799 15.1838 7.9471 16.0225 8.50749C16.8612 9.06789 17.5149 9.86441 17.9009 10.7963C18.2869 11.7282 18.3877 12.7536 18.1909 13.743C17.9941 14.7323 17.5087 15.641 16.7954 16.3542C16.0822 17.0675 15.1734 17.5532 14.1841 17.75C13.1948 17.9468 12.1692 17.8458 11.2373 17.4598C10.3054 17.0738 9.50913 16.4201 8.94873 15.5814C8.38834 14.7427 8.08887 13.7567 8.08887 12.748C8.09098 11.396 8.62901 10.0999 9.58496 9.14374C10.5409 8.1876 11.8369 7.64937 13.189 7.64699V7.64799ZM3.62891 22.948C3.5436 22.9539 3.45804 22.9415 3.37793 22.9116C3.29782 22.8817 3.22515 22.835 3.16455 22.7747C3.10395 22.7144 3.05664 22.6418 3.02637 22.5618C2.9961 22.4818 2.98329 22.3963 2.98877 22.311V11.472H5.66895C5.56152 11.888 5.51781 12.3179 5.53906 12.747C5.53906 14.7746 6.3446 16.7191 7.77832 18.1528C9.21204 19.5865 11.1565 20.392 13.1841 20.392C15.2117 20.392 17.1561 19.5865 18.5898 18.1528C20.0236 16.7191 20.8291 14.7746 20.8291 12.747C20.8487 12.3185 20.8082 11.8893 20.709 11.472H23.3789V22.307C23.3842 22.3914 23.372 22.476 23.3423 22.5553C23.3126 22.6345 23.266 22.7066 23.2065 22.7667C23.147 22.8269 23.076 22.8738 22.9971 22.9043C22.9182 22.9349 22.8335 22.9484 22.749 22.944H3.62891V22.948ZM23.3789 5.73999C23.3842 5.82443 23.372 5.90905 23.3423 5.98828C23.3126 6.06751 23.266 6.13957 23.2065 6.19972C23.147 6.25988 23.076 6.30677 22.9971 6.33733C22.9182 6.36788 22.8335 6.3814 22.749 6.377H20.1992C20.1139 6.38287 20.0279 6.37044 19.9478 6.34055C19.8676 6.31065 19.795 6.26399 19.7344 6.20367C19.6738 6.14335 19.6269 6.07078 19.5967 5.99081C19.5664 5.91085 19.5536 5.82532 19.5591 5.73999V3.18999C19.5538 3.10474 19.5668 3.01935 19.5972 2.9395C19.6275 2.85965 19.6743 2.7872 19.7349 2.72699C19.7955 2.66678 19.8682 2.6202 19.9482 2.59036C20.0283 2.56053 20.114 2.54814 20.1992 2.554H22.749C22.8334 2.54962 22.9178 2.5631 22.9966 2.5936C23.0754 2.62409 23.1471 2.6709 23.2065 2.73094C23.266 2.79099 23.3121 2.86292 23.3418 2.94203C23.3715 3.02114 23.3841 3.10563 23.3789 3.18999V5.73999Z" fill="#37373F"/>
</symbol><symbol id="logo" viewBox="0 0 129 23">
<path d="M0.496094 0.151978V23H3.53609V12.536H15.5681V23H18.6081V0.151978H15.5681V9.97598H3.53609V0.151978H0.496094ZM23.5899 0.151978V23H39.4619V20.44H26.6299V12.536H38.5019V9.97598H26.6299V2.71198H39.3659V0.151978H23.5899ZM43.1524 0.151978V23H58.2883V20.44H46.1924V0.151978H43.1524ZM66.8111 13.656L75.5471 0.151978H72.0911L65.4031 11.032L58.5551 0.151978H54.9391L63.7711 13.656V23H66.8111V13.656ZM78.1211 0.151978V23H81.1611V12.536H91.6571V9.97598H81.1611V2.71198H93.1291V0.151978H78.1211ZM96.4961 0.151978V23H111.632V20.44H99.5361V0.151978H96.4961ZM120.155 13.656L128.891 0.151978H125.435L118.747 11.032L111.899 0.151978H108.283L117.115 13.656V23H120.155V13.656Z" fill="black"/>
</symbol><symbol id="map-pin" viewBox="0 0 31 31">
<path d="M23.62 8.11996C23.62 3.63509 19.9849 0 15.4994 0C11.0138 0 7.37939 3.63509 7.37939 8.11996C7.37939 14.5455 15.4994 24.0539 15.4994 24.0539C15.4994 24.0539 23.62 14.5125 23.62 8.11996ZM11.4948 7.63511C11.4948 5.42281 13.2884 3.6299 15.5 3.6299C17.7116 3.6299 19.5052 5.42281 19.5052 7.63511C19.5052 9.8474 17.7116 11.6403 15.5 11.6403C13.2884 11.6403 11.4948 9.8474 11.4948 7.63511Z" fill="#37373F"/>
<path d="M15.4986 9.60446C16.5862 9.60446 17.4679 8.72281 17.4679 7.63524C17.4679 6.54767 16.5862 5.66602 15.4986 5.66602C14.4111 5.66602 13.5294 6.54767 13.5294 7.63524C13.5294 8.72281 14.4111 9.60446 15.4986 9.60446Z" fill="#C94042"/>
<path d="M20.0902 21.229C19.4284 22.1857 18.8074 23.0187 18.2902 23.6876C23.4213 23.9962 26.7841 25.1039 28.0351 25.9278C26.5696 26.8942 22.215 28.2529 15.5003 28.2529C8.7863 28.2529 4.43107 26.8936 2.9655 25.9278C4.21652 25.1039 7.57677 23.9968 12.7027 23.6883C12.1841 23.0193 11.5625 22.187 10.9001 21.2303C4.58599 21.8519 0 23.72 0 25.9271C0 28.6431 6.94024 30.8456 15.5003 30.8456C24.0611 30.8456 31 28.6444 31 25.9271C31.0013 23.7187 26.4101 21.85 20.0902 21.229Z" fill="#37373F"/>
</symbol><symbol id="money" viewBox="0 0 31 20">
<path d="M24.8516 6.27749C24.8516 4.23792 23.1996 2.58594 21.1601 2.58594C19.1205 2.58594 17.4685 4.23792 17.4685 6.27749C17.4685 8.31705 19.1205 9.96904 21.1601 9.96904C23.1996 9.96904 24.8516 8.31705 24.8516 6.27749ZM20.9567 8.79994C20.8551 8.79994 20.8042 8.74276 20.8042 8.6411C20.8042 8.5585 20.8042 8.48225 20.8042 8.39965C20.8042 8.22175 20.7979 8.21539 20.6263 8.18998C20.4103 8.15821 20.2006 8.10738 19.9973 8.01207C19.8448 7.93583 19.8258 7.8977 19.8702 7.73251C19.902 7.61178 19.9338 7.49106 19.9719 7.37034C20.0164 7.23056 20.0545 7.21149 20.1816 7.28139C20.3976 7.39575 20.6327 7.45929 20.8741 7.49106C21.033 7.51012 21.1855 7.49742 21.3316 7.43388C21.6048 7.31316 21.6429 7.00182 21.4142 6.81121C21.338 6.74767 21.249 6.69684 21.1537 6.65871C20.9186 6.55705 20.6645 6.47445 20.4421 6.34103C20.0799 6.125 19.8448 5.82002 19.8702 5.3816C19.902 4.87965 20.1816 4.56832 20.6454 4.39677C20.836 4.32688 20.836 4.33323 20.836 4.12991C20.836 4.06002 20.836 3.99648 20.836 3.92659C20.8424 3.7741 20.8678 3.74868 21.0139 3.74868C21.0584 3.74868 21.1092 3.74868 21.1537 3.74868C21.4714 3.74868 21.4714 3.74868 21.4714 4.06637C21.4714 4.28875 21.4714 4.28875 21.6938 4.32687C21.8653 4.35229 22.0305 4.40312 22.1894 4.47301C22.2783 4.51113 22.3101 4.57467 22.2847 4.66363C22.2466 4.80341 22.2084 4.93684 22.164 5.07662C22.1195 5.2037 22.0814 5.22276 21.9606 5.16557C21.7128 5.04485 21.4523 4.99402 21.1791 5.01308C21.1092 5.01944 21.0393 5.02579 20.9694 5.05756C20.7344 5.15922 20.6962 5.41973 20.8932 5.58492C20.9949 5.66752 21.1092 5.72471 21.23 5.77554C21.4396 5.86449 21.6493 5.94709 21.8463 6.0551C22.4816 6.40456 22.6532 7.19879 22.2021 7.74521C22.0432 7.94218 21.8336 8.07561 21.5858 8.13915C21.4777 8.17092 21.4333 8.22175 21.4333 8.33611C21.4396 8.44413 21.4333 8.55214 21.4333 8.66016C21.4333 8.75546 21.3824 8.81265 21.2871 8.81265C21.1918 8.8063 21.0711 8.8063 20.9567 8.79994Z" fill="#FC9B09"/>
<path d="M15.7965 7.48488C16.3615 7.48488 16.8195 7.02689 16.8195 6.46192C16.8195 5.89696 16.3615 5.43896 15.7965 5.43896C15.2316 5.43896 14.7736 5.89696 14.7736 6.46192C14.7736 7.02689 15.2316 7.48488 15.7965 7.48488Z" fill="#37373F"/>
<path d="M26.542 7.48488C27.107 7.48488 27.565 7.02689 27.565 6.46192C27.565 5.89696 27.107 5.43896 26.542 5.43896C25.977 5.43896 25.519 5.89696 25.519 6.46192C25.519 7.02689 25.977 7.48488 26.542 7.48488Z" fill="#37373F"/>
<path d="M29.3231 0.25415H13.2416C12.314 0.25415 11.5579 1.01025 11.5579 1.9379V7.55465C11.8057 7.54195 12.0535 7.53559 12.3076 7.53559C12.5427 7.53559 12.7714 7.54195 13.0002 7.55465V3.76144C13.1336 3.79321 13.2734 3.81227 13.4195 3.81227C14.3599 3.81227 15.1287 3.04982 15.1287 2.1031C15.1287 1.95697 15.1096 1.81718 15.0779 1.68375H27.6012C27.5821 1.78541 27.5694 1.89343 27.5694 1.99509C27.5694 2.93545 28.3319 3.70426 29.2786 3.70426C29.3802 3.70426 29.4819 3.69155 29.5772 3.67884V8.85718C29.4819 8.83812 29.3802 8.83177 29.2786 8.83177C28.3382 8.83177 27.5694 9.59422 27.5694 10.5409C27.5694 10.6489 27.5821 10.7506 27.6012 10.8523H18.6233C18.6233 10.8904 18.6233 10.9285 18.6233 10.9666C18.6233 10.9857 18.6233 10.9984 18.6233 11.0175V12.2946H29.3167C30.2444 12.2946 31.0005 11.5385 31.0005 10.6108V1.9379C31.0068 1.01025 30.2507 0.25415 29.3231 0.25415Z" fill="#37373F"/>
<path d="M1.71552 8.48231C2.64318 8.83177 3.86946 9.02238 5.16563 9.02238C5.85184 9.02238 6.51899 8.9652 7.12895 8.86354C7.4657 8.60939 7.89776 8.36794 8.45054 8.16462C9.00332 7.9613 9.64505 7.80246 10.3313 7.7008V6.7795C10.3313 6.76679 10.3313 6.75408 10.3313 6.74137C10.3313 6.73502 10.3313 6.72231 10.3313 6.71596V4.55567C10.3313 4.54296 10.3313 4.53025 10.3313 4.51755C10.3313 4.51119 10.3313 4.49848 10.3313 4.49213V2.33184C10.3313 2.31913 10.3313 2.30643 10.3313 2.29372C10.3313 1.79177 10.0326 1.08014 8.61574 0.546426C7.68809 0.190614 6.46181 0 5.16563 0C3.86946 0 2.64318 0.190614 1.71552 0.540072C0.298628 1.06744 0 1.77906 0 2.28736V4.48578C0 4.49213 0 4.50484 0 4.51119V6.7096C0 6.71596 0 6.72867 0 6.73502V6.76043V8.93343V8.95885C0 8.9652 0 8.97791 0 8.98426V11.1827C0 11.189 0 11.2017 0 11.2081V13.4065C0 13.9084 0.298628 14.6201 1.71552 15.1538C2.64318 15.5033 3.86946 15.6939 5.16563 15.6939C5.4452 15.6939 5.71841 15.6875 5.99163 15.6684V15.4524V15.427C5.99163 15.4207 5.99163 15.4207 5.99163 15.4143C5.99163 15.4079 5.99163 15.4016 5.99163 15.4016V14.5311C5.72477 14.5502 5.4452 14.5629 5.16563 14.5629C4.00289 14.5629 2.91639 14.3977 2.11581 14.0991C1.32159 13.8004 1.13733 13.5018 1.13733 13.4256V12.7076C1.30253 12.7965 1.49949 12.8791 1.71552 12.9617C2.64318 13.3112 3.86946 13.5018 5.16563 13.5018C5.4452 13.5018 5.71841 13.4955 5.99163 13.4764V13.2032C5.99163 13.1968 5.99163 13.1968 5.99163 13.1905C5.99163 13.1841 5.99163 13.1778 5.99163 13.1778V12.3073C5.72477 12.3264 5.4452 12.3391 5.16563 12.3391C4.00289 12.3391 2.91639 12.1739 2.11581 11.8752C1.32159 11.5766 1.13733 11.278 1.13733 11.2017V10.4901C1.30253 10.5791 1.49949 10.6617 1.71552 10.7443C2.64318 11.0937 3.86946 11.2843 5.16563 11.2843C5.4452 11.2843 5.71841 11.278 5.99163 11.2589V10.9857C5.99163 10.7316 6.02975 10.4012 6.18224 10.0453C5.85184 10.0771 5.51509 10.0898 5.16563 10.0898C4.00289 10.0898 2.91639 9.92462 2.11581 9.62599C1.32159 9.32736 1.13733 9.02874 1.13733 8.95249V8.24087C1.30888 8.31076 1.49949 8.39971 1.71552 8.48231ZM2.11581 1.60751C2.92274 1.30888 4.00924 1.14368 5.16563 1.14368C6.32838 1.14368 7.41487 1.30888 8.21545 1.60751C8.98426 1.89343 9.17487 2.17935 9.18758 2.27466V2.29372C9.17487 2.38903 8.98426 2.67495 8.21545 2.96087C7.40852 3.25949 6.32202 3.42469 5.16563 3.42469C4.00289 3.42469 2.91639 3.25949 2.11581 2.96087C1.32159 2.66224 1.13733 2.36361 1.13733 2.28736C1.13733 2.21112 1.32159 1.89978 2.11581 1.60751ZM1.13733 3.7678C1.30253 3.85675 1.49949 3.93935 1.71552 4.02195C2.64318 4.37141 3.86946 4.56202 5.16563 4.56202C6.46181 4.56202 7.68809 4.37141 8.61574 4.02195C8.83177 3.93935 9.02238 3.85675 9.19394 3.7678V4.47942V4.48578C9.18123 4.58108 8.99061 4.867 8.22181 5.15292C7.41487 5.45155 6.32838 5.61675 5.17199 5.61675C4.00924 5.61675 2.92274 5.45155 2.12217 5.15292C1.32794 4.8543 1.14368 4.55567 1.14368 4.47942V3.7678H1.13733ZM1.13733 5.99798C1.30253 6.08693 1.49949 6.16953 1.71552 6.25213C2.64318 6.60159 3.86946 6.7922 5.16563 6.7922C6.46181 6.7922 7.68809 6.60159 8.61574 6.25213C8.83177 6.16953 9.02238 6.08693 9.19394 5.99798V6.7096V6.71596C9.18123 6.81126 8.99061 7.09719 8.22181 7.38311C7.41487 7.68173 6.32838 7.84693 5.17199 7.84693C4.00924 7.84693 2.92274 7.68173 2.12217 7.38311C1.32794 7.08448 1.14368 6.78585 1.14368 6.7096V5.99798H1.13733Z" fill="#FC9B09"/>
<path d="M15.7559 9.22562C14.8282 8.87616 13.6019 8.68555 12.3058 8.68555C11.0096 8.68555 9.78331 8.87616 8.85566 9.22562C7.43876 9.75298 7.14014 10.4646 7.14014 10.9729V13.1713C7.14014 13.1777 7.14014 13.1904 7.14014 13.1967V15.3952C7.14014 15.4015 7.14014 15.4142 7.14014 15.4206V15.446V17.619V17.6444C7.14014 18.1463 7.43876 18.858 8.85566 19.3917C9.78331 19.7411 11.0096 19.9318 12.3058 19.9318C13.6019 19.9318 14.8282 19.7411 15.7559 19.3917C17.1728 18.8643 17.4714 18.1527 17.4714 17.6444V17.619V15.4587C17.4714 15.446 17.4714 15.4333 17.4714 15.4206C17.4714 15.4142 17.4714 15.4015 17.4714 15.3952V13.2349C17.4714 13.2222 17.4714 13.2094 17.4714 13.1967C17.4714 13.1904 17.4714 13.1777 17.4714 13.1713V11.011C17.4714 10.9983 17.4714 10.9856 17.4714 10.9729C17.4778 10.471 17.1791 9.75934 15.7559 9.22562ZM9.25595 10.2994C10.0629 10.0008 11.1494 9.83558 12.3058 9.83558C13.4685 9.83558 14.555 10.0008 15.3556 10.2994C16.1244 10.5853 16.3214 10.8713 16.3277 10.9666V10.9856C16.315 11.0809 16.1244 11.3668 15.3556 11.6528C14.5487 11.9514 13.4622 12.1166 12.3058 12.1166C11.143 12.1166 10.0565 11.9514 9.25595 11.6528C8.46173 11.3541 8.27747 11.0555 8.27747 10.9793C8.27747 10.903 8.45537 10.5917 9.25595 10.2994ZM15.3619 18.3052C14.555 18.6038 13.4685 18.769 12.3121 18.769C11.1494 18.769 10.0629 18.6038 9.2623 18.3052C8.46808 18.0066 8.28382 17.7079 8.28382 17.6317V16.9201C8.44902 17.009 8.64598 17.0916 8.86201 17.1742C9.78967 17.5237 11.0159 17.7143 12.3121 17.7143C13.6083 17.7143 14.8346 17.5237 15.7622 17.1742C15.9783 17.0916 16.1689 17.009 16.3404 16.9201V17.6317C16.3341 17.7079 16.1562 18.0066 15.3619 18.3052ZM16.3341 15.4015V15.4079C16.3214 15.5032 16.1308 15.7891 15.3619 16.075C14.555 16.3736 13.4685 16.5388 12.3121 16.5388C11.1494 16.5388 10.0629 16.3736 9.2623 16.075C8.46808 15.7764 8.28382 15.4778 8.28382 15.4015V14.6899C8.44902 14.7788 8.64598 14.8614 8.86201 14.944C9.78967 15.2935 11.0159 15.4841 12.3121 15.4841C13.6083 15.4841 14.8346 15.2935 15.7622 14.944C15.9783 14.8614 16.1689 14.7788 16.3404 14.6899L16.3341 15.4015ZM16.3341 13.1713V13.1777C16.3214 13.273 16.1308 13.5589 15.3619 13.8448C14.555 14.1435 13.4685 14.3087 12.3121 14.3087C11.1494 14.3087 10.0629 14.1435 9.2623 13.8448C8.46808 13.5462 8.28382 13.2476 8.28382 13.1713V12.4597C8.44902 12.5487 8.64598 12.6313 8.86201 12.7139C9.78967 13.0633 11.0159 13.2539 12.3121 13.2539C13.6083 13.2539 14.8346 13.0633 15.7622 12.7139C15.9783 12.6313 16.1689 12.5487 16.3404 12.4597L16.3341 13.1713Z" fill="#37373F"/>
</symbol><symbol id="star" viewBox="0 0 18 17">
<path d="M16.3414 5.50113L11.6364 5.0589C11.3398 5.0321 11.0837 4.84448 10.9623 4.56306L9.27717 0.50254C9.00755 -0.167513 8.05037 -0.167513 7.78074 0.50254L6.10905 4.56306C6.0012 4.84448 5.73158 5.0321 5.43499 5.0589L0.729989 5.50113C0.0289576 5.56814 -0.254151 6.43921 0.271622 6.90825L3.81722 10.0039C4.0464 10.2049 4.14077 10.4997 4.07337 10.7946L3.00834 15.1365C2.84656 15.8199 3.58804 16.3828 4.20818 16.021L8.13126 13.7294C8.3874 13.582 8.69748 13.582 8.95362 13.7294L12.8767 16.021C13.4968 16.3828 14.2383 15.8334 14.0765 15.1365L13.025 10.7946C12.9576 10.4997 13.052 10.2049 13.2811 10.0039L16.8267 6.90825C17.339 6.43921 17.0424 5.56814 16.3414 5.50113Z" fill="#FC9B09"/>
</symbol><symbol id="trophy" viewBox="0 0 45 49">
<path d="M37.1079 16.3785H31.231V15.5672C31.231 15.0797 30.8358 14.6844 30.3483 14.6844H14.2996C13.8121 14.6844 13.4169 15.0797 13.4169 15.5672V16.3785H7.53994C7.05243 16.3785 6.65723 16.7737 6.65723 17.2612V21.2586C6.65723 22.3514 7.08286 23.379 7.8557 24.1518C8.62854 24.9246 9.65602 25.3502 10.7489 25.3502H13.6429C14.4881 29.0243 17.6123 31.8375 21.4413 32.216V36.1895H19.0773C17.7118 36.1895 16.6009 37.3004 16.6009 38.6659V40.1173C16.6009 40.6048 16.9961 41 17.4836 41H27.1644C27.6519 41 28.0471 40.6048 28.0471 40.1173V38.6659C28.0471 37.3004 26.9362 36.1895 25.5708 36.1895H23.2068V32.2159C27.0358 31.8374 30.1599 29.0243 31.0051 25.3502H33.899C36.1552 25.3502 37.9908 23.5147 37.9908 21.2585V17.2612C37.9906 16.7737 37.5954 16.3785 37.1079 16.3785ZM26.2816 38.6659V39.2346H18.3662V38.6659C18.3662 38.2738 18.6852 37.955 19.0772 37.955H25.5707C25.9627 37.9549 26.2816 38.2738 26.2816 38.6659ZM13.4183 23.5848H10.7488C10.1275 23.5848 9.54328 23.3429 9.10403 22.9035C8.66452 22.4641 8.42265 21.8799 8.42265 21.2586V18.144H13.4184V23.5848H13.4183ZM29.4655 23.3525C29.4655 27.2904 26.2618 30.4942 22.3239 30.4942C18.386 30.4942 15.1823 27.2904 15.1823 23.3525V16.4499H29.4655V23.3525ZM31.2295 18.1439H36.2253V21.2585C36.2253 22.5412 35.1817 23.5848 33.899 23.5848H31.2295V18.1439Z" fill="#37373F"/>
<path d="M18.5794 8.12971L17.9172 11.6248C17.8535 11.9604 17.9892 12.3025 18.2656 12.5033C18.542 12.704 18.9092 12.7274 19.2088 12.5632L22.3281 10.8533L25.4476 12.5632C25.5803 12.6359 25.7263 12.6718 25.8718 12.6718C26.0548 12.6718 26.2369 12.6151 26.3908 12.5033C26.667 12.3025 26.8027 11.9604 26.7393 11.6248L26.0771 8.12971L28.667 5.6914C28.9157 5.45727 29.007 5.10074 28.9015 4.7759C28.7959 4.45106 28.5125 4.21626 28.1737 4.17305L24.6449 3.72287L23.1263 0.505921C22.9806 0.197055 22.6697 0 22.3281 0C21.9865 0 21.6757 0.197055 21.5299 0.505921L20.0113 3.72287L16.4825 4.17305C16.1437 4.21626 15.8603 4.45106 15.7548 4.7759C15.6493 5.10066 15.7406 5.45736 15.9892 5.6914L18.5794 8.12971ZM20.7148 5.41288C21.0138 5.37472 21.2726 5.18666 21.4013 4.91402L22.3281 2.95053L23.255 4.91402C23.3836 5.18657 23.6424 5.37463 23.9415 5.41288L26.0955 5.6877L24.5146 7.17596C24.2951 7.3826 24.1963 7.68684 24.2524 7.98301L24.6565 10.1165L22.7524 9.07278C22.6203 9.00032 22.4741 8.96408 22.3281 8.96408C22.1821 8.96408 22.036 9.00032 21.9038 9.07278L19.9999 10.1164L20.4041 7.98301C20.4603 7.68692 20.3613 7.38251 20.1419 7.17596L18.5609 5.6877L20.7148 5.41288Z" fill="#FC9B09"/>
<path d="M40.6023 7.92533C40.4967 7.6005 40.2133 7.36569 39.8745 7.32248L37.33 6.99781L36.235 4.67804C36.0892 4.36917 35.7782 4.17212 35.4368 4.17212C35.0953 4.17212 34.7843 4.36917 34.6385 4.67804L33.5435 6.99781L30.9989 7.32248C30.6601 7.36569 30.3767 7.6005 30.2711 7.92533C30.1656 8.25009 30.2569 8.60671 30.5056 8.84084L32.3734 10.599L31.8957 13.1193C31.8321 13.4548 31.9678 13.7971 32.2442 13.9977C32.3981 14.1095 32.5802 14.1664 32.7631 14.1664C32.9086 14.1664 33.0547 14.1304 33.1874 14.0577L35.4368 12.8247L37.6862 14.0577C37.9858 14.2219 38.3531 14.1986 38.6294 13.9977C38.9057 13.797 39.0413 13.4549 38.9779 13.1193L38.5004 10.599L40.368 8.84084C40.6165 8.60671 40.7078 8.25017 40.6023 7.92533ZM36.9379 9.64528C36.7185 9.85184 36.6196 10.1562 36.6757 10.4523L36.8952 11.611L35.861 11.0442C35.7288 10.9717 35.5827 10.9355 35.4367 10.9355C35.2906 10.9355 35.1445 10.9717 35.0124 11.0442L33.9784 11.6109L34.1979 10.4523C34.2541 10.1562 34.1551 9.85184 33.9357 9.6452L33.0771 8.83705L34.2468 8.68783C34.5458 8.64975 34.8047 8.46169 34.9333 8.18906L35.4366 7.12274L35.9399 8.18906C36.0685 8.46161 36.3274 8.64966 36.6264 8.68783L37.7962 8.83705L36.9379 9.64528Z" fill="#FC9B09"/>
<path d="M9.20877 12.8248L11.4583 14.0578C11.7578 14.222 12.1251 14.1987 12.4014 13.9978C12.6777 13.7971 12.8133 13.455 12.7499 13.1194L12.2724 10.5991L14.14 8.84092C14.3887 8.60679 14.48 8.25026 14.3745 7.92542C14.2689 7.60058 13.9855 7.36578 13.6467 7.32257L11.1021 6.99781L10.007 4.67804C9.86122 4.36917 9.55025 4.17212 9.20877 4.17212C8.86728 4.17212 8.55632 4.36917 8.41054 4.67804L7.31556 6.99781L4.77099 7.32248C4.43219 7.36569 4.1488 7.6005 4.04321 7.92533C3.93771 8.25009 4.029 8.60671 4.27768 8.84084L6.1455 10.599L5.66783 13.1193C5.60419 13.4548 5.73987 13.7971 6.01629 13.9977C6.17022 14.1095 6.35231 14.1664 6.53524 14.1664C6.68076 14.1664 6.82679 14.1304 6.95944 14.0577L9.20877 12.8248ZM8.01895 8.68783C8.31798 8.64975 8.57683 8.46169 8.70545 8.18906L9.20877 7.12274L9.71208 8.18906C9.84071 8.4616 10.0996 8.64966 10.3986 8.68783L11.5684 8.83705L10.7099 9.64528C10.4905 9.85184 10.3916 10.1562 10.4477 10.4523L10.6672 11.611L9.63297 11.0442C9.50082 10.9717 9.35471 10.9355 9.20868 10.9355C9.06266 10.9355 8.91655 10.9717 8.78439 11.0442L7.75044 11.6109L7.96994 10.4523C8.0261 10.1562 7.92715 9.85184 7.70773 9.6452L6.84915 8.83705L8.01895 8.68783Z" fill="#FC9B09"/>

</symbol><symbol id="vk" viewBox="0 0 26 16">
<path fill-rule="evenodd" clip-rule="evenodd" d="M25.0593 1.34671C25.1479 1.3744 25.229 1.42146 25.2971 1.4845C25.3652 1.54754 25.4189 1.62495 25.4534 1.71114C25.4878 1.79732 25.5027 1.89011 25.4968 1.98275C25.4909 2.07538 25.4642 2.16556 25.4192 2.24671C25.2992 2.47971 25.1691 2.7067 25.0491 2.9337C25.0476 3.01323 25.0268 3.0912 24.9885 3.16089C24.9502 3.23058 24.8957 3.2899 24.8293 3.33371C23.725 5.34087 22.4432 7.24513 20.9992 9.0237C20.9944 9.02522 20.9901 9.02796 20.9866 9.03163C20.9831 9.03531 20.9805 9.03981 20.9792 9.04471C22.6492 10.2277 26.6392 13.2447 24.6892 14.9447C23.6692 15.8377 20.7091 15.6877 19.5691 15.1817C18.9084 14.8425 18.2934 14.4208 17.739 13.9267C16.759 13.1367 16.4891 13.1827 15.6091 14.0267C14.4791 15.1117 13.8494 15.7987 12.1794 15.6017C10.1849 15.2539 8.32981 14.3479 6.82933 12.9887C3.4438 10.0405 1.05985 6.1113 0.00901499 1.74671C-0.00445804 1.67883 -0.00269686 1.60884 0.0134095 1.54154C0.0295159 1.47424 0.0600229 1.41121 0.102765 1.35678C0.145507 1.30236 0.199402 1.25783 0.260968 1.22623C0.322534 1.19463 0.390073 1.17671 0.45921 1.17371C0.47921 1.17371 0.479249 1.16371 0.499249 1.15871C2.07974 0.874933 3.69259 0.817351 5.28929 0.987704C5.41579 1.00343 5.53429 1.05752 5.62913 1.1427C5.67589 1.16149 5.71727 1.19175 5.74925 1.2307C6.97925 2.7127 7.51905 4.66971 8.79905 6.11071C9.41905 6.81071 9.61942 6.69471 9.67943 5.73371C9.70775 5.32129 9.71086 4.90753 9.68919 4.49471C9.62919 3.41571 9.24909 2.47071 9.08909 1.42171C9.05895 1.28436 9.08441 1.14065 9.15941 1.0217C9.17637 0.903064 9.23091 0.793134 9.31566 0.708392C9.4004 0.62365 9.5105 0.568664 9.62913 0.551699C11.1537 0.452925 12.6825 0.432235 14.2092 0.489703C14.3038 0.460465 14.4052 0.462152 14.4988 0.494525C14.5923 0.526898 14.673 0.588277 14.7292 0.669711C14.7864 0.686354 14.8381 0.718212 14.8786 0.761889C14.9192 0.805567 14.9469 0.859425 14.9592 0.917712C15.1391 1.86004 15.1998 2.82126 15.1394 3.7787C15.1294 4.2387 15.1191 4.70271 15.1091 5.16271C15.0991 5.42571 15.0993 5.6897 15.0993 5.9527C14.9993 6.4387 15.1894 6.62371 15.6594 6.51071C16.4494 6.59771 16.6591 5.9267 17.0491 5.3107C17.2791 4.9447 17.4992 4.5677 17.7092 4.1857C18.2092 3.2857 18.569 2.34271 19.029 1.42771C19.0619 1.35456 19.1135 1.29131 19.1784 1.24428C19.2434 1.19725 19.3194 1.16808 19.3992 1.1597C19.4453 1.13367 19.4963 1.11766 19.5491 1.1127C21.3886 0.975475 23.2381 1.05402 25.0593 1.34671Z" fill="#5476A4"/>
</symbol></symbol></svg>