<svg xmlns="http://www.w3.org/2000/svg" xmlns:xlink="http://www.w3.org/1999/xlink"><defs>
    <style>
      .cls-1 {
        fill: #34404b;
        fill-rule: evenodd;
      }
    </style>
  
    <style>
      .cls-1 {
        fill: #34404b;
        fill-rule: evenodd;
      }
    </style>
  
    <style>
      .cls-1 {
        fill: #34404b;
        fill-rule: evenodd;
      }
    </style>
  
    <style>
      .cls-1 {
        fill: #34404b;
        fill-rule: evenodd;
      }
    </style>
  </defs><symbol id="rating-star" viewBox="0 0 22 21">
	<path fill="#e9ecf3" d="M11,16.3L4.2,21l2.4-8L0,8l8.3-.2L11,0l2.7,7.9L22,8l-6.6,5,2.4,8Z"/>
</symbol><symbol id="rating-star_fill" viewBox="0 0 22 21">
	<path fill="#f65e44" d="M11,16.3L4.2,21l2.4-8L0,8l8.3-.2L11,0l2.7,7.9L22,8l-6.6,5,2.4,8Z"/>
</symbol><symbol id="rating-star_focus" viewBox="0 0 22 21">
	<path fill="#b34532" d="M11,16.3L4.2,21l2.4-8L0,8l8.3-.2L11,0l2.7,7.9L22,8l-6.6,5,2.4,8Z"/>
</symbol><symbol id="social__icon--facebook" viewBox="0 0 5.78 11">
  
  <path id="facebook" class="cls-1" d="M1260.87,36h-2.32V30.5H1257V28.6h1.55V27.487c0-1.546.47-2.487,2.52-2.487h1.71v1.9h-1.07c-0.8,0-.84.265-0.84,0.759V28.6h1.92l-0.23,1.9h-1.69V36Z" transform="translate(-1257 -25)"/>
</symbol><symbol id="social__icon--google +" viewBox="0 0 12.31 11">
  
  <path id="google_" data-name="google +" class="cls-1" d="M1321.63,25h-3.22a2.761,2.761,0,0,0-2.8,2.5,2.389,2.389,0,0,0,2.45,2.475c0.1,0,.2,0,0.3-0.01a1.4,1.4,0,0,0-.17.637,1.373,1.373,0,0,0,.44.941c-0.18,0-.36.006-0.56,0.006-1.78,0-3.16,1.2-3.16,2.454,0,1.231,1.51,2,3.3,2,2.04,0,3.16-1.224,3.16-2.454a2.41,2.41,0,0,0-1.12-2.214,2.15,2.15,0,0,1-.85-1.06,1.131,1.131,0,0,1,.62-0.975,2.334,2.334,0,0,0,.91-1.779,2.066,2.066,0,0,0-1.04-1.968h1.02Zm-1.13,8.334a1.37,1.37,0,0,1,.04.351c0,0.994-.6,1.771-2.34,1.771a1.963,1.963,0,0,1-2.13-1.822,2.154,2.154,0,0,1,2.35-1.772A2.139,2.139,0,0,1,1320.5,33.334Zm-1.97-3.709a2.273,2.273,0,0,1-1.77-2.134c-0.14-1.153.42-2.035,1.25-2.009a2.227,2.227,0,0,1,1.76,2.1C1319.91,28.738,1319.35,29.651,1318.53,29.625Zm6.38-2.184V25h-0.77v2.441h-2.31v0.814h2.31V30.7h0.77V28.255h2.31V27.441h-2.31Z" transform="translate(-1314.91 -25)"/>
</symbol><symbol id="social__icon--instegram" viewBox="0 0 10.84 11">
  
  <path id="instegram" class="cls-1" d="M1352.2,25h-7.26a1.818,1.818,0,0,0-1.8,1.826v7.348a1.819,1.819,0,0,0,1.8,1.826h7.26a1.819,1.819,0,0,0,1.8-1.826V26.826A1.818,1.818,0,0,0,1352.2,25Zm-5.58,4.812h3.9a1.967,1.967,0,0,1,.12.688,2.07,2.07,0,1,1-4.14,0A1.967,1.967,0,0,1,1346.62,29.812Zm6.02,0v4.124a0.682,0.682,0,0,1-.68.688h-6.78a0.682,0.682,0,0,1-.68-0.687V29.813h1.06a3.09,3.09,0,1,0,6.02,0h1.06Zm0-2.407a0.341,0.341,0,0,1-.34.344h-0.68a0.339,0.339,0,0,1-.33-0.344V26.719a0.339,0.339,0,0,1,.33-0.344h0.68a0.341,0.341,0,0,1,.34.344v0.688Z" transform="translate(-1343.16 -25)"/>
</symbol><symbol id="social__icon--twitter" viewBox="0 0 13.03 11">
  
  <path id="twitter" class="cls-1" d="M1297.54,26.3a5.238,5.238,0,0,1-1.54.438,2.788,2.788,0,0,0,1.18-1.537,5.256,5.256,0,0,1-1.7.674,2.625,2.625,0,0,0-1.95-.877,2.722,2.722,0,0,0-2.67,2.778,3.281,3.281,0,0,0,.06.633,7.5,7.5,0,0,1-5.51-2.9,2.848,2.848,0,0,0-.36,1.4,2.8,2.8,0,0,0,1.19,2.312,2.578,2.578,0,0,1-1.21-.347V28.9a2.752,2.752,0,0,0,2.15,2.723,2.676,2.676,0,0,1-.71.1,2.523,2.523,0,0,1-.5-0.05,2.692,2.692,0,0,0,2.49,1.929,5.211,5.211,0,0,1-3.32,1.189,5.1,5.1,0,0,1-.63-0.039,7.36,7.36,0,0,0,4.1,1.248,7.715,7.715,0,0,0,7.6-7.9c0-.12,0-0.24-0.01-0.36A5.463,5.463,0,0,0,1297.54,26.3Z" transform="translate(-1284.5 -25)"/>
</symbol></svg>