<svg xmlns="http://www.w3.org/2000/svg" width="13.219" height="13.46"><path data-name="Forma 1 копия 4" d="M2.655 13.46a.23.23 0 01-.139-.04.271.271 0 01-.094-.25l.733-4.56L.047 5.39a.272.272 0 01-.06-.26.237.237 0 01.192-.17l4.3-.67L6.4.15a.23.23 0 01.213-.14.23.23 0 01.213.14l1.92 4.14 4.3.67a.236.236 0 01.191.17.267.267 0 01-.06.26l-3.108 3.22.734 4.56a.273.273 0 01-.094.25.251.251 0 01-.251.02l-3.841-2.15-3.842 2.15a.214.214 0 01-.12.02zM.723 5.38l2.853 2.96a.277.277 0 01.068.23l-.673 4.18 3.526-1.97a.219.219 0 01.221 0l3.527 1.97-.674-4.18a.284.284 0 01.068-.23l2.853-2.96-3.942-.61a.227.227 0 01-.179-.14L6.608.83 4.844 4.64a.233.233 0 01-.178.13z" fill-rule="evenodd" opacity=".4"/></svg>