<svg version="1" xmlns="http://www.w3.org/2000/svg" width="346.667" height="346.667" viewBox="0 0 260 260"><path d="M115.4 6.5c-1.4 2.1-1.5 3.1-.6 5.1 1.5 3.2 4.9 4.4 12.3 4.4 5.7 0 6 .1 5.7 2.2-.3 2.1-.9 2.3-7.4 2.6-6.6.3-7.2.1-7.7-1.9-.6-2.3-3-2.1-3.5.3-.6 3.2 2.6 4.8 9.8 4.8 9.5 0 12-1.1 12-5.2 0-5.2-1-5.9-8.8-6.1-7.3-.2-9.9-1.4-8.9-4.1.5-1.2 2.1-1.6 6.5-1.6 4.8 0 6.2.4 7.3 2 1 1.4 1.8 1.7 2.8 1.1 1.2-.8 1.2-1.3-.3-3.5-1.5-2.4-2.1-2.6-9.6-2.6-7.4 0-8.1.2-9.6 2.5zm28.1.9c-3.5 5.3.2 9.1 10.7 11 3.8.7 5.2 2.4 3.8 4.6-.5.9-1.9 1.1-4.6.6-7.4-1.3-10.4-2.7-10.4-4.7 0-1-.7-1.9-1.5-1.9-2.4 0-1.8 4.7.8 6.4 1.2.8 5.2 2 8.9 2.7 6.2 1.1 6.9 1.1 8.8-.6 2.5-2.3 2.6-7.1.3-8.3-1-.5-4.2-1.5-7.1-2.2-8.2-1.9-10.9-6-3.9-6 5.4 0 10.4 1.9 11 4 .8 3.1 2.9 2.4 2.5-.8-.4-3.3-5.2-6-12.6-6.9-4.6-.5-5.1-.3-6.7 2.1zM96.2 8c-4.1 1-7.6 2.1-7.9 2.4-.3.3.5 4.6 1.7 9.6 2.5 10.2 1.9 9.9 12.8 7.1 8-2.1 9-2.7 7.6-4.1-.6-.6-3.6-.2-8.1.9-7.1 1.8-7.2 1.8-7.8 0-.8-2.5-.1-3.5 3.2-4.3 8.6-2.1 10.3-2.8 10.3-4.1 0-1.9-.7-1.9-8 .2-4.4 1.2-6.4 1.3-7.2.5-2.1-2.1 0-3.9 6-5.2 6.9-1.4 8.7-2.3 7.8-3.9-.9-1.4-1.5-1.3-10.4.9zm74.1 4.7c-.3 1-1.9 5.2-3.5 9.2-2.1 5.7-2.5 7.7-1.5 8.3.6.4 1.5.4 1.8 0 1.4-1.5 6.9-17.4 6.3-18.3-.9-1.5-2.4-1-3.1.8zm-98.8 5c-3.8 1.9-7.1 3.7-7.3 3.8-.3.3 7.6 16.5 8.4 17.4.3.3 1-.1 1.6-.7.9-.9.8-2-.4-4.5l-1.6-3.4 6.5-3.2c4.6-2.3 6.3-3.5 5.5-4.3-.7-.7-2.7-.2-6.7 1.6-7 3.2-6.9 3.2-8.3.2-1-2.3-.7-2.5 5.3-5.2 3.6-1.6 6.5-3.5 6.5-4.2 0-1.9-1.9-1.4-9.5 2.5zm105.5 3c-3.7 5.7-4.6 9-3.3 11.2 1.1 1.9 10.2 7.5 14.5 9 2.6.9 3.2.7 5.5-1.7 1.3-1.4 3.4-4.6 4.4-7 1.8-3.9 1.9-4.6.6-6.6-1.6-2.4-12.9-8.8-16.5-9.3-1.7-.3-2.9.7-5.2 4.4zm13.3 2.3c2.6 1.7 5 3.7 5.3 4.5.4.8-.6 3.5-2.1 6.1-2.4 4.1-3 4.5-5.3 3.9-3-.7-8.4-3.9-10.7-6.2-1.4-1.3-1.2-2 1.1-6.4 3.2-5.9 4.9-6.1 11.7-1.9zM52.5 29.7C46.4 33.8 42 38.6 42 41.3c0 1.6 1.8 4.4 4.8 7.6 5.6 6 6.2 6 14.6-.7 7.5-6 8.4-8.1 5.7-12.6-2.4-3.9-7.6-8.6-9.4-8.6-.7 0-3 1.2-5.2 2.7zm12.1 8.6c.7 2.2-4.3 7.9-9.1 10.4-2.9 1.6-3 1.5-6.7-2.7-2.1-2.3-3.8-4.6-3.8-5.1 0-1.1 6.1-7 9.5-9l3-1.9 3.2 3.2c1.8 1.8 3.6 4 3.9 5.1zm136.2-.6c-5.1 5.2-6.5 7.2-5.8 8.3.8 1.2 2.1.4 6.9-4.4l6-6 .3 11.9c.3 10 .6 12 2.1 12.9 1.5.9 2.7.1 8.1-5.9 5.9-6.5 7-8.5 4.6-8.5-.6 0-3.1 2.2-5.7 5-2.6 2.7-5.1 5-5.5 5-.4 0-.8-5.1-.8-11.3 0-10.4-.7-13.7-3-13.7-.3 0-3.6 3-7.2 6.7zm-80.3.7c-13.9 6-13.9 27.4-.1 33.7 5.2 2.4 10 2.4 15.1 0 7.2-3.3 10.5-8.6 10.5-16.6 0-5.5-1.4-9.2-4.8-12.9-5-5.4-13.9-7.2-20.7-4.2zM32.7 49.1C31 50.1 21 63.5 21 64.8c0 .4 3.2 3.1 7.1 6.1 4.7 3.5 7.6 5 8.7 4.6 1.5-.6 1.3-1-1-2.9-1.6-1.2-2.8-2.5-2.8-2.9 0-1.5 8.2-11.7 9.4-11.7.6 0 2.1.7 3.3 1.5 1.8 1.2 2.3 1.3 3.2.1.9-1.1.6-1.8-1.8-3.5-1.6-1.2-3.4-2.1-4.1-2.1-.7 0-2.1-1.1-3.1-2.4-2.2-2.7-5-3.7-7.2-2.5zm4.7 4.5c1.5 1.4 1.5 1.8 0 4.3-.9 1.6-3.1 4.5-4.8 6.5L29.5 68 27 66.1l-2.4-1.9 2.7-3.9c3.4-5 6.5-8.3 7.7-8.3.5 0 1.6.7 2.4 1.6zm176.9 10.7c-.8 1.2.8 2.5 3.6 2.9 1.8.2 3.4 1.9 5.7 5.7 2.7 4.5 3.1 5.7 2.1 7.8-.7 1.6-.7 2.7 0 3.4.7.7 2.8-2 6.5-8.3 7.6-12.6 7.3-13.1-6.9-12.6-5.8.1-10.7.7-11 1.1zm19.7 2.4c0 .9-4.8 8.3-5.4 8.3-.6 0-4.6-7-4.6-7.9 0-.4 2.3-.8 5-1 2.8-.1 5 .2 5 .6z"/><path d="M88.1 71.3c-.6.8-2.3 1.2-4 .9-2.5-.3-3.9.4-8.1 4.4-12.5 11.7-23.6 30.2-26.6 44.4-2.4 11.4-1.5 25.2 2.3 36.2 8.9 25.8 33.3 50.5 57.8 58.5 6.7 2.2 9.8 2.6 19 2.7 9.4 0 12.1-.4 18.9-2.7 13.6-4.8 29.4-16.8 41.8-31.8 20.6-25 24.5-54.5 10.8-80.7-5-9.6-12.1-19.1-19.5-26.1-4.7-4.5-6.1-5.2-8.6-4.9-1.7.3-3.4-.1-4-.9-1.9-2.2-6.7-1.6-8.4 1-1.4 2.2-1.3 3 .6 9.3 2.5 8.2 7.9 20.4 9 20.4.5 0 .6-.6.4-1.3-3.4-9.4-7.4-24.4-7-25.8 1.1-3.3 5.5-1.5 5.5 2.1 0 .9 2.2 5.9 4.8 11.1 6 11.7 11.8 24.5 12.7 28.1.7 2.6.6 2.6-3.2 2.1-6.8-.9-11.7 4.7-15.4 17.4-2.3 8.3-7.2 14.8-17.4 23.3-9.9 8.3-14.4 13.4-18.2 20.6-1.5 3-3 5.4-3.3 5.4-.3 0-1.7-2.4-3.2-5.3-3.2-6.5-9.8-14-19.3-21.7-9.6-7.8-14.1-14.1-16.6-23-3.3-12.1-8.6-17.8-15.6-16.7-3.4.6-3.5.5-2.8-2.1.3-1.5 4.4-10.6 9.1-20.2 4.6-9.6 8.4-18.3 8.4-19.2 0-1.9 3.5-4.2 5-3.3 1.6 1 1.2 3.6-2.5 14.9-1.9 6-3.5 11.6-3.5 12.5.1 2.6 5.8-9.1 8.5-17.5 2.5-7.5 2.5-11.1.1-12.6-1.8-1.2-6.3-.9-7.5.5zm-3.5 5.1c.3.8-2.2 7.2-5.7 14.3-3.4 7-7 14.7-8 17.1-2.7 6.1-5.9 19.3-5.9 23.9.1 12.7 8 30.1 20.5 45.1 7.7 9.2 10.5 11.7 10.5 9.4 0-.9-3.6-6.3-10-14.8-9.3-12.2-16-28.8-16-39.7 0-6.4 1.3-8.7 5-8.7 4 0 7.6 4.9 9.7 13.5 2.2 9.2 8 16.7 20.5 26.7 10.4 8.4 16.2 15.5 19.8 24.3 1.2 3 2.6 5.5 3 5.5.4 0 1.8-2.5 3-5.6 3.4-8.3 9.9-16.3 18.9-23.3 13.9-10.7 19-17.6 22.1-29.7 1.5-6.1 5-10.8 8.3-11.2 4.4-.5 5.7 1.3 5.7 7.7 0 11.9-6.3 27.6-16.6 41.6-7.6 10.2-9.7 13.5-9 14.2.9.9 2.7-.8 10.8-10.6 12.1-14.6 19.8-31.8 19.8-44.3 0-9.4-4.2-21.9-14.4-42.6-4.9-10.1-6-14.2-3.6-14.2.4 0 3.6 3 7 6.7 16.6 17.8 25.1 38.8 23.7 58.7-1.4 18.7-9.5 35.1-26.1 52.4-9.1 9.5-18.3 16-28.2 19.9-6.3 2.5-8.1 2.7-20.4 2.8-13.1 0-13.8-.1-22.5-3.5-4.9-2-11.5-5.2-14.6-7.3-7-4.6-21.1-19.2-26.4-27.2-11.2-17.1-15.8-37.9-12-54.5 3.8-16.1 11.4-29.7 23.9-42.8 5.3-5.5 6.3-6 7.2-3.8zm-68.3-1.6c-.6.4-2.7 4.4-4.6 8.9l-3.4 8.1 6.1 2.7c3.4 1.5 7.3 3.3 8.8 4 1.5.7 2.9 1 3.2.7 1.4-1.3.4-3-2.3-4.1l-2.8-1.2 3.1-7.6 3.1-7.5-2.8-2.4c-2.8-2.4-6.1-3-8.4-1.6zm5.1 2.8c2.1.8 2 3.3-.5 9-2.5 6-2.1 5.6-5.4 4.8-3-.7-3-1.8.5-9.8 1.9-4.6 2.6-5.1 5.4-4z"/><path d="M142.5 76.8c-7.2 3.7-18.7 4.2-27 1.2-9.2-3.3-10.4-3.4-12.5-1.5-4.6 4.2-6.9 18.7-4.6 28.8 1.9 8.2 3.4 11.2 8.6 17.1 4.2 5 4.3 5.3.4 12.7-1.2 2.4-1.3 3.7-.5 5.5 1.6 3.7 8.2 10.5 13 13.6 8 5 15 3.1 23.9-6.7 6.4-7 7-9.1 4.3-15.5l-2.1-4.9 4-5.3c8.6-11.3 11-26.1 6.4-38.8-3.5-9.7-5.5-10.6-13.9-6.2zm-12.1 16.9c.1 3.2-.2 3.8-1.9 3.8-2.4 0-3-2.9-1.5-7 1.4-3.7 3.2-2 3.4 3.2zm-4 8.9c.9 2.4-1.7 2.8-3.6.4-1-1.2-1.8-2.6-1.8-3.1 0-1.3 4.8 1.1 5.4 2.7zm9.2-.8c-.8 2.3-3.5 3.7-4.8 2.4-.6-.6.2-1.8 1.8-3.1 3-2.4 3.9-2.2 3 .7zm-10.9 8.6c2.6 2.3 2.7 2.5.9 3.2-1.4.5-2.4.1-3.8-1.5-3.5-4.5-1.6-5.6 2.9-1.7zm12.3-1.2c-.1 2.1-2.6 4.8-4.4 4.8-2.3 0-2-2.6.6-4.4 2.7-1.9 3.8-2 3.8-.4zm-7.7 22c.2 9.3 0 16.8-.4 16.8-.5 0-.9-8-.8-17.8 0-9.7.2-17.3.4-16.7.2.5.5 8.5.8 17.7zm-5.9-13.1c3.1 1.5 4.1 3.8 1.9 4.6-1.6.6-5.3-2.8-5.3-4.8 0-1.2.4-1.1 3.4.2zm13.6.1c-.1 2.1-2.6 4.8-4.4 4.8-2.3 0-2-2.6.6-4.4 2.7-1.9 3.8-2 3.8-.4zm-11.2 11.1c.4 2.1-2.4 1.3-3.2-.9-.4-1.1-.1-1.4 1.1-1.2 1 .2 1.9 1.1 2.1 2.1zm8.6-.9c-.7 1.9-3.4 2.9-3.4 1.2 0-.7.3-1.6.7-1.9 1.2-1.3 3.2-.7 2.7.7zm101.4-44.6c-4.2 1.5-7.9 3-8.3 3.4-.5.5 4.1 15.3 5.2 16.7.2.3.8 0 1.3-.5.7-.7.3-3.2-1.1-7.3-1.2-3.5-1.8-6.6-1.3-7.1.5-.4 4-1.8 7.7-3s6.6-2.7 6.4-3.3c-.6-1.8-1.9-1.6-9.9 1.1zm5 30.7c-.9 2.1-.9 2.9.4 4.2 2.4 2.3 6.8 1 6.8-2 0-4.9-5.2-6.4-7.2-2.2zm-229.2 2.4c-2.1 2.3-1.8 4.9.7 6.5 4.2 2.7 7.3-4.3 3.1-7-1.8-1.3-2.3-1.2-3.8.5zM236 134.4c0 1.5 1.9 2.2 9.8 3.2 2.8.3 5.2 1 5.2 1.4 0 .4-3.6 2.2-8 4-4.4 1.8-8.3 3.7-8.6 4.2-.4.6 2.4 4.2 6.2 8l6.9 7-4.5-.7c-6.9-1.1-11.3-1.1-11.7.1-.4 1.1 6.2 2.9 15 4 4.7.7 4.7.6 4.7-2.2 0-2.3-1.3-4.1-6.7-9l-6.6-6 8.2-3.3c7.4-3 10.1-5.2 10.1-7.9 0-.6-3.9-1.7-8.7-2.6-10.7-2-11.3-2-11.3-.2zm-219.8 8.3c.2 1 1.1 1.7 2 1.5 1.9-.3 3.8 5 3.8 10.5 0 3.8-.5 4.2-6.8 5-5.7.6-5.8.5-7.2-6.9-1-4.8-.9-5.4 1.1-6.9 2.2-1.6 1.9-3.9-.5-3.9-.7 0-2.1.9-3.1 2-1.7 1.9-1.8 2.7-.8 8.6.6 3.6 1.9 7.7 2.8 9.1 1.6 2.4 2.1 2.5 7.2 2 3-.3 6.6-1.3 8-2.2 2.4-1.6 2.5-2.1 2-8.4-.8-9.1-2.2-12.1-5.9-12.1-2.3 0-2.9.4-2.6 1.7zm9.3 23c-1.1.3-3.3 1.1-5 1.8-1.6.8-4.7 2.1-6.8 2.9-2.1.9-3.7 2.1-3.5 2.7.5 1.5 1.3 1.4 10.6-1.8 6.1-2.1 8.2-3.2 8.2-4.5 0-1.9-.1-1.9-3.5-1.1zm203.9 1.4c-.3.6-.1 2.1.6 3.3 1 2 .7 3.2-1.9 8.5-2.6 5-3.6 6.1-5.6 6.1-1.6 0-2.5.6-2.5 1.5 0 1.2 1.5 1.5 7.3 1.5 10.3 0 14.5-.9 15.2-3.1.4-1.3-1.3-4.5-5.6-10.4-3.4-4.7-6.3-8.5-6.5-8.5-.1 0-.6.5-1 1.1zm5.4 17.2c-2.7.5-5.2.7-5.4.4-.3-.2.5-2.5 1.7-5l2.2-4.5 3.2 4.1 3.3 4.2-5 .8zM23 177.5c-4.1 2.5-7.9 4.6-8.5 4.9-.6.2-.6.8.2 1.6.9 1 2.5.5 7.8-2.4 3.6-2 6.7-3.6 6.9-3.6.2 0-1 4.4-2.5 9.7-1.6 5.4-2.9 10.7-2.9 11.8 0 2.7 2 4.7 3.4 3.6.6-.5 3.8-2.3 7.1-4.1 7.3-3.9 7.9-4.4 7.2-6.4-.5-1.3-1.7-1-6.8 1.9-3.3 1.9-6.4 3.5-6.9 3.5-.4 0 .5-4.4 2.1-9.8 3.3-11.2 3.3-11.3 1.7-13.4-1.2-1.5-2.1-1.2-8.8 2.7zm189 19.2c-6.5 7.4-7.2 9.9-3.6 13 1.5 1.3 3.2 2.3 3.8 2.3.7 0 3.5-2.5 6.4-5.6 5.1-5.6 8.5-6.8 9.2-3.3.5 2.6-6.1 9.3-9.3 9.4-3.1 0-4.6 2.2-2.1 3.1 3.1 1.2 6.6-.7 10.6-5.7 4.6-5.9 5.1-9.2 1.5-11.5-3.3-2.1-5.4-1.2-10.9 4.7-2.6 2.8-5.2 4.9-5.9 4.6-2.6-.8-1.7-4.4 2.3-9 3.4-3.8 4.5-4.5 6-3.7 1.3.7 2.1.6 3-.5.9-1.1.7-1.6-.9-2.4-3.4-1.9-4.8-1.2-10.1 4.6zm-173.1 5.4c-8.5 6.8-8.2 6.5-7.2 8.3.7 1.3 1.6 1 5.8-2.5 8.9-7.3 10.6-9 10-9.9-1-1.6-1.9-1.2-8.6 4.1zm9.1 1.3c0 .8 2.3 3.4 5.1 5.8l5.1 4.4-5.7 6.2c-5 5.4-6.2 8.2-3.5 8.2.4 0 3.6-3.2 7.1-7.1l6.2-7-5.9-6c-5.8-5.8-8.4-7.2-8.4-4.5zm148.5 9.2c-9.2 6.1-11.5 10.3-7.7 13.7 2.7 2.5 4.7 2.1 10.5-1.8 5.4-3.7 8.1-4.3 9.3-2.3.5.7-1 2.7-3.6 5.1-3.6 3.1-5 3.8-7.2 3.3-3.4-.7-4.8 1.2-2.3 3.1 2.6 1.8 2.5 1.8 9.2-2.7 7.4-4.9 9-7.8 6.2-11.4-2.8-3.5-4.5-3.3-11.8 1.4-6.9 4.5-7.6 4.7-8.5 2.4-.8-2.1.5-3.6 6.1-7.3 3.7-2.5 4.9-2.8 6.5-2 2.5 1.3 3.6.3 2.2-1.9-1.7-2.6-4.6-2.5-8.9.4zm-132.4 6.5c-1.1 1.1-2.1 2.4-2.1 2.9 0 1.3 2.3 1.3 3.7-.1.8-.8 2.5-.4 6.2 1.7 7.2 3.9 7.6 4.5 5.2 9.1-2.8 5.7-4.5 6.8-7.9 5.4-4.6-1.9-8.7-5.7-8.7-8.1 0-3.3-2.3-3.6-3.1-.5-.8 3.3 1.7 6.1 8.7 10 6.7 3.6 9 2.9 12.9-3.8 1.6-2.8 3-5.9 3-6.9 0-2.1-4.9-6.2-11-9.3-4.7-2.4-4.7-2.4-6.9-.4zm116.6 4.6c-.4.3-.7 1.6-.7 2.8 0 1.7-1.3 2.7-6.1 4.8-5.4 2.3-6.3 2.5-8.2 1.2-1.3-.8-2.8-1.1-3.5-.6-.9.6 1.1 2.8 6.8 7.4 11.1 9.1 12.6 8.9 13.5-1.8.3-3.9.8-8.7 1.1-10.8.3-2.7.1-3.7-.9-3.7-.8 0-1.7.3-2 .7zm-.8 10c0 1-.3 3.5-.7 5.6l-.7 3.9-4-3.5c-2.2-1.9-3.8-3.7-3.5-3.9.9-.7 7.5-3.7 8.3-3.7.4-.1.7.7.6 1.6zm-35.6 1.6c-6 1.7-7.7 3.7-6.9 8.2.5 2.7 1.1 3.5 2.4 3.1.9-.2 3.6-.8 6-1.1 2.7-.4 4.2-1.2 4.2-2.1 0-1.2-1-1.3-4.9-.8-4.7.6-4.9.5-4.4-1.4.6-2.5 2-3.1 9.3-3.9 6.5-.6 6.8-.3 7.7 7.8l.5 4.6-4.5 1.2c-6.2 1.5-10.2 1.4-11.7-.4-1.7-2.1-3-1.9-3 .5 0 3.6 3.7 4.9 10.9 3.9 3.6-.5 7.6-1.6 8.9-2.5 2.2-1.4 2.4-2.1 2-7.4-.6-8.2-2.7-11-8.1-10.9-2.3.1-6.1.6-8.4 1.2zm-30.3 2.1c0 1.3 1.1 1.6 5.9 1.6 7.6 0 9.1.6 9.1 3.7v2.6l-7.5-.7c-6.1-.6-7.5-.4-7.5.7 0 1.5 4.8 2.7 10.7 2.7 3.6 0 4.6 1 3.7 3.5-.6 1.4-1.8 1.6-8 1.3-6.4-.3-7.4-.1-7.4 1.3 0 1.4 1.5 1.7 8.8 2.1 4.8.3 8.9.4 9.1.2.4-.3 1.9-18.7 1.6-19.1-.1-.2-4.3-.6-9.3-.9-8.1-.6-9.2-.5-9.2 1z"/></svg>