<svg xmlns="http://www.w3.org/2000/svg" width="10.84" height="11"><path d="M9.04 0H1.78a1.818 1.818 0 00-1.8 1.826v7.348A1.819 1.819 0 001.78 11h7.26a1.819 1.819 0 001.8-1.826V1.826A1.818 1.818 0 009.04 0zM3.46 4.812h3.9a1.967 1.967 0 01.12.688 2.07 2.07 0 11-4.14 0 1.967 1.967 0 01.12-.688zm6.02 0v4.124a.682.682 0 01-.68.688H2.02a.682.682 0 01-.68-.687V4.813H2.4a3.09 3.09 0 106.02 0h1.06zm0-2.407a.341.341 0 01-.34.344h-.68a.339.339 0 01-.33-.344v-.686a.339.339 0 01.33-.344h.68a.341.341 0 01.34.344v.688z" fill="#34404b" fill-rule="evenodd"/></svg>