<?xml version="1.0" standalone="no"?>
<!DOCTYPE svg PUBLIC "-//W3C//DTD SVG 20010904//EN"
 "http://www.w3.org/TR/2001/REC-SVG-20010904/DTD/svg10.dtd">
<svg version="1.0" xmlns="http://www.w3.org/2000/svg"
 width="1271.000000pt" height="1280.000000pt" viewBox="0 0 1271.000000 1280.000000"
 preserveAspectRatio="xMidYMid meet">
<metadata>
Created by potrace 1.15, written by Peter Selinger 2001-2017
</metadata>
<g transform="translate(0.000000,1280.000000) scale(0.100000,-0.100000)"
fill="#000000" stroke="none">
<path d="M6845 10514 c-576 -30 -968 -81 -1425 -186 -517 -118 -991 -288
-1457 -522 -620 -310 -1043 -638 -1284 -995 -231 -342 -298 -685 -209 -1058
28 -118 79 -245 100 -250 10 -3 27 -30 42 -66 13 -35 30 -62 38 -62 8 0 53 56
101 125 725 1033 1752 1753 2917 2044 730 182 1543 191 2282 25 171 -39 479
-141 635 -211 421 -189 776 -449 1058 -777 294 -342 468 -791 527 -1356 14
-139 14 -533 0 -690 -88 -966 -482 -1765 -1205 -2445 -866 -813 -1951 -1220
-3253 -1220 -517 0 -797 60 -894 190 -35 47 -44 182 -25 365 38 366 90 647
532 2865 200 1004 376 1901 391 1993 26 153 27 175 16 249 -11 80 -27 118
-100 250 -70 125 -142 174 -270 185 -136 11 -395 -47 -757 -171 -292 -100
-276 -90 -229 -151 35 -46 81 -167 89 -235 8 -64 -8 -245 -36 -410 -22 -129
-90 -477 -414 -2100 -502 -2519 -518 -2607 -519 -2940 -1 -261 29 -368 164
-581 107 -170 202 -260 355 -336 216 -108 487 -150 910 -140 833 21 1681 199
2580 545 1007 386 1778 864 2439 1512 785 770 1249 1616 1395 2545 41 266 46
334 46 675 -1 411 -19 562 -106 890 -86 323 -292 736 -518 1038 -111 149 -357
400 -508 520 -641 507 -1458 789 -2528 872 -134 11 -756 20 -880 14z"/>
</g>
</svg>
